G04 #@! TF.GenerationSoftware,KiCad,Pcbnew,(6.0.0)*
G04 #@! TF.CreationDate,2021-12-26T21:23:53+01:00*
G04 #@! TF.ProjectId,helixhschoc,68656c69-7868-4736-9368-6f632e6b6963,rev?*
G04 #@! TF.SameCoordinates,Original*
G04 #@! TF.FileFunction,Paste,Bot*
G04 #@! TF.FilePolarity,Positive*
%FSLAX46Y46*%
G04 Gerber Fmt 4.6, Leading zero omitted, Abs format (unit mm)*
G04 Created by KiCad (PCBNEW (6.0.0)) date 2021-12-26 21:23:53*
%MOMM*%
%LPD*%
G01*
G04 APERTURE LIST*
G04 Aperture macros list*
%AMRoundRect*
0 Rectangle with rounded corners*
0 $1 Rounding radius*
0 $2 $3 $4 $5 $6 $7 $8 $9 X,Y pos of 4 corners*
0 Add a 4 corners polygon primitive as box body*
4,1,4,$2,$3,$4,$5,$6,$7,$8,$9,$2,$3,0*
0 Add four circle primitives for the rounded corners*
1,1,$1+$1,$2,$3*
1,1,$1+$1,$4,$5*
1,1,$1+$1,$6,$7*
1,1,$1+$1,$8,$9*
0 Add four rect primitives between the rounded corners*
20,1,$1+$1,$2,$3,$4,$5,0*
20,1,$1+$1,$4,$5,$6,$7,0*
20,1,$1+$1,$6,$7,$8,$9,0*
20,1,$1+$1,$8,$9,$2,$3,0*%
G04 Aperture macros list end*
%ADD10R,2.600000X2.600000*%
%ADD11R,0.900000X1.200000*%
%ADD12R,1.200000X0.900000*%
%ADD13R,1.600000X1.000000*%
%ADD14R,1.524000X1.524000*%
%ADD15RoundRect,0.250100X-0.262400X-0.449900X0.262400X-0.449900X0.262400X0.449900X-0.262400X0.449900X0*%
%ADD16R,1.143000X0.635000*%
G04 APERTURE END LIST*
D10*
X90705540Y-62127540D03*
X79155540Y-59927540D03*
D11*
X127080540Y-65677540D03*
X123780540Y-65677540D03*
D10*
X147705540Y-62127540D03*
X136155540Y-59927540D03*
X128705540Y-62127540D03*
X117155540Y-59927540D03*
X109705540Y-62127540D03*
X98155540Y-59927540D03*
D12*
X193155540Y-109991940D03*
X193155540Y-113291940D03*
D10*
X166705540Y-62127540D03*
X155155540Y-59927540D03*
X185705540Y-138127540D03*
X174155540Y-135927540D03*
X166705540Y-138127540D03*
X155155540Y-135927540D03*
X147705540Y-138127540D03*
X136155540Y-135927540D03*
X90705540Y-138127540D03*
X79155540Y-135927540D03*
X128705540Y-138127540D03*
X117155540Y-135927540D03*
X204705540Y-119127540D03*
X193155540Y-116927540D03*
X109705540Y-138127540D03*
X98155540Y-135927540D03*
X185705540Y-119127540D03*
X174155540Y-116927540D03*
X204705540Y-138127540D03*
X193155540Y-135927540D03*
D13*
X104030540Y-50302540D03*
X104030540Y-52052540D03*
X108830540Y-52052540D03*
X108830540Y-50302540D03*
X85030540Y-50302540D03*
X85030540Y-52052540D03*
X89830540Y-52052540D03*
X89830540Y-50302540D03*
X108830540Y-71052540D03*
X108830540Y-69302540D03*
X104030540Y-69302540D03*
X104030540Y-71052540D03*
X161030540Y-50302540D03*
X161030540Y-52052540D03*
X165830540Y-52052540D03*
X165830540Y-50302540D03*
X146830540Y-71052540D03*
X146830540Y-69302540D03*
X142030540Y-69302540D03*
X142030540Y-71052540D03*
X85030540Y-88302540D03*
X85030540Y-90052540D03*
X89830540Y-90052540D03*
X89830540Y-88302540D03*
X127830540Y-71052540D03*
X127830540Y-69302540D03*
X123030540Y-69302540D03*
X123030540Y-71052540D03*
X184830540Y-71052540D03*
X184830540Y-69302540D03*
X180030540Y-69302540D03*
X180030540Y-71052540D03*
X89830540Y-71052540D03*
X89830540Y-69302540D03*
X85030540Y-69302540D03*
X85030540Y-71052540D03*
X104030540Y-88302540D03*
X104030540Y-90052540D03*
X108830540Y-90052540D03*
X108830540Y-88302540D03*
X123030540Y-88302540D03*
X123030540Y-90052540D03*
X127830540Y-90052540D03*
X127830540Y-88302540D03*
X142030540Y-88302540D03*
X142030540Y-90052540D03*
X146830540Y-90052540D03*
X146830540Y-88302540D03*
X165830540Y-71052540D03*
X165830540Y-69302540D03*
X161030540Y-69302540D03*
X161030540Y-71052540D03*
X123030540Y-50302540D03*
X123030540Y-52052540D03*
X127830540Y-52052540D03*
X127830540Y-50302540D03*
X180030540Y-88302540D03*
X180030540Y-90052540D03*
X184830540Y-90052540D03*
X184830540Y-88302540D03*
X89830540Y-109052540D03*
X89830540Y-107302540D03*
X85030540Y-107302540D03*
X85030540Y-109052540D03*
X146830540Y-109052540D03*
X146830540Y-107302540D03*
X142030540Y-107302540D03*
X142030540Y-109052540D03*
X104030540Y-126302540D03*
X104030540Y-128052540D03*
X108830540Y-128052540D03*
X108830540Y-126302540D03*
X123030540Y-126302540D03*
X123030540Y-128052540D03*
X127830540Y-128052540D03*
X127830540Y-126302540D03*
X142030540Y-126302540D03*
X142030540Y-128052540D03*
X146830540Y-128052540D03*
X146830540Y-126302540D03*
X161030540Y-126302540D03*
X161030540Y-128052540D03*
X165830540Y-128052540D03*
X165830540Y-126302540D03*
X180030540Y-126302540D03*
X180030540Y-128052540D03*
X184830540Y-128052540D03*
X184830540Y-126302540D03*
X85030540Y-126302540D03*
X85030540Y-128052540D03*
X89830540Y-128052540D03*
X89830540Y-126302540D03*
X127830540Y-109052540D03*
X127830540Y-107302540D03*
X123030540Y-107302540D03*
X123030540Y-109052540D03*
X161030540Y-88302540D03*
X161030540Y-90052540D03*
X165830540Y-90052540D03*
X165830540Y-88302540D03*
X203830540Y-109052540D03*
X203830540Y-107302540D03*
X199030540Y-107302540D03*
X199030540Y-109052540D03*
X199030540Y-126302540D03*
X199030540Y-128052540D03*
X203830540Y-128052540D03*
X203830540Y-126302540D03*
X184830540Y-109052540D03*
X184830540Y-107302540D03*
X180030540Y-107302540D03*
X180030540Y-109052540D03*
X108830540Y-109052540D03*
X108830540Y-107302540D03*
X104030540Y-107302540D03*
X104030540Y-109052540D03*
X165830540Y-109052540D03*
X165830540Y-107302540D03*
X161030540Y-107302540D03*
X161030540Y-109052540D03*
X180030540Y-50302540D03*
X180030540Y-52052540D03*
X184830540Y-52052540D03*
X184830540Y-50302540D03*
D11*
X89080540Y-103677540D03*
X85780540Y-103677540D03*
X146080540Y-84677540D03*
X142780540Y-84677540D03*
X184080540Y-84677540D03*
X180780540Y-84677540D03*
X164811140Y-84677540D03*
X161511140Y-84677540D03*
X108080540Y-84677540D03*
X104780540Y-84677540D03*
X165080540Y-65677540D03*
X161780540Y-65677540D03*
X146080540Y-65677540D03*
X142780540Y-65677540D03*
X108080540Y-65677540D03*
X104780540Y-65677540D03*
X108080540Y-103677540D03*
X104780540Y-103677540D03*
D14*
X189975080Y-89742860D03*
X189975080Y-87202860D03*
X189975080Y-84662860D03*
D11*
X89080540Y-84677540D03*
X85780540Y-84677540D03*
X89080540Y-65677540D03*
X85780540Y-65677540D03*
X184080540Y-65677540D03*
X180780540Y-65677540D03*
X127080540Y-84677540D03*
X123780540Y-84677540D03*
D12*
X79155540Y-128991940D03*
X79155540Y-132291940D03*
X193155540Y-128991940D03*
X193155540Y-132291940D03*
D11*
X127080540Y-103677540D03*
X123780540Y-103677540D03*
D12*
X136155540Y-128991940D03*
X136155540Y-132291940D03*
X98155540Y-128991940D03*
X98155540Y-132291940D03*
X174155540Y-128991940D03*
X174155540Y-132291940D03*
X155155540Y-128991940D03*
X155155540Y-132291940D03*
X174155540Y-109991940D03*
X174155540Y-113291940D03*
X136155540Y-109991940D03*
X136155540Y-113291940D03*
X117155540Y-109991940D03*
X117155540Y-113291940D03*
X98155540Y-109991940D03*
X98155540Y-113291940D03*
D11*
X183978940Y-103677540D03*
X180678940Y-103677540D03*
D13*
X142030540Y-50302540D03*
X142030540Y-52052540D03*
X146830540Y-52052540D03*
X146830540Y-50302540D03*
D12*
X155155540Y-109991940D03*
X155155540Y-113291940D03*
X79155540Y-109991940D03*
X79155540Y-113291940D03*
D11*
X165080540Y-103677540D03*
X161780540Y-103677540D03*
X146080540Y-103677540D03*
X142780540Y-103677540D03*
D12*
X117155540Y-128991940D03*
X117155540Y-132291940D03*
D10*
X128705540Y-81127540D03*
X117155540Y-78927540D03*
X147705540Y-100127540D03*
X136155540Y-97927540D03*
X90705540Y-100127540D03*
X79155540Y-97927540D03*
X109705540Y-100127540D03*
X98155540Y-97927540D03*
X109705540Y-81127540D03*
X98155540Y-78927540D03*
X90705540Y-81127540D03*
X79155540Y-78927540D03*
X185705540Y-62127540D03*
X174155540Y-59927540D03*
X185705540Y-81127540D03*
X174155540Y-78927540D03*
X109705540Y-119127540D03*
X98155540Y-116927540D03*
X90705540Y-119127540D03*
X79155540Y-116927540D03*
X166705540Y-119127540D03*
X155155540Y-116927540D03*
X185705540Y-100127540D03*
X174155540Y-97927540D03*
X128705540Y-100127540D03*
X117155540Y-97927540D03*
X128705540Y-119127540D03*
X117155540Y-116927540D03*
X166705540Y-100127540D03*
X155155540Y-97927540D03*
X166705540Y-81127540D03*
X155155540Y-78927540D03*
X147705540Y-81127540D03*
X136155540Y-78927540D03*
X147705540Y-119127540D03*
X136155540Y-116927540D03*
D15*
X202547500Y-52220000D03*
X204372500Y-52220000D03*
X201303150Y-56024780D03*
X203128150Y-56024780D03*
D16*
X206111680Y-80302160D03*
X206111680Y-81302920D03*
X203574220Y-80302160D03*
X203574220Y-81302920D03*
X201034220Y-80302160D03*
X201034220Y-81302920D03*
X198473900Y-80243800D03*
X198473900Y-81244560D03*
M02*
