G04 #@! TF.GenerationSoftware,KiCad,Pcbnew,(6.0.0)*
G04 #@! TF.CreationDate,2021-12-26T21:23:53+01:00*
G04 #@! TF.ProjectId,helixhschoc,68656c69-7868-4736-9368-6f632e6b6963,rev?*
G04 #@! TF.SameCoordinates,Original*
G04 #@! TF.FileFunction,Soldermask,Bot*
G04 #@! TF.FilePolarity,Negative*
%FSLAX46Y46*%
G04 Gerber Fmt 4.6, Leading zero omitted, Abs format (unit mm)*
G04 Created by KiCad (PCBNEW (6.0.0)) date 2021-12-26 21:23:53*
%MOMM*%
%LPD*%
G01*
G04 APERTURE LIST*
G04 Aperture macros list*
%AMRoundRect*
0 Rectangle with rounded corners*
0 $1 Rounding radius*
0 $2 $3 $4 $5 $6 $7 $8 $9 X,Y pos of 4 corners*
0 Add a 4 corners polygon primitive as box body*
4,1,4,$2,$3,$4,$5,$6,$7,$8,$9,$2,$3,0*
0 Add four circle primitives for the rounded corners*
1,1,$1+$1,$2,$3*
1,1,$1+$1,$4,$5*
1,1,$1+$1,$6,$7*
1,1,$1+$1,$8,$9*
0 Add four rect primitives between the rounded corners*
20,1,$1+$1,$2,$3,$4,$5,0*
20,1,$1+$1,$4,$5,$6,$7,0*
20,1,$1+$1,$6,$7,$8,$9,0*
20,1,$1+$1,$8,$9,$2,$3,0*%
G04 Aperture macros list end*
%ADD10C,3.400000*%
%ADD11C,2.101800*%
%ADD12C,1.390600*%
%ADD13C,3.829000*%
%ADD14RoundRect,0.200000X-1.300000X-1.300000X1.300000X-1.300000X1.300000X1.300000X-1.300000X1.300000X0*%
%ADD15RoundRect,0.200000X0.450000X0.600000X-0.450000X0.600000X-0.450000X-0.600000X0.450000X-0.600000X0*%
%ADD16C,1.924000*%
%ADD17RoundRect,0.200000X-0.600000X0.450000X-0.600000X-0.450000X0.600000X-0.450000X0.600000X0.450000X0*%
%ADD18C,5.100400*%
%ADD19RoundRect,0.200000X-0.800000X-0.500000X0.800000X-0.500000X0.800000X0.500000X-0.800000X0.500000X0*%
%ADD20C,1.797000*%
%ADD21RoundRect,0.200000X0.800000X0.500000X-0.800000X0.500000X-0.800000X-0.500000X0.800000X-0.500000X0*%
%ADD22C,2.400000*%
%ADD23RoundRect,0.200000X-0.762000X-0.762000X0.762000X-0.762000X0.762000X0.762000X-0.762000X0.762000X0*%
%ADD24C,1.600000*%
%ADD25O,2.900000X2.100000*%
%ADD26C,2.600000*%
%ADD27RoundRect,0.450100X-0.262400X-0.449900X0.262400X-0.449900X0.262400X0.449900X-0.262400X0.449900X0*%
%ADD28RoundRect,0.200000X-0.571500X0.317500X-0.571500X-0.317500X0.571500X-0.317500X0.571500X0.317500X0*%
G04 APERTURE END LIST*
D10*
X87430540Y-62127540D03*
D11*
X92930540Y-56177540D03*
D12*
X82210540Y-51977540D03*
D10*
X92430540Y-59927540D03*
D12*
X92650540Y-51977540D03*
D11*
X81930540Y-56177540D03*
D10*
X82430540Y-59927540D03*
D13*
X87430540Y-56177540D03*
D14*
X90705540Y-62127540D03*
X79155540Y-59927540D03*
D15*
X127080540Y-65677540D03*
X123780540Y-65677540D03*
D13*
X144430540Y-56177540D03*
D10*
X139430540Y-59927540D03*
D11*
X149930540Y-56177540D03*
X138930540Y-56177540D03*
D12*
X139210540Y-51977540D03*
X149650540Y-51977540D03*
D10*
X149430540Y-59927540D03*
X144430540Y-62127540D03*
D14*
X147705540Y-62127540D03*
X136155540Y-59927540D03*
D11*
X119930540Y-56177540D03*
D12*
X130650540Y-51977540D03*
D10*
X130430540Y-59927540D03*
X120430540Y-59927540D03*
X125430540Y-62127540D03*
D11*
X130930540Y-56177540D03*
D13*
X125430540Y-56177540D03*
D12*
X120210540Y-51977540D03*
D14*
X128705540Y-62127540D03*
X117155540Y-59927540D03*
D13*
X106430540Y-56177540D03*
D10*
X111430540Y-59927540D03*
D12*
X111650540Y-51977540D03*
X101210540Y-51977540D03*
D11*
X100930540Y-56177540D03*
D10*
X101430540Y-59927540D03*
X106430540Y-62127540D03*
D11*
X111930540Y-56177540D03*
D14*
X109705540Y-62127540D03*
X98155540Y-59927540D03*
D16*
X210582940Y-50984340D03*
X194072940Y-52254340D03*
X210582940Y-53524340D03*
X194072940Y-54794340D03*
X194072940Y-57334340D03*
X210582940Y-56064340D03*
X210582940Y-58604340D03*
X194072940Y-59874340D03*
X194072940Y-62414340D03*
X210582940Y-61144340D03*
X210582940Y-63684340D03*
X194072940Y-64954340D03*
X210582940Y-66224340D03*
X194072940Y-67494340D03*
X210582940Y-68764340D03*
X194072940Y-70034340D03*
X210582940Y-71304340D03*
X194072940Y-72574340D03*
X194072940Y-75114340D03*
X210582940Y-73844340D03*
X210582940Y-76384340D03*
X194072940Y-77654340D03*
X194072940Y-80194340D03*
X210582940Y-78924340D03*
X195342940Y-78924340D03*
X209312940Y-80194340D03*
X209312940Y-77654340D03*
X195342940Y-76384340D03*
X195342940Y-73844340D03*
X209312940Y-75114340D03*
X209312940Y-72574340D03*
X195342940Y-71304340D03*
X195342940Y-68764340D03*
X209312940Y-70034340D03*
X209312940Y-67494340D03*
X195342940Y-66224340D03*
X209312940Y-64954340D03*
X195342940Y-63684340D03*
X209312940Y-62414340D03*
X195342940Y-61144340D03*
X195342940Y-58604340D03*
X209312940Y-59874340D03*
X209312940Y-57334340D03*
X195342940Y-56064340D03*
X195342940Y-53524340D03*
X209312940Y-54794340D03*
X209312940Y-52254340D03*
X195342940Y-50984340D03*
D17*
X193155540Y-109991940D03*
X193155540Y-113291940D03*
D11*
X157930540Y-56177540D03*
D10*
X158430540Y-59927540D03*
D11*
X168930540Y-56177540D03*
D10*
X168430540Y-59927540D03*
D12*
X168650540Y-51977540D03*
X158210540Y-51977540D03*
D13*
X163430540Y-56177540D03*
D10*
X163430540Y-62127540D03*
D14*
X166705540Y-62127540D03*
X155155540Y-59927540D03*
D12*
X187650540Y-127977540D03*
D11*
X187930540Y-132177540D03*
D12*
X177210540Y-127977540D03*
D13*
X182430540Y-132177540D03*
D10*
X182430540Y-138127540D03*
X177430540Y-135927540D03*
X187430540Y-135927540D03*
D11*
X176930540Y-132177540D03*
D14*
X185705540Y-138127540D03*
X174155540Y-135927540D03*
D10*
X158430540Y-135927540D03*
X168430540Y-135927540D03*
D13*
X163430540Y-132177540D03*
D11*
X157930540Y-132177540D03*
D12*
X168650540Y-127977540D03*
D10*
X163430540Y-138127540D03*
D12*
X158210540Y-127977540D03*
D11*
X168930540Y-132177540D03*
D14*
X166705540Y-138127540D03*
X155155540Y-135927540D03*
D10*
X144430540Y-138127540D03*
D11*
X149930540Y-132177540D03*
D10*
X139430540Y-135927540D03*
D11*
X138930540Y-132177540D03*
D13*
X144430540Y-132177540D03*
D12*
X139210540Y-127977540D03*
D10*
X149430540Y-135927540D03*
D12*
X149650540Y-127977540D03*
D14*
X147705540Y-138127540D03*
X136155540Y-135927540D03*
D10*
X87430540Y-138127540D03*
D11*
X81930540Y-132177540D03*
D13*
X87430540Y-132177540D03*
D10*
X82430540Y-135927540D03*
D12*
X92650540Y-127977540D03*
D11*
X92930540Y-132177540D03*
D12*
X82210540Y-127977540D03*
D10*
X92430540Y-135927540D03*
D14*
X90705540Y-138127540D03*
X79155540Y-135927540D03*
D12*
X130650540Y-127977540D03*
X120210540Y-127977540D03*
D11*
X119930540Y-132177540D03*
X130930540Y-132177540D03*
D10*
X130430540Y-135927540D03*
D13*
X125430540Y-132177540D03*
D10*
X120430540Y-135927540D03*
X125430540Y-138127540D03*
D14*
X128705540Y-138127540D03*
X117155540Y-135927540D03*
D11*
X195930540Y-113177540D03*
D12*
X206650540Y-108977540D03*
D10*
X206430540Y-116927540D03*
X201430540Y-119127540D03*
X196430540Y-116927540D03*
D13*
X201430540Y-113177540D03*
D12*
X196210540Y-108977540D03*
D11*
X206930540Y-113177540D03*
D14*
X204705540Y-119127540D03*
X193155540Y-116927540D03*
D10*
X111430540Y-135927540D03*
D13*
X106430540Y-132177540D03*
D10*
X106430540Y-138127540D03*
D12*
X111650540Y-127977540D03*
X101210540Y-127977540D03*
D11*
X111930540Y-132177540D03*
X100930540Y-132177540D03*
D10*
X101430540Y-135927540D03*
D14*
X109705540Y-138127540D03*
X98155540Y-135927540D03*
D10*
X187430540Y-116927540D03*
D11*
X176930540Y-113177540D03*
D13*
X182430540Y-113177540D03*
D10*
X177430540Y-116927540D03*
D12*
X177210540Y-108977540D03*
D11*
X187930540Y-113177540D03*
D10*
X182430540Y-119127540D03*
D12*
X187650540Y-108977540D03*
D14*
X185705540Y-119127540D03*
X174155540Y-116927540D03*
D13*
X201430540Y-132177540D03*
D11*
X206930540Y-132177540D03*
D10*
X196430540Y-135927540D03*
D11*
X195930540Y-132177540D03*
D10*
X201430540Y-138127540D03*
X206430540Y-135927540D03*
D12*
X206650540Y-127977540D03*
X196210540Y-127977540D03*
D14*
X204705540Y-138127540D03*
X193155540Y-135927540D03*
D18*
X191930540Y-122677540D03*
D19*
X104030540Y-50302540D03*
X104030540Y-52052540D03*
X108830540Y-52052540D03*
X108830540Y-50302540D03*
D20*
X206112540Y-83962460D03*
X203572540Y-83962460D03*
X201032540Y-83962460D03*
X198492540Y-83962460D03*
D18*
X96930540Y-65677540D03*
X172930540Y-103677540D03*
X172930540Y-65677540D03*
X134930540Y-103677540D03*
D19*
X85030540Y-50302540D03*
X85030540Y-52052540D03*
X89830540Y-52052540D03*
X89830540Y-50302540D03*
D18*
X153930540Y-122677540D03*
X96930540Y-103677540D03*
X96930540Y-122677540D03*
D21*
X108830540Y-71052540D03*
X108830540Y-69302540D03*
X104030540Y-69302540D03*
X104030540Y-71052540D03*
D20*
X197099780Y-86282960D03*
D19*
X161030540Y-50302540D03*
X161030540Y-52052540D03*
X165830540Y-52052540D03*
X165830540Y-50302540D03*
D21*
X146830540Y-71052540D03*
X146830540Y-69302540D03*
X142030540Y-69302540D03*
X142030540Y-71052540D03*
D20*
X197099780Y-88238760D03*
D19*
X85030540Y-88302540D03*
X85030540Y-90052540D03*
X89830540Y-90052540D03*
X89830540Y-88302540D03*
D21*
X127830540Y-71052540D03*
X127830540Y-69302540D03*
X123030540Y-69302540D03*
X123030540Y-71052540D03*
X184830540Y-71052540D03*
X184830540Y-69302540D03*
X180030540Y-69302540D03*
X180030540Y-71052540D03*
X89830540Y-71052540D03*
X89830540Y-69302540D03*
X85030540Y-69302540D03*
X85030540Y-71052540D03*
D19*
X104030540Y-88302540D03*
X104030540Y-90052540D03*
X108830540Y-90052540D03*
X108830540Y-88302540D03*
X123030540Y-88302540D03*
X123030540Y-90052540D03*
X127830540Y-90052540D03*
X127830540Y-88302540D03*
D22*
X202353580Y-95531700D03*
X208853580Y-95531700D03*
D19*
X142030540Y-88302540D03*
X142030540Y-90052540D03*
X146830540Y-90052540D03*
X146830540Y-88302540D03*
D21*
X165830540Y-71052540D03*
X165830540Y-69302540D03*
X161030540Y-69302540D03*
X161030540Y-71052540D03*
D19*
X123030540Y-50302540D03*
X123030540Y-52052540D03*
X127830540Y-52052540D03*
X127830540Y-50302540D03*
X180030540Y-88302540D03*
X180030540Y-90052540D03*
X184830540Y-90052540D03*
X184830540Y-88302540D03*
D21*
X89830540Y-109052540D03*
X89830540Y-107302540D03*
X85030540Y-107302540D03*
X85030540Y-109052540D03*
X146830540Y-109052540D03*
X146830540Y-107302540D03*
X142030540Y-107302540D03*
X142030540Y-109052540D03*
D19*
X104030540Y-126302540D03*
X104030540Y-128052540D03*
X108830540Y-128052540D03*
X108830540Y-126302540D03*
X123030540Y-126302540D03*
X123030540Y-128052540D03*
X127830540Y-128052540D03*
X127830540Y-126302540D03*
X142030540Y-126302540D03*
X142030540Y-128052540D03*
X146830540Y-128052540D03*
X146830540Y-126302540D03*
X161030540Y-126302540D03*
X161030540Y-128052540D03*
X165830540Y-128052540D03*
X165830540Y-126302540D03*
X180030540Y-126302540D03*
X180030540Y-128052540D03*
X184830540Y-128052540D03*
X184830540Y-126302540D03*
X85030540Y-126302540D03*
X85030540Y-128052540D03*
X89830540Y-128052540D03*
X89830540Y-126302540D03*
D21*
X127830540Y-109052540D03*
X127830540Y-107302540D03*
X123030540Y-107302540D03*
X123030540Y-109052540D03*
D19*
X161030540Y-88302540D03*
X161030540Y-90052540D03*
X165830540Y-90052540D03*
X165830540Y-88302540D03*
D21*
X203830540Y-109052540D03*
X203830540Y-107302540D03*
X199030540Y-107302540D03*
X199030540Y-109052540D03*
D19*
X199030540Y-126302540D03*
X199030540Y-128052540D03*
X203830540Y-128052540D03*
X203830540Y-126302540D03*
D21*
X184830540Y-109052540D03*
X184830540Y-107302540D03*
X180030540Y-107302540D03*
X180030540Y-109052540D03*
X108830540Y-109052540D03*
X108830540Y-107302540D03*
X104030540Y-107302540D03*
X104030540Y-109052540D03*
X165830540Y-109052540D03*
X165830540Y-107302540D03*
X161030540Y-107302540D03*
X161030540Y-109052540D03*
D19*
X180030540Y-50302540D03*
X180030540Y-52052540D03*
X184830540Y-52052540D03*
X184830540Y-50302540D03*
D15*
X89080540Y-103677540D03*
X85780540Y-103677540D03*
X146080540Y-84677540D03*
X142780540Y-84677540D03*
X184080540Y-84677540D03*
X180780540Y-84677540D03*
X164811140Y-84677540D03*
X161511140Y-84677540D03*
X108080540Y-84677540D03*
X104780540Y-84677540D03*
X165080540Y-65677540D03*
X161780540Y-65677540D03*
X146080540Y-65677540D03*
X142780540Y-65677540D03*
X108080540Y-65677540D03*
X104780540Y-65677540D03*
D18*
X134930540Y-65677540D03*
D15*
X108080540Y-103677540D03*
X104780540Y-103677540D03*
D23*
X189975080Y-89742860D03*
X189975080Y-87202860D03*
X189975080Y-84662860D03*
D15*
X89080540Y-84677540D03*
X85780540Y-84677540D03*
X89080540Y-65677540D03*
X85780540Y-65677540D03*
X184080540Y-65677540D03*
X180780540Y-65677540D03*
X127080540Y-84677540D03*
X123780540Y-84677540D03*
D17*
X79155540Y-128991940D03*
X79155540Y-132291940D03*
X193155540Y-128991940D03*
X193155540Y-132291940D03*
D15*
X127080540Y-103677540D03*
X123780540Y-103677540D03*
D17*
X136155540Y-128991940D03*
X136155540Y-132291940D03*
X98155540Y-128991940D03*
X98155540Y-132291940D03*
X174155540Y-128991940D03*
X174155540Y-132291940D03*
X155155540Y-128991940D03*
X155155540Y-132291940D03*
X174155540Y-109991940D03*
X174155540Y-113291940D03*
X136155540Y-109991940D03*
X136155540Y-113291940D03*
X117155540Y-109991940D03*
X117155540Y-113291940D03*
X98155540Y-109991940D03*
X98155540Y-113291940D03*
D15*
X183978940Y-103677540D03*
X180678940Y-103677540D03*
D19*
X142030540Y-50302540D03*
X142030540Y-52052540D03*
X146830540Y-52052540D03*
X146830540Y-50302540D03*
D17*
X155155540Y-109991940D03*
X155155540Y-113291940D03*
X79155540Y-109991940D03*
X79155540Y-113291940D03*
D15*
X165080540Y-103677540D03*
X161780540Y-103677540D03*
X146080540Y-103677540D03*
X142780540Y-103677540D03*
D17*
X117155540Y-128991940D03*
X117155540Y-132291940D03*
D12*
X120210540Y-70977540D03*
D13*
X125430540Y-75177540D03*
D10*
X125430540Y-81127540D03*
D11*
X130930540Y-75177540D03*
D12*
X130650540Y-70977540D03*
D10*
X130430540Y-78927540D03*
X120430540Y-78927540D03*
D11*
X119930540Y-75177540D03*
D14*
X128705540Y-81127540D03*
X117155540Y-78927540D03*
D10*
X144430540Y-100127540D03*
D11*
X138930540Y-94177540D03*
D12*
X149650540Y-89977540D03*
D10*
X149430540Y-97927540D03*
X139430540Y-97927540D03*
D13*
X144430540Y-94177540D03*
D12*
X139210540Y-89977540D03*
D11*
X149930540Y-94177540D03*
D14*
X147705540Y-100127540D03*
X136155540Y-97927540D03*
D11*
X92930540Y-94177540D03*
D13*
X87430540Y-94177540D03*
D11*
X81930540Y-94177540D03*
D12*
X82210540Y-89977540D03*
X92650540Y-89977540D03*
D10*
X82430540Y-97927540D03*
X92430540Y-97927540D03*
X87430540Y-100127540D03*
D14*
X90705540Y-100127540D03*
X79155540Y-97927540D03*
D13*
X106430540Y-94177540D03*
D11*
X111930540Y-94177540D03*
D10*
X111430540Y-97927540D03*
X101430540Y-97927540D03*
D12*
X101210540Y-89977540D03*
D10*
X106430540Y-100127540D03*
D12*
X111650540Y-89977540D03*
D11*
X100930540Y-94177540D03*
D14*
X109705540Y-100127540D03*
X98155540Y-97927540D03*
D11*
X111930540Y-75177540D03*
D12*
X101210540Y-70977540D03*
D10*
X106430540Y-81127540D03*
D12*
X111650540Y-70977540D03*
D11*
X100930540Y-75177540D03*
D13*
X106430540Y-75177540D03*
D10*
X111430540Y-78927540D03*
X101430540Y-78927540D03*
D14*
X109705540Y-81127540D03*
X98155540Y-78927540D03*
D13*
X87430540Y-75177540D03*
D12*
X92650540Y-70977540D03*
D11*
X92930540Y-75177540D03*
X81930540Y-75177540D03*
D10*
X87430540Y-81127540D03*
X92430540Y-78927540D03*
X82430540Y-78927540D03*
D12*
X82210540Y-70977540D03*
D14*
X90705540Y-81127540D03*
X79155540Y-78927540D03*
D13*
X182430540Y-56177540D03*
D12*
X177210540Y-51977540D03*
D11*
X176930540Y-56177540D03*
D10*
X177430540Y-59927540D03*
D11*
X187930540Y-56177540D03*
D10*
X187430540Y-59927540D03*
D12*
X187650540Y-51977540D03*
D10*
X182430540Y-62127540D03*
D14*
X185705540Y-62127540D03*
X174155540Y-59927540D03*
D10*
X182430540Y-81127540D03*
D11*
X187930540Y-75177540D03*
D10*
X177430540Y-78927540D03*
D13*
X182430540Y-75177540D03*
D12*
X177210540Y-70977540D03*
X187650540Y-70977540D03*
D10*
X187430540Y-78927540D03*
D11*
X176930540Y-75177540D03*
D14*
X185705540Y-81127540D03*
X174155540Y-78927540D03*
D12*
X111650540Y-108977540D03*
D10*
X101430540Y-116927540D03*
X111430540Y-116927540D03*
X106430540Y-119127540D03*
D11*
X111930540Y-113177540D03*
D13*
X106430540Y-113177540D03*
D11*
X100930540Y-113177540D03*
D12*
X101210540Y-108977540D03*
D14*
X109705540Y-119127540D03*
X98155540Y-116927540D03*
D12*
X92650540Y-108977540D03*
D11*
X81930540Y-113177540D03*
D10*
X82430540Y-116927540D03*
D13*
X87430540Y-113177540D03*
D10*
X87430540Y-119127540D03*
D12*
X82210540Y-108977540D03*
D10*
X92430540Y-116927540D03*
D11*
X92930540Y-113177540D03*
D14*
X90705540Y-119127540D03*
X79155540Y-116927540D03*
D11*
X168930540Y-113177540D03*
D10*
X168430540Y-116927540D03*
X163430540Y-119127540D03*
D11*
X157930540Y-113177540D03*
D10*
X158430540Y-116927540D03*
D12*
X158210540Y-108977540D03*
X168650540Y-108977540D03*
D13*
X163430540Y-113177540D03*
D14*
X166705540Y-119127540D03*
X155155540Y-116927540D03*
D12*
X187650540Y-89977540D03*
D10*
X182430540Y-100127540D03*
X187430540Y-97927540D03*
D11*
X176930540Y-94177540D03*
D10*
X177430540Y-97927540D03*
D13*
X182430540Y-94177540D03*
D12*
X177210540Y-89977540D03*
D11*
X187930540Y-94177540D03*
D14*
X185705540Y-100127540D03*
X174155540Y-97927540D03*
D11*
X119930540Y-94177540D03*
X130930540Y-94177540D03*
D12*
X120210540Y-89977540D03*
D10*
X130430540Y-97927540D03*
D13*
X125430540Y-94177540D03*
D10*
X125430540Y-100127540D03*
D12*
X130650540Y-89977540D03*
D10*
X120430540Y-97927540D03*
D14*
X128705540Y-100127540D03*
X117155540Y-97927540D03*
D13*
X125430540Y-113177540D03*
D10*
X130430540Y-116927540D03*
D11*
X119930540Y-113177540D03*
D12*
X130650540Y-108977540D03*
D10*
X125430540Y-119127540D03*
X120430540Y-116927540D03*
D11*
X130930540Y-113177540D03*
D12*
X120210540Y-108977540D03*
D14*
X128705540Y-119127540D03*
X117155540Y-116927540D03*
D12*
X158210540Y-89977540D03*
D11*
X157930540Y-94177540D03*
D10*
X158430540Y-97927540D03*
D11*
X168930540Y-94177540D03*
D10*
X163430540Y-100127540D03*
D12*
X168650540Y-89977540D03*
D10*
X168430540Y-97927540D03*
D13*
X163430540Y-94177540D03*
D14*
X166705540Y-100127540D03*
X155155540Y-97927540D03*
D12*
X158210540Y-70977540D03*
D10*
X163430540Y-81127540D03*
X168430540Y-78927540D03*
X158430540Y-78927540D03*
D13*
X163430540Y-75177540D03*
D11*
X168930540Y-75177540D03*
D12*
X168650540Y-70977540D03*
D11*
X157930540Y-75177540D03*
D14*
X166705540Y-81127540D03*
X155155540Y-78927540D03*
D11*
X149930540Y-75177540D03*
D12*
X149650540Y-70977540D03*
D10*
X139430540Y-78927540D03*
D13*
X144430540Y-75177540D03*
D10*
X144430540Y-81127540D03*
D12*
X139210540Y-70977540D03*
D10*
X149430540Y-78927540D03*
D11*
X138930540Y-75177540D03*
D14*
X147705540Y-81127540D03*
X136155540Y-78927540D03*
D13*
X144430540Y-113177540D03*
D11*
X138930540Y-113177540D03*
D10*
X139430540Y-116927540D03*
D11*
X149930540Y-113177540D03*
D10*
X149430540Y-116927540D03*
D12*
X139210540Y-108977540D03*
D10*
X144430540Y-119127540D03*
D12*
X149650540Y-108977540D03*
D14*
X147705540Y-119127540D03*
X136155540Y-116927540D03*
D24*
X210352940Y-88607540D03*
X203352940Y-88607540D03*
X203352940Y-90357540D03*
X210352940Y-90357540D03*
D25*
X200052940Y-88257540D03*
X200052940Y-90707540D03*
X208552940Y-92457540D03*
X208552940Y-86507540D03*
X205552940Y-92457540D03*
X205552940Y-86507540D03*
X201552940Y-92457540D03*
X201552940Y-86507540D03*
D26*
X209603340Y-101173280D03*
X209603340Y-83675220D03*
X195851780Y-83675220D03*
X195854320Y-101178360D03*
D27*
X202547500Y-52220000D03*
X204372500Y-52220000D03*
X201303150Y-56024780D03*
X203128150Y-56024780D03*
D28*
X206111680Y-80302160D03*
X206111680Y-81302920D03*
X203574220Y-80302160D03*
X203574220Y-81302920D03*
X201034220Y-80302160D03*
X201034220Y-81302920D03*
X198473900Y-80243800D03*
X198473900Y-81244560D03*
G36*
X89206927Y-137347577D02*
G01*
X89207540Y-137349018D01*
X89207540Y-138895876D01*
X89206540Y-138897608D01*
X89204540Y-138897608D01*
X89203621Y-138896439D01*
X89183945Y-138829427D01*
X89131602Y-138784072D01*
X89063049Y-138774215D01*
X88999982Y-138803017D01*
X88969131Y-138844452D01*
X88967295Y-138845244D01*
X88965691Y-138844050D01*
X88965703Y-138842437D01*
X89026133Y-138708287D01*
X89094447Y-138466064D01*
X89126214Y-138216356D01*
X89128538Y-138127596D01*
X89109883Y-137876559D01*
X89054340Y-137631093D01*
X88963914Y-137398564D01*
X88964218Y-137396587D01*
X88966082Y-137395862D01*
X88967514Y-137396847D01*
X88970051Y-137401285D01*
X88971751Y-137401292D01*
X88972328Y-137401799D01*
X89008250Y-137448427D01*
X89073470Y-137471729D01*
X89140935Y-137456073D01*
X89189257Y-137406393D01*
X89203599Y-137348537D01*
X89204986Y-137347096D01*
X89206927Y-137347577D01*
G37*
G36*
X184206927Y-137347577D02*
G01*
X184207540Y-137349018D01*
X184207540Y-138895876D01*
X184206540Y-138897608D01*
X184204540Y-138897608D01*
X184203621Y-138896439D01*
X184183945Y-138829427D01*
X184131602Y-138784072D01*
X184063049Y-138774215D01*
X183999982Y-138803017D01*
X183969131Y-138844452D01*
X183967295Y-138845244D01*
X183965691Y-138844050D01*
X183965703Y-138842437D01*
X184026133Y-138708287D01*
X184094447Y-138466064D01*
X184126214Y-138216356D01*
X184128538Y-138127596D01*
X184109883Y-137876559D01*
X184054340Y-137631093D01*
X183963914Y-137398564D01*
X183964218Y-137396587D01*
X183966082Y-137395862D01*
X183967514Y-137396847D01*
X183970051Y-137401285D01*
X183971751Y-137401292D01*
X183972328Y-137401799D01*
X184008250Y-137448427D01*
X184073470Y-137471729D01*
X184140935Y-137456073D01*
X184189257Y-137406393D01*
X184203599Y-137348537D01*
X184204986Y-137347096D01*
X184206927Y-137347577D01*
G37*
G36*
X203206927Y-137347577D02*
G01*
X203207540Y-137349018D01*
X203207540Y-138895876D01*
X203206540Y-138897608D01*
X203204540Y-138897608D01*
X203203621Y-138896439D01*
X203183945Y-138829427D01*
X203131602Y-138784072D01*
X203063049Y-138774215D01*
X202999982Y-138803017D01*
X202969131Y-138844452D01*
X202967295Y-138845244D01*
X202965691Y-138844050D01*
X202965703Y-138842437D01*
X203026133Y-138708287D01*
X203094447Y-138466064D01*
X203126214Y-138216356D01*
X203128538Y-138127596D01*
X203109883Y-137876559D01*
X203054340Y-137631093D01*
X202963914Y-137398564D01*
X202964218Y-137396587D01*
X202966082Y-137395862D01*
X202967514Y-137396847D01*
X202970051Y-137401285D01*
X202971751Y-137401292D01*
X202972328Y-137401799D01*
X203008250Y-137448427D01*
X203073470Y-137471729D01*
X203140935Y-137456073D01*
X203189257Y-137406393D01*
X203203599Y-137348537D01*
X203204986Y-137347096D01*
X203206927Y-137347577D01*
G37*
G36*
X127206927Y-137347577D02*
G01*
X127207540Y-137349018D01*
X127207540Y-138895876D01*
X127206540Y-138897608D01*
X127204540Y-138897608D01*
X127203621Y-138896439D01*
X127183945Y-138829427D01*
X127131602Y-138784072D01*
X127063049Y-138774215D01*
X126999982Y-138803017D01*
X126969131Y-138844452D01*
X126967295Y-138845244D01*
X126965691Y-138844050D01*
X126965703Y-138842437D01*
X127026133Y-138708287D01*
X127094447Y-138466064D01*
X127126214Y-138216356D01*
X127128538Y-138127596D01*
X127109883Y-137876559D01*
X127054340Y-137631093D01*
X126963914Y-137398564D01*
X126964218Y-137396587D01*
X126966082Y-137395862D01*
X126967514Y-137396847D01*
X126970051Y-137401285D01*
X126971751Y-137401292D01*
X126972328Y-137401799D01*
X127008250Y-137448427D01*
X127073470Y-137471729D01*
X127140935Y-137456073D01*
X127189257Y-137406393D01*
X127203599Y-137348537D01*
X127204986Y-137347096D01*
X127206927Y-137347577D01*
G37*
G36*
X108206927Y-137347577D02*
G01*
X108207540Y-137349018D01*
X108207540Y-138895876D01*
X108206540Y-138897608D01*
X108204540Y-138897608D01*
X108203621Y-138896439D01*
X108183945Y-138829427D01*
X108131602Y-138784072D01*
X108063049Y-138774215D01*
X107999982Y-138803017D01*
X107969131Y-138844452D01*
X107967295Y-138845244D01*
X107965691Y-138844050D01*
X107965703Y-138842437D01*
X108026133Y-138708287D01*
X108094447Y-138466064D01*
X108126214Y-138216356D01*
X108128538Y-138127596D01*
X108109883Y-137876559D01*
X108054340Y-137631093D01*
X107963914Y-137398564D01*
X107964218Y-137396587D01*
X107966082Y-137395862D01*
X107967514Y-137396847D01*
X107970051Y-137401285D01*
X107971751Y-137401292D01*
X107972328Y-137401799D01*
X108008250Y-137448427D01*
X108073470Y-137471729D01*
X108140935Y-137456073D01*
X108189257Y-137406393D01*
X108203599Y-137348537D01*
X108204986Y-137347096D01*
X108206927Y-137347577D01*
G37*
G36*
X146206927Y-137347577D02*
G01*
X146207540Y-137349018D01*
X146207540Y-138895876D01*
X146206540Y-138897608D01*
X146204540Y-138897608D01*
X146203621Y-138896439D01*
X146183945Y-138829427D01*
X146131602Y-138784072D01*
X146063049Y-138774215D01*
X145999982Y-138803017D01*
X145969131Y-138844452D01*
X145967295Y-138845244D01*
X145965691Y-138844050D01*
X145965703Y-138842437D01*
X146026133Y-138708287D01*
X146094447Y-138466064D01*
X146126214Y-138216356D01*
X146128538Y-138127596D01*
X146109883Y-137876559D01*
X146054340Y-137631093D01*
X145963914Y-137398564D01*
X145964218Y-137396587D01*
X145966082Y-137395862D01*
X145967514Y-137396847D01*
X145970051Y-137401285D01*
X145971751Y-137401292D01*
X145972328Y-137401799D01*
X146008250Y-137448427D01*
X146073470Y-137471729D01*
X146140935Y-137456073D01*
X146189257Y-137406393D01*
X146203599Y-137348537D01*
X146204986Y-137347096D01*
X146206927Y-137347577D01*
G37*
G36*
X165206927Y-137347577D02*
G01*
X165207540Y-137349018D01*
X165207540Y-138895876D01*
X165206540Y-138897608D01*
X165204540Y-138897608D01*
X165203621Y-138896439D01*
X165183945Y-138829427D01*
X165131602Y-138784072D01*
X165063049Y-138774215D01*
X164999982Y-138803017D01*
X164969131Y-138844452D01*
X164967295Y-138845244D01*
X164965691Y-138844050D01*
X164965703Y-138842437D01*
X165026133Y-138708287D01*
X165094447Y-138466064D01*
X165126214Y-138216356D01*
X165128538Y-138127596D01*
X165109883Y-137876559D01*
X165054340Y-137631093D01*
X164963914Y-137398564D01*
X164964218Y-137396587D01*
X164966082Y-137395862D01*
X164967514Y-137396847D01*
X164970051Y-137401285D01*
X164971751Y-137401292D01*
X164972328Y-137401799D01*
X165008250Y-137448427D01*
X165073470Y-137471729D01*
X165140935Y-137456073D01*
X165189257Y-137406393D01*
X165203599Y-137348537D01*
X165204986Y-137347096D01*
X165206927Y-137347577D01*
G37*
G36*
X175657459Y-135155480D02*
G01*
X175677135Y-135222492D01*
X175729478Y-135267847D01*
X175798031Y-135277704D01*
X175861084Y-135248908D01*
X175893308Y-135204426D01*
X175895134Y-135203610D01*
X175896754Y-135204783D01*
X175896772Y-135206372D01*
X175820291Y-135388758D01*
X175758342Y-135632683D01*
X175733128Y-135883090D01*
X175745203Y-136134473D01*
X175794302Y-136381313D01*
X175879343Y-136618172D01*
X175891556Y-136640902D01*
X175891495Y-136642901D01*
X175889733Y-136643848D01*
X175888370Y-136643254D01*
X175840170Y-136594399D01*
X175772599Y-136579222D01*
X175707543Y-136602988D01*
X175665599Y-136658239D01*
X175657507Y-136702242D01*
X175656210Y-136703764D01*
X175654243Y-136703403D01*
X175653540Y-136701880D01*
X175653540Y-135156043D01*
X175654540Y-135154311D01*
X175656540Y-135154311D01*
X175657459Y-135155480D01*
G37*
G36*
X118657459Y-135155480D02*
G01*
X118677135Y-135222492D01*
X118729478Y-135267847D01*
X118798031Y-135277704D01*
X118861084Y-135248908D01*
X118893308Y-135204426D01*
X118895134Y-135203610D01*
X118896754Y-135204783D01*
X118896772Y-135206372D01*
X118820291Y-135388758D01*
X118758342Y-135632683D01*
X118733128Y-135883090D01*
X118745203Y-136134473D01*
X118794302Y-136381313D01*
X118879343Y-136618172D01*
X118891556Y-136640902D01*
X118891495Y-136642901D01*
X118889733Y-136643848D01*
X118888370Y-136643254D01*
X118840170Y-136594399D01*
X118772599Y-136579222D01*
X118707543Y-136602988D01*
X118665599Y-136658239D01*
X118657507Y-136702242D01*
X118656210Y-136703764D01*
X118654243Y-136703403D01*
X118653540Y-136701880D01*
X118653540Y-135156043D01*
X118654540Y-135154311D01*
X118656540Y-135154311D01*
X118657459Y-135155480D01*
G37*
G36*
X80657459Y-135155480D02*
G01*
X80677135Y-135222492D01*
X80729478Y-135267847D01*
X80798031Y-135277704D01*
X80861084Y-135248908D01*
X80893308Y-135204426D01*
X80895134Y-135203610D01*
X80896754Y-135204783D01*
X80896772Y-135206372D01*
X80820291Y-135388758D01*
X80758342Y-135632683D01*
X80733128Y-135883090D01*
X80745203Y-136134473D01*
X80794302Y-136381313D01*
X80879343Y-136618172D01*
X80891556Y-136640902D01*
X80891495Y-136642901D01*
X80889733Y-136643848D01*
X80888370Y-136643254D01*
X80840170Y-136594399D01*
X80772599Y-136579222D01*
X80707543Y-136602988D01*
X80665599Y-136658239D01*
X80657507Y-136702242D01*
X80656210Y-136703764D01*
X80654243Y-136703403D01*
X80653540Y-136701880D01*
X80653540Y-135156043D01*
X80654540Y-135154311D01*
X80656540Y-135154311D01*
X80657459Y-135155480D01*
G37*
G36*
X99657459Y-135155480D02*
G01*
X99677135Y-135222492D01*
X99729478Y-135267847D01*
X99798031Y-135277704D01*
X99861084Y-135248908D01*
X99893308Y-135204426D01*
X99895134Y-135203610D01*
X99896754Y-135204783D01*
X99896772Y-135206372D01*
X99820291Y-135388758D01*
X99758342Y-135632683D01*
X99733128Y-135883090D01*
X99745203Y-136134473D01*
X99794302Y-136381313D01*
X99879343Y-136618172D01*
X99891556Y-136640902D01*
X99891495Y-136642901D01*
X99889733Y-136643848D01*
X99888370Y-136643254D01*
X99840170Y-136594399D01*
X99772599Y-136579222D01*
X99707543Y-136602988D01*
X99665599Y-136658239D01*
X99657507Y-136702242D01*
X99656210Y-136703764D01*
X99654243Y-136703403D01*
X99653540Y-136701880D01*
X99653540Y-135156043D01*
X99654540Y-135154311D01*
X99656540Y-135154311D01*
X99657459Y-135155480D01*
G37*
G36*
X156657459Y-135155480D02*
G01*
X156677135Y-135222492D01*
X156729478Y-135267847D01*
X156798031Y-135277704D01*
X156861084Y-135248908D01*
X156893308Y-135204426D01*
X156895134Y-135203610D01*
X156896754Y-135204783D01*
X156896772Y-135206372D01*
X156820291Y-135388758D01*
X156758342Y-135632683D01*
X156733128Y-135883090D01*
X156745203Y-136134473D01*
X156794302Y-136381313D01*
X156879343Y-136618172D01*
X156891556Y-136640902D01*
X156891495Y-136642901D01*
X156889733Y-136643848D01*
X156888370Y-136643254D01*
X156840170Y-136594399D01*
X156772599Y-136579222D01*
X156707543Y-136602988D01*
X156665599Y-136658239D01*
X156657507Y-136702242D01*
X156656210Y-136703764D01*
X156654243Y-136703403D01*
X156653540Y-136701880D01*
X156653540Y-135156043D01*
X156654540Y-135154311D01*
X156656540Y-135154311D01*
X156657459Y-135155480D01*
G37*
G36*
X194657459Y-135155480D02*
G01*
X194677135Y-135222492D01*
X194729478Y-135267847D01*
X194798031Y-135277704D01*
X194861084Y-135248908D01*
X194893308Y-135204426D01*
X194895134Y-135203610D01*
X194896754Y-135204783D01*
X194896772Y-135206372D01*
X194820291Y-135388758D01*
X194758342Y-135632683D01*
X194733128Y-135883090D01*
X194745203Y-136134473D01*
X194794302Y-136381313D01*
X194879343Y-136618172D01*
X194891556Y-136640902D01*
X194891495Y-136642901D01*
X194889733Y-136643848D01*
X194888370Y-136643254D01*
X194840170Y-136594399D01*
X194772599Y-136579222D01*
X194707543Y-136602988D01*
X194665599Y-136658239D01*
X194657507Y-136702242D01*
X194656210Y-136703764D01*
X194654243Y-136703403D01*
X194653540Y-136701880D01*
X194653540Y-135156043D01*
X194654540Y-135154311D01*
X194656540Y-135154311D01*
X194657459Y-135155480D01*
G37*
G36*
X137657459Y-135155480D02*
G01*
X137677135Y-135222492D01*
X137729478Y-135267847D01*
X137798031Y-135277704D01*
X137861084Y-135248908D01*
X137893308Y-135204426D01*
X137895134Y-135203610D01*
X137896754Y-135204783D01*
X137896772Y-135206372D01*
X137820291Y-135388758D01*
X137758342Y-135632683D01*
X137733128Y-135883090D01*
X137745203Y-136134473D01*
X137794302Y-136381313D01*
X137879343Y-136618172D01*
X137891556Y-136640902D01*
X137891495Y-136642901D01*
X137889733Y-136643848D01*
X137888370Y-136643254D01*
X137840170Y-136594399D01*
X137772599Y-136579222D01*
X137707543Y-136602988D01*
X137665599Y-136658239D01*
X137657507Y-136702242D01*
X137656210Y-136703764D01*
X137654243Y-136703403D01*
X137653540Y-136701880D01*
X137653540Y-135156043D01*
X137654540Y-135154311D01*
X137656540Y-135154311D01*
X137657459Y-135155480D01*
G37*
G36*
X89206927Y-118347577D02*
G01*
X89207540Y-118349018D01*
X89207540Y-119895876D01*
X89206540Y-119897608D01*
X89204540Y-119897608D01*
X89203621Y-119896439D01*
X89183945Y-119829427D01*
X89131602Y-119784072D01*
X89063049Y-119774215D01*
X88999982Y-119803017D01*
X88969131Y-119844452D01*
X88967295Y-119845244D01*
X88965691Y-119844050D01*
X88965703Y-119842437D01*
X89026133Y-119708287D01*
X89094447Y-119466064D01*
X89126214Y-119216356D01*
X89128538Y-119127596D01*
X89109883Y-118876559D01*
X89054340Y-118631093D01*
X88963914Y-118398564D01*
X88964218Y-118396587D01*
X88966082Y-118395862D01*
X88967514Y-118396847D01*
X88970051Y-118401285D01*
X88971751Y-118401292D01*
X88972328Y-118401799D01*
X89008250Y-118448427D01*
X89073470Y-118471729D01*
X89140935Y-118456073D01*
X89189257Y-118406393D01*
X89203599Y-118348537D01*
X89204986Y-118347096D01*
X89206927Y-118347577D01*
G37*
G36*
X184206927Y-118347577D02*
G01*
X184207540Y-118349018D01*
X184207540Y-119895876D01*
X184206540Y-119897608D01*
X184204540Y-119897608D01*
X184203621Y-119896439D01*
X184183945Y-119829427D01*
X184131602Y-119784072D01*
X184063049Y-119774215D01*
X183999982Y-119803017D01*
X183969131Y-119844452D01*
X183967295Y-119845244D01*
X183965691Y-119844050D01*
X183965703Y-119842437D01*
X184026133Y-119708287D01*
X184094447Y-119466064D01*
X184126214Y-119216356D01*
X184128538Y-119127596D01*
X184109883Y-118876559D01*
X184054340Y-118631093D01*
X183963914Y-118398564D01*
X183964218Y-118396587D01*
X183966082Y-118395862D01*
X183967514Y-118396847D01*
X183970051Y-118401285D01*
X183971751Y-118401292D01*
X183972328Y-118401799D01*
X184008250Y-118448427D01*
X184073470Y-118471729D01*
X184140935Y-118456073D01*
X184189257Y-118406393D01*
X184203599Y-118348537D01*
X184204986Y-118347096D01*
X184206927Y-118347577D01*
G37*
G36*
X108206927Y-118347577D02*
G01*
X108207540Y-118349018D01*
X108207540Y-119895876D01*
X108206540Y-119897608D01*
X108204540Y-119897608D01*
X108203621Y-119896439D01*
X108183945Y-119829427D01*
X108131602Y-119784072D01*
X108063049Y-119774215D01*
X107999982Y-119803017D01*
X107969131Y-119844452D01*
X107967295Y-119845244D01*
X107965691Y-119844050D01*
X107965703Y-119842437D01*
X108026133Y-119708287D01*
X108094447Y-119466064D01*
X108126214Y-119216356D01*
X108128538Y-119127596D01*
X108109883Y-118876559D01*
X108054340Y-118631093D01*
X107963914Y-118398564D01*
X107964218Y-118396587D01*
X107966082Y-118395862D01*
X107967514Y-118396847D01*
X107970051Y-118401285D01*
X107971751Y-118401292D01*
X107972328Y-118401799D01*
X108008250Y-118448427D01*
X108073470Y-118471729D01*
X108140935Y-118456073D01*
X108189257Y-118406393D01*
X108203599Y-118348537D01*
X108204986Y-118347096D01*
X108206927Y-118347577D01*
G37*
G36*
X127206927Y-118347577D02*
G01*
X127207540Y-118349018D01*
X127207540Y-119895876D01*
X127206540Y-119897608D01*
X127204540Y-119897608D01*
X127203621Y-119896439D01*
X127183945Y-119829427D01*
X127131602Y-119784072D01*
X127063049Y-119774215D01*
X126999982Y-119803017D01*
X126969131Y-119844452D01*
X126967295Y-119845244D01*
X126965691Y-119844050D01*
X126965703Y-119842437D01*
X127026133Y-119708287D01*
X127094447Y-119466064D01*
X127126214Y-119216356D01*
X127128538Y-119127596D01*
X127109883Y-118876559D01*
X127054340Y-118631093D01*
X126963914Y-118398564D01*
X126964218Y-118396587D01*
X126966082Y-118395862D01*
X126967514Y-118396847D01*
X126970051Y-118401285D01*
X126971751Y-118401292D01*
X126972328Y-118401799D01*
X127008250Y-118448427D01*
X127073470Y-118471729D01*
X127140935Y-118456073D01*
X127189257Y-118406393D01*
X127203599Y-118348537D01*
X127204986Y-118347096D01*
X127206927Y-118347577D01*
G37*
G36*
X165206927Y-118347577D02*
G01*
X165207540Y-118349018D01*
X165207540Y-119895876D01*
X165206540Y-119897608D01*
X165204540Y-119897608D01*
X165203621Y-119896439D01*
X165183945Y-119829427D01*
X165131602Y-119784072D01*
X165063049Y-119774215D01*
X164999982Y-119803017D01*
X164969131Y-119844452D01*
X164967295Y-119845244D01*
X164965691Y-119844050D01*
X164965703Y-119842437D01*
X165026133Y-119708287D01*
X165094447Y-119466064D01*
X165126214Y-119216356D01*
X165128538Y-119127596D01*
X165109883Y-118876559D01*
X165054340Y-118631093D01*
X164963914Y-118398564D01*
X164964218Y-118396587D01*
X164966082Y-118395862D01*
X164967514Y-118396847D01*
X164970051Y-118401285D01*
X164971751Y-118401292D01*
X164972328Y-118401799D01*
X165008250Y-118448427D01*
X165073470Y-118471729D01*
X165140935Y-118456073D01*
X165189257Y-118406393D01*
X165203599Y-118348537D01*
X165204986Y-118347096D01*
X165206927Y-118347577D01*
G37*
G36*
X146206927Y-118347577D02*
G01*
X146207540Y-118349018D01*
X146207540Y-119895876D01*
X146206540Y-119897608D01*
X146204540Y-119897608D01*
X146203621Y-119896439D01*
X146183945Y-119829427D01*
X146131602Y-119784072D01*
X146063049Y-119774215D01*
X145999982Y-119803017D01*
X145969131Y-119844452D01*
X145967295Y-119845244D01*
X145965691Y-119844050D01*
X145965703Y-119842437D01*
X146026133Y-119708287D01*
X146094447Y-119466064D01*
X146126214Y-119216356D01*
X146128538Y-119127596D01*
X146109883Y-118876559D01*
X146054340Y-118631093D01*
X145963914Y-118398564D01*
X145964218Y-118396587D01*
X145966082Y-118395862D01*
X145967514Y-118396847D01*
X145970051Y-118401285D01*
X145971751Y-118401292D01*
X145972328Y-118401799D01*
X146008250Y-118448427D01*
X146073470Y-118471729D01*
X146140935Y-118456073D01*
X146189257Y-118406393D01*
X146203599Y-118348537D01*
X146204986Y-118347096D01*
X146206927Y-118347577D01*
G37*
G36*
X203206927Y-118347577D02*
G01*
X203207540Y-118349018D01*
X203207540Y-119895876D01*
X203206540Y-119897608D01*
X203204540Y-119897608D01*
X203203621Y-119896439D01*
X203183945Y-119829427D01*
X203131602Y-119784072D01*
X203063049Y-119774215D01*
X202999982Y-119803017D01*
X202969131Y-119844452D01*
X202967295Y-119845244D01*
X202965691Y-119844050D01*
X202965703Y-119842437D01*
X203026133Y-119708287D01*
X203094447Y-119466064D01*
X203126214Y-119216356D01*
X203128538Y-119127596D01*
X203109883Y-118876559D01*
X203054340Y-118631093D01*
X202963914Y-118398564D01*
X202964218Y-118396587D01*
X202966082Y-118395862D01*
X202967514Y-118396847D01*
X202970051Y-118401285D01*
X202971751Y-118401292D01*
X202972328Y-118401799D01*
X203008250Y-118448427D01*
X203073470Y-118471729D01*
X203140935Y-118456073D01*
X203189257Y-118406393D01*
X203203599Y-118348537D01*
X203204986Y-118347096D01*
X203206927Y-118347577D01*
G37*
G36*
X137657459Y-116155480D02*
G01*
X137677135Y-116222492D01*
X137729478Y-116267847D01*
X137798031Y-116277704D01*
X137861084Y-116248908D01*
X137893308Y-116204426D01*
X137895134Y-116203610D01*
X137896754Y-116204783D01*
X137896772Y-116206372D01*
X137820291Y-116388758D01*
X137758342Y-116632683D01*
X137733128Y-116883090D01*
X137745203Y-117134473D01*
X137794302Y-117381313D01*
X137879343Y-117618172D01*
X137891556Y-117640902D01*
X137891495Y-117642901D01*
X137889733Y-117643848D01*
X137888370Y-117643254D01*
X137840170Y-117594399D01*
X137772599Y-117579222D01*
X137707543Y-117602988D01*
X137665599Y-117658239D01*
X137657507Y-117702242D01*
X137656210Y-117703764D01*
X137654243Y-117703403D01*
X137653540Y-117701880D01*
X137653540Y-116156043D01*
X137654540Y-116154311D01*
X137656540Y-116154311D01*
X137657459Y-116155480D01*
G37*
G36*
X118657459Y-116155480D02*
G01*
X118677135Y-116222492D01*
X118729478Y-116267847D01*
X118798031Y-116277704D01*
X118861084Y-116248908D01*
X118893308Y-116204426D01*
X118895134Y-116203610D01*
X118896754Y-116204783D01*
X118896772Y-116206372D01*
X118820291Y-116388758D01*
X118758342Y-116632683D01*
X118733128Y-116883090D01*
X118745203Y-117134473D01*
X118794302Y-117381313D01*
X118879343Y-117618172D01*
X118891556Y-117640902D01*
X118891495Y-117642901D01*
X118889733Y-117643848D01*
X118888370Y-117643254D01*
X118840170Y-117594399D01*
X118772599Y-117579222D01*
X118707543Y-117602988D01*
X118665599Y-117658239D01*
X118657507Y-117702242D01*
X118656210Y-117703764D01*
X118654243Y-117703403D01*
X118653540Y-117701880D01*
X118653540Y-116156043D01*
X118654540Y-116154311D01*
X118656540Y-116154311D01*
X118657459Y-116155480D01*
G37*
G36*
X99657459Y-116155480D02*
G01*
X99677135Y-116222492D01*
X99729478Y-116267847D01*
X99798031Y-116277704D01*
X99861084Y-116248908D01*
X99893308Y-116204426D01*
X99895134Y-116203610D01*
X99896754Y-116204783D01*
X99896772Y-116206372D01*
X99820291Y-116388758D01*
X99758342Y-116632683D01*
X99733128Y-116883090D01*
X99745203Y-117134473D01*
X99794302Y-117381313D01*
X99879343Y-117618172D01*
X99891556Y-117640902D01*
X99891495Y-117642901D01*
X99889733Y-117643848D01*
X99888370Y-117643254D01*
X99840170Y-117594399D01*
X99772599Y-117579222D01*
X99707543Y-117602988D01*
X99665599Y-117658239D01*
X99657507Y-117702242D01*
X99656210Y-117703764D01*
X99654243Y-117703403D01*
X99653540Y-117701880D01*
X99653540Y-116156043D01*
X99654540Y-116154311D01*
X99656540Y-116154311D01*
X99657459Y-116155480D01*
G37*
G36*
X80657459Y-116155480D02*
G01*
X80677135Y-116222492D01*
X80729478Y-116267847D01*
X80798031Y-116277704D01*
X80861084Y-116248908D01*
X80893308Y-116204426D01*
X80895134Y-116203610D01*
X80896754Y-116204783D01*
X80896772Y-116206372D01*
X80820291Y-116388758D01*
X80758342Y-116632683D01*
X80733128Y-116883090D01*
X80745203Y-117134473D01*
X80794302Y-117381313D01*
X80879343Y-117618172D01*
X80891556Y-117640902D01*
X80891495Y-117642901D01*
X80889733Y-117643848D01*
X80888370Y-117643254D01*
X80840170Y-117594399D01*
X80772599Y-117579222D01*
X80707543Y-117602988D01*
X80665599Y-117658239D01*
X80657507Y-117702242D01*
X80656210Y-117703764D01*
X80654243Y-117703403D01*
X80653540Y-117701880D01*
X80653540Y-116156043D01*
X80654540Y-116154311D01*
X80656540Y-116154311D01*
X80657459Y-116155480D01*
G37*
G36*
X156657459Y-116155480D02*
G01*
X156677135Y-116222492D01*
X156729478Y-116267847D01*
X156798031Y-116277704D01*
X156861084Y-116248908D01*
X156893308Y-116204426D01*
X156895134Y-116203610D01*
X156896754Y-116204783D01*
X156896772Y-116206372D01*
X156820291Y-116388758D01*
X156758342Y-116632683D01*
X156733128Y-116883090D01*
X156745203Y-117134473D01*
X156794302Y-117381313D01*
X156879343Y-117618172D01*
X156891556Y-117640902D01*
X156891495Y-117642901D01*
X156889733Y-117643848D01*
X156888370Y-117643254D01*
X156840170Y-117594399D01*
X156772599Y-117579222D01*
X156707543Y-117602988D01*
X156665599Y-117658239D01*
X156657507Y-117702242D01*
X156656210Y-117703764D01*
X156654243Y-117703403D01*
X156653540Y-117701880D01*
X156653540Y-116156043D01*
X156654540Y-116154311D01*
X156656540Y-116154311D01*
X156657459Y-116155480D01*
G37*
G36*
X194657459Y-116155480D02*
G01*
X194677135Y-116222492D01*
X194729478Y-116267847D01*
X194798031Y-116277704D01*
X194861084Y-116248908D01*
X194893308Y-116204426D01*
X194895134Y-116203610D01*
X194896754Y-116204783D01*
X194896772Y-116206372D01*
X194820291Y-116388758D01*
X194758342Y-116632683D01*
X194733128Y-116883090D01*
X194745203Y-117134473D01*
X194794302Y-117381313D01*
X194879343Y-117618172D01*
X194891556Y-117640902D01*
X194891495Y-117642901D01*
X194889733Y-117643848D01*
X194888370Y-117643254D01*
X194840170Y-117594399D01*
X194772599Y-117579222D01*
X194707543Y-117602988D01*
X194665599Y-117658239D01*
X194657507Y-117702242D01*
X194656210Y-117703764D01*
X194654243Y-117703403D01*
X194653540Y-117701880D01*
X194653540Y-116156043D01*
X194654540Y-116154311D01*
X194656540Y-116154311D01*
X194657459Y-116155480D01*
G37*
G36*
X175657459Y-116155480D02*
G01*
X175677135Y-116222492D01*
X175729478Y-116267847D01*
X175798031Y-116277704D01*
X175861084Y-116248908D01*
X175893308Y-116204426D01*
X175895134Y-116203610D01*
X175896754Y-116204783D01*
X175896772Y-116206372D01*
X175820291Y-116388758D01*
X175758342Y-116632683D01*
X175733128Y-116883090D01*
X175745203Y-117134473D01*
X175794302Y-117381313D01*
X175879343Y-117618172D01*
X175891556Y-117640902D01*
X175891495Y-117642901D01*
X175889733Y-117643848D01*
X175888370Y-117643254D01*
X175840170Y-117594399D01*
X175772599Y-117579222D01*
X175707543Y-117602988D01*
X175665599Y-117658239D01*
X175657507Y-117702242D01*
X175656210Y-117703764D01*
X175654243Y-117703403D01*
X175653540Y-117701880D01*
X175653540Y-116156043D01*
X175654540Y-116154311D01*
X175656540Y-116154311D01*
X175657459Y-116155480D01*
G37*
G36*
X89206927Y-99347577D02*
G01*
X89207540Y-99349018D01*
X89207540Y-100895876D01*
X89206540Y-100897608D01*
X89204540Y-100897608D01*
X89203621Y-100896439D01*
X89183945Y-100829427D01*
X89131602Y-100784072D01*
X89063049Y-100774215D01*
X88999982Y-100803017D01*
X88969131Y-100844452D01*
X88967295Y-100845244D01*
X88965691Y-100844050D01*
X88965703Y-100842437D01*
X89026133Y-100708287D01*
X89094447Y-100466064D01*
X89126214Y-100216356D01*
X89128538Y-100127596D01*
X89109883Y-99876559D01*
X89054340Y-99631093D01*
X88963914Y-99398564D01*
X88964218Y-99396587D01*
X88966082Y-99395862D01*
X88967514Y-99396847D01*
X88970051Y-99401285D01*
X88971751Y-99401292D01*
X88972328Y-99401799D01*
X89008250Y-99448427D01*
X89073470Y-99471729D01*
X89140935Y-99456073D01*
X89189257Y-99406393D01*
X89203599Y-99348537D01*
X89204986Y-99347096D01*
X89206927Y-99347577D01*
G37*
G36*
X127206927Y-99347577D02*
G01*
X127207540Y-99349018D01*
X127207540Y-100895876D01*
X127206540Y-100897608D01*
X127204540Y-100897608D01*
X127203621Y-100896439D01*
X127183945Y-100829427D01*
X127131602Y-100784072D01*
X127063049Y-100774215D01*
X126999982Y-100803017D01*
X126969131Y-100844452D01*
X126967295Y-100845244D01*
X126965691Y-100844050D01*
X126965703Y-100842437D01*
X127026133Y-100708287D01*
X127094447Y-100466064D01*
X127126214Y-100216356D01*
X127128538Y-100127596D01*
X127109883Y-99876559D01*
X127054340Y-99631093D01*
X126963914Y-99398564D01*
X126964218Y-99396587D01*
X126966082Y-99395862D01*
X126967514Y-99396847D01*
X126970051Y-99401285D01*
X126971751Y-99401292D01*
X126972328Y-99401799D01*
X127008250Y-99448427D01*
X127073470Y-99471729D01*
X127140935Y-99456073D01*
X127189257Y-99406393D01*
X127203599Y-99348537D01*
X127204986Y-99347096D01*
X127206927Y-99347577D01*
G37*
G36*
X165206927Y-99347577D02*
G01*
X165207540Y-99349018D01*
X165207540Y-100895876D01*
X165206540Y-100897608D01*
X165204540Y-100897608D01*
X165203621Y-100896439D01*
X165183945Y-100829427D01*
X165131602Y-100784072D01*
X165063049Y-100774215D01*
X164999982Y-100803017D01*
X164969131Y-100844452D01*
X164967295Y-100845244D01*
X164965691Y-100844050D01*
X164965703Y-100842437D01*
X165026133Y-100708287D01*
X165094447Y-100466064D01*
X165126214Y-100216356D01*
X165128538Y-100127596D01*
X165109883Y-99876559D01*
X165054340Y-99631093D01*
X164963914Y-99398564D01*
X164964218Y-99396587D01*
X164966082Y-99395862D01*
X164967514Y-99396847D01*
X164970051Y-99401285D01*
X164971751Y-99401292D01*
X164972328Y-99401799D01*
X165008250Y-99448427D01*
X165073470Y-99471729D01*
X165140935Y-99456073D01*
X165189257Y-99406393D01*
X165203599Y-99348537D01*
X165204986Y-99347096D01*
X165206927Y-99347577D01*
G37*
G36*
X184206927Y-99347577D02*
G01*
X184207540Y-99349018D01*
X184207540Y-100895876D01*
X184206540Y-100897608D01*
X184204540Y-100897608D01*
X184203621Y-100896439D01*
X184183945Y-100829427D01*
X184131602Y-100784072D01*
X184063049Y-100774215D01*
X183999982Y-100803017D01*
X183969131Y-100844452D01*
X183967295Y-100845244D01*
X183965691Y-100844050D01*
X183965703Y-100842437D01*
X184026133Y-100708287D01*
X184094447Y-100466064D01*
X184126214Y-100216356D01*
X184128538Y-100127596D01*
X184109883Y-99876559D01*
X184054340Y-99631093D01*
X183963914Y-99398564D01*
X183964218Y-99396587D01*
X183966082Y-99395862D01*
X183967514Y-99396847D01*
X183970051Y-99401285D01*
X183971751Y-99401292D01*
X183972328Y-99401799D01*
X184008250Y-99448427D01*
X184073470Y-99471729D01*
X184140935Y-99456073D01*
X184189257Y-99406393D01*
X184203599Y-99348537D01*
X184204986Y-99347096D01*
X184206927Y-99347577D01*
G37*
G36*
X146206927Y-99347577D02*
G01*
X146207540Y-99349018D01*
X146207540Y-100895876D01*
X146206540Y-100897608D01*
X146204540Y-100897608D01*
X146203621Y-100896439D01*
X146183945Y-100829427D01*
X146131602Y-100784072D01*
X146063049Y-100774215D01*
X145999982Y-100803017D01*
X145969131Y-100844452D01*
X145967295Y-100845244D01*
X145965691Y-100844050D01*
X145965703Y-100842437D01*
X146026133Y-100708287D01*
X146094447Y-100466064D01*
X146126214Y-100216356D01*
X146128538Y-100127596D01*
X146109883Y-99876559D01*
X146054340Y-99631093D01*
X145963914Y-99398564D01*
X145964218Y-99396587D01*
X145966082Y-99395862D01*
X145967514Y-99396847D01*
X145970051Y-99401285D01*
X145971751Y-99401292D01*
X145972328Y-99401799D01*
X146008250Y-99448427D01*
X146073470Y-99471729D01*
X146140935Y-99456073D01*
X146189257Y-99406393D01*
X146203599Y-99348537D01*
X146204986Y-99347096D01*
X146206927Y-99347577D01*
G37*
G36*
X108206927Y-99347577D02*
G01*
X108207540Y-99349018D01*
X108207540Y-100895876D01*
X108206540Y-100897608D01*
X108204540Y-100897608D01*
X108203621Y-100896439D01*
X108183945Y-100829427D01*
X108131602Y-100784072D01*
X108063049Y-100774215D01*
X107999982Y-100803017D01*
X107969131Y-100844452D01*
X107967295Y-100845244D01*
X107965691Y-100844050D01*
X107965703Y-100842437D01*
X108026133Y-100708287D01*
X108094447Y-100466064D01*
X108126214Y-100216356D01*
X108128538Y-100127596D01*
X108109883Y-99876559D01*
X108054340Y-99631093D01*
X107963914Y-99398564D01*
X107964218Y-99396587D01*
X107966082Y-99395862D01*
X107967514Y-99396847D01*
X107970051Y-99401285D01*
X107971751Y-99401292D01*
X107972328Y-99401799D01*
X108008250Y-99448427D01*
X108073470Y-99471729D01*
X108140935Y-99456073D01*
X108189257Y-99406393D01*
X108203599Y-99348537D01*
X108204986Y-99347096D01*
X108206927Y-99347577D01*
G37*
G36*
X137657459Y-97155480D02*
G01*
X137677135Y-97222492D01*
X137729478Y-97267847D01*
X137798031Y-97277704D01*
X137861084Y-97248908D01*
X137893308Y-97204426D01*
X137895134Y-97203610D01*
X137896754Y-97204783D01*
X137896772Y-97206372D01*
X137820291Y-97388758D01*
X137758342Y-97632683D01*
X137733128Y-97883090D01*
X137745203Y-98134473D01*
X137794302Y-98381313D01*
X137879343Y-98618172D01*
X137891556Y-98640902D01*
X137891495Y-98642901D01*
X137889733Y-98643848D01*
X137888370Y-98643254D01*
X137840170Y-98594399D01*
X137772599Y-98579222D01*
X137707543Y-98602988D01*
X137665599Y-98658239D01*
X137657507Y-98702242D01*
X137656210Y-98703764D01*
X137654243Y-98703403D01*
X137653540Y-98701880D01*
X137653540Y-97156043D01*
X137654540Y-97154311D01*
X137656540Y-97154311D01*
X137657459Y-97155480D01*
G37*
G36*
X118657459Y-97155480D02*
G01*
X118677135Y-97222492D01*
X118729478Y-97267847D01*
X118798031Y-97277704D01*
X118861084Y-97248908D01*
X118893308Y-97204426D01*
X118895134Y-97203610D01*
X118896754Y-97204783D01*
X118896772Y-97206372D01*
X118820291Y-97388758D01*
X118758342Y-97632683D01*
X118733128Y-97883090D01*
X118745203Y-98134473D01*
X118794302Y-98381313D01*
X118879343Y-98618172D01*
X118891556Y-98640902D01*
X118891495Y-98642901D01*
X118889733Y-98643848D01*
X118888370Y-98643254D01*
X118840170Y-98594399D01*
X118772599Y-98579222D01*
X118707543Y-98602988D01*
X118665599Y-98658239D01*
X118657507Y-98702242D01*
X118656210Y-98703764D01*
X118654243Y-98703403D01*
X118653540Y-98701880D01*
X118653540Y-97156043D01*
X118654540Y-97154311D01*
X118656540Y-97154311D01*
X118657459Y-97155480D01*
G37*
G36*
X99657459Y-97155480D02*
G01*
X99677135Y-97222492D01*
X99729478Y-97267847D01*
X99798031Y-97277704D01*
X99861084Y-97248908D01*
X99893308Y-97204426D01*
X99895134Y-97203610D01*
X99896754Y-97204783D01*
X99896772Y-97206372D01*
X99820291Y-97388758D01*
X99758342Y-97632683D01*
X99733128Y-97883090D01*
X99745203Y-98134473D01*
X99794302Y-98381313D01*
X99879343Y-98618172D01*
X99891556Y-98640902D01*
X99891495Y-98642901D01*
X99889733Y-98643848D01*
X99888370Y-98643254D01*
X99840170Y-98594399D01*
X99772599Y-98579222D01*
X99707543Y-98602988D01*
X99665599Y-98658239D01*
X99657507Y-98702242D01*
X99656210Y-98703764D01*
X99654243Y-98703403D01*
X99653540Y-98701880D01*
X99653540Y-97156043D01*
X99654540Y-97154311D01*
X99656540Y-97154311D01*
X99657459Y-97155480D01*
G37*
G36*
X156657459Y-97155480D02*
G01*
X156677135Y-97222492D01*
X156729478Y-97267847D01*
X156798031Y-97277704D01*
X156861084Y-97248908D01*
X156893308Y-97204426D01*
X156895134Y-97203610D01*
X156896754Y-97204783D01*
X156896772Y-97206372D01*
X156820291Y-97388758D01*
X156758342Y-97632683D01*
X156733128Y-97883090D01*
X156745203Y-98134473D01*
X156794302Y-98381313D01*
X156879343Y-98618172D01*
X156891556Y-98640902D01*
X156891495Y-98642901D01*
X156889733Y-98643848D01*
X156888370Y-98643254D01*
X156840170Y-98594399D01*
X156772599Y-98579222D01*
X156707543Y-98602988D01*
X156665599Y-98658239D01*
X156657507Y-98702242D01*
X156656210Y-98703764D01*
X156654243Y-98703403D01*
X156653540Y-98701880D01*
X156653540Y-97156043D01*
X156654540Y-97154311D01*
X156656540Y-97154311D01*
X156657459Y-97155480D01*
G37*
G36*
X175657459Y-97155480D02*
G01*
X175677135Y-97222492D01*
X175729478Y-97267847D01*
X175798031Y-97277704D01*
X175861084Y-97248908D01*
X175893308Y-97204426D01*
X175895134Y-97203610D01*
X175896754Y-97204783D01*
X175896772Y-97206372D01*
X175820291Y-97388758D01*
X175758342Y-97632683D01*
X175733128Y-97883090D01*
X175745203Y-98134473D01*
X175794302Y-98381313D01*
X175879343Y-98618172D01*
X175891556Y-98640902D01*
X175891495Y-98642901D01*
X175889733Y-98643848D01*
X175888370Y-98643254D01*
X175840170Y-98594399D01*
X175772599Y-98579222D01*
X175707543Y-98602988D01*
X175665599Y-98658239D01*
X175657507Y-98702242D01*
X175656210Y-98703764D01*
X175654243Y-98703403D01*
X175653540Y-98701880D01*
X175653540Y-97156043D01*
X175654540Y-97154311D01*
X175656540Y-97154311D01*
X175657459Y-97155480D01*
G37*
G36*
X80657459Y-97155480D02*
G01*
X80677135Y-97222492D01*
X80729478Y-97267847D01*
X80798031Y-97277704D01*
X80861084Y-97248908D01*
X80893308Y-97204426D01*
X80895134Y-97203610D01*
X80896754Y-97204783D01*
X80896772Y-97206372D01*
X80820291Y-97388758D01*
X80758342Y-97632683D01*
X80733128Y-97883090D01*
X80745203Y-98134473D01*
X80794302Y-98381313D01*
X80879343Y-98618172D01*
X80891556Y-98640902D01*
X80891495Y-98642901D01*
X80889733Y-98643848D01*
X80888370Y-98643254D01*
X80840170Y-98594399D01*
X80772599Y-98579222D01*
X80707543Y-98602988D01*
X80665599Y-98658239D01*
X80657507Y-98702242D01*
X80656210Y-98703764D01*
X80654243Y-98703403D01*
X80653540Y-98701880D01*
X80653540Y-97156043D01*
X80654540Y-97154311D01*
X80656540Y-97154311D01*
X80657459Y-97155480D01*
G37*
G36*
X206940251Y-92104336D02*
G01*
X206978634Y-92155994D01*
X207043438Y-92180428D01*
X207111167Y-92165948D01*
X207160482Y-92116984D01*
X207165977Y-92105356D01*
X207167621Y-92104217D01*
X207169429Y-92105071D01*
X207169696Y-92106801D01*
X207126354Y-92246814D01*
X207104976Y-92450223D01*
X207123512Y-92653912D01*
X207169153Y-92808986D01*
X207168682Y-92810930D01*
X207166764Y-92811495D01*
X207165629Y-92810744D01*
X207127246Y-92759086D01*
X207062442Y-92734652D01*
X206994713Y-92749132D01*
X206945398Y-92798096D01*
X206939903Y-92809724D01*
X206938259Y-92810863D01*
X206936451Y-92810009D01*
X206936184Y-92808279D01*
X206979526Y-92668266D01*
X207000904Y-92464857D01*
X206982368Y-92261168D01*
X206936727Y-92106094D01*
X206937198Y-92104150D01*
X206939116Y-92103585D01*
X206940251Y-92104336D01*
G37*
G36*
X200377538Y-91756540D02*
G01*
X200377538Y-91758540D01*
X200377347Y-91758815D01*
X200284116Y-91871513D01*
X200206261Y-92015503D01*
X200204558Y-92016551D01*
X200202799Y-92015600D01*
X200202644Y-92013811D01*
X200215994Y-91980348D01*
X200216161Y-91980022D01*
X200236101Y-91948418D01*
X200255143Y-91881513D01*
X200235077Y-91815226D01*
X200182298Y-91770258D01*
X200131815Y-91759496D01*
X200130330Y-91758157D01*
X200130747Y-91756201D01*
X200132232Y-91755540D01*
X200375806Y-91755540D01*
X200377538Y-91756540D01*
G37*
G36*
X201403081Y-91149480D02*
G01*
X201403236Y-91151269D01*
X201389886Y-91184732D01*
X201389719Y-91185058D01*
X201369779Y-91216662D01*
X201350737Y-91283567D01*
X201370803Y-91349854D01*
X201423582Y-91394822D01*
X201474065Y-91405584D01*
X201475550Y-91406923D01*
X201475133Y-91408879D01*
X201473648Y-91409540D01*
X201230074Y-91409540D01*
X201228342Y-91408540D01*
X201228342Y-91406540D01*
X201228533Y-91406265D01*
X201321764Y-91293567D01*
X201399619Y-91149577D01*
X201401322Y-91148529D01*
X201403081Y-91149480D01*
G37*
G36*
X210159892Y-89381825D02*
G01*
X210336226Y-89405353D01*
X210513399Y-89389228D01*
X210636873Y-89349110D01*
X210638829Y-89349526D01*
X210639447Y-89351428D01*
X210638304Y-89352839D01*
X210599631Y-89370057D01*
X210546632Y-89415105D01*
X210526486Y-89481370D01*
X210545361Y-89547995D01*
X210599639Y-89595027D01*
X210648207Y-89616651D01*
X210649383Y-89618269D01*
X210648570Y-89620096D01*
X210646723Y-89620362D01*
X210535162Y-89580637D01*
X210358510Y-89559572D01*
X210181584Y-89578168D01*
X210064054Y-89618178D01*
X210062092Y-89617790D01*
X210061447Y-89615897D01*
X210062596Y-89614458D01*
X210106249Y-89595022D01*
X210159249Y-89549975D01*
X210179394Y-89483709D01*
X210160519Y-89417085D01*
X210106241Y-89370053D01*
X210052821Y-89346269D01*
X210051645Y-89344651D01*
X210052458Y-89342824D01*
X210054331Y-89342567D01*
X210159892Y-89381825D01*
G37*
G36*
X203159892Y-89381825D02*
G01*
X203336226Y-89405353D01*
X203513399Y-89389228D01*
X203636873Y-89349110D01*
X203638829Y-89349526D01*
X203639447Y-89351428D01*
X203638304Y-89352839D01*
X203599631Y-89370057D01*
X203546632Y-89415105D01*
X203526486Y-89481370D01*
X203545361Y-89547995D01*
X203599639Y-89595027D01*
X203648207Y-89616651D01*
X203649383Y-89618269D01*
X203648570Y-89620096D01*
X203646723Y-89620362D01*
X203535162Y-89580637D01*
X203358510Y-89559572D01*
X203181584Y-89578168D01*
X203064054Y-89618178D01*
X203062092Y-89617790D01*
X203061447Y-89615897D01*
X203062596Y-89614458D01*
X203106249Y-89595022D01*
X203159249Y-89549975D01*
X203179394Y-89483709D01*
X203160519Y-89417085D01*
X203106241Y-89370053D01*
X203052821Y-89346269D01*
X203051645Y-89344651D01*
X203052458Y-89342824D01*
X203054331Y-89342567D01*
X203159892Y-89381825D01*
G37*
G36*
X201474068Y-87556540D02*
G01*
X201474068Y-87558540D01*
X201472899Y-87559459D01*
X201405884Y-87579136D01*
X201360529Y-87631479D01*
X201350659Y-87700126D01*
X201366733Y-87745605D01*
X201366737Y-87745607D01*
X201401900Y-87804710D01*
X201402057Y-87805041D01*
X201412283Y-87832761D01*
X201411945Y-87834732D01*
X201410068Y-87835424D01*
X201408635Y-87834380D01*
X201363246Y-87747557D01*
X201363252Y-87747406D01*
X201363112Y-87747302D01*
X201329862Y-87683701D01*
X201229434Y-87558793D01*
X201229128Y-87556817D01*
X201230687Y-87555564D01*
X201230993Y-87555540D01*
X201472336Y-87555540D01*
X201474068Y-87556540D01*
G37*
G36*
X197346962Y-87142938D02*
G01*
X197347378Y-87144894D01*
X197346535Y-87145973D01*
X197293439Y-87179104D01*
X197263831Y-87241715D01*
X197272773Y-87310392D01*
X197317525Y-87363452D01*
X197340738Y-87374447D01*
X197341875Y-87376092D01*
X197341019Y-87377899D01*
X197339466Y-87378210D01*
X197193490Y-87347182D01*
X197006070Y-87347182D01*
X196855411Y-87379206D01*
X196853509Y-87378588D01*
X196853093Y-87376632D01*
X196853913Y-87375568D01*
X196906807Y-87341527D01*
X196935539Y-87278507D01*
X196925639Y-87209964D01*
X196880141Y-87157523D01*
X196858240Y-87147150D01*
X196857103Y-87145504D01*
X196857959Y-87143697D01*
X196859512Y-87143386D01*
X197006070Y-87174538D01*
X197193490Y-87174538D01*
X197345060Y-87142320D01*
X197346962Y-87142938D01*
G37*
G36*
X200197245Y-86930700D02*
G01*
X200242634Y-87017523D01*
X200242628Y-87017674D01*
X200242768Y-87017778D01*
X200276018Y-87081379D01*
X200376446Y-87206287D01*
X200376752Y-87208263D01*
X200375193Y-87209516D01*
X200374887Y-87209540D01*
X200133544Y-87209540D01*
X200131812Y-87208540D01*
X200131812Y-87206540D01*
X200132981Y-87205621D01*
X200199996Y-87185944D01*
X200245351Y-87133601D01*
X200255221Y-87064954D01*
X200239147Y-87019475D01*
X200239143Y-87019473D01*
X200203980Y-86960370D01*
X200203823Y-86960039D01*
X200193597Y-86932319D01*
X200193935Y-86930348D01*
X200195812Y-86929656D01*
X200197245Y-86930700D01*
G37*
G36*
X206940251Y-86154336D02*
G01*
X206978634Y-86205994D01*
X207043438Y-86230428D01*
X207111167Y-86215948D01*
X207160482Y-86166984D01*
X207165977Y-86155356D01*
X207167621Y-86154217D01*
X207169429Y-86155071D01*
X207169696Y-86156801D01*
X207126354Y-86296814D01*
X207104976Y-86500223D01*
X207123512Y-86703912D01*
X207169153Y-86858986D01*
X207168682Y-86860930D01*
X207166764Y-86861495D01*
X207165629Y-86860744D01*
X207127246Y-86809086D01*
X207062442Y-86784652D01*
X206994713Y-86799132D01*
X206945398Y-86848096D01*
X206939903Y-86859724D01*
X206938259Y-86860863D01*
X206936451Y-86860009D01*
X206936184Y-86858279D01*
X206979526Y-86718266D01*
X207000904Y-86514857D01*
X206982368Y-86311168D01*
X206936727Y-86156094D01*
X206937198Y-86154150D01*
X206939116Y-86153585D01*
X206940251Y-86154336D01*
G37*
G36*
X89206927Y-80347577D02*
G01*
X89207540Y-80349018D01*
X89207540Y-81895876D01*
X89206540Y-81897608D01*
X89204540Y-81897608D01*
X89203621Y-81896439D01*
X89183945Y-81829427D01*
X89131602Y-81784072D01*
X89063049Y-81774215D01*
X88999982Y-81803017D01*
X88969131Y-81844452D01*
X88967295Y-81845244D01*
X88965691Y-81844050D01*
X88965703Y-81842437D01*
X89026133Y-81708287D01*
X89094447Y-81466064D01*
X89126214Y-81216356D01*
X89128538Y-81127596D01*
X89109883Y-80876559D01*
X89054340Y-80631093D01*
X88963914Y-80398564D01*
X88964218Y-80396587D01*
X88966082Y-80395862D01*
X88967514Y-80396847D01*
X88970051Y-80401285D01*
X88971751Y-80401292D01*
X88972328Y-80401799D01*
X89008250Y-80448427D01*
X89073470Y-80471729D01*
X89140935Y-80456073D01*
X89189257Y-80406393D01*
X89203599Y-80348537D01*
X89204986Y-80347096D01*
X89206927Y-80347577D01*
G37*
G36*
X184206927Y-80347577D02*
G01*
X184207540Y-80349018D01*
X184207540Y-81895876D01*
X184206540Y-81897608D01*
X184204540Y-81897608D01*
X184203621Y-81896439D01*
X184183945Y-81829427D01*
X184131602Y-81784072D01*
X184063049Y-81774215D01*
X183999982Y-81803017D01*
X183969131Y-81844452D01*
X183967295Y-81845244D01*
X183965691Y-81844050D01*
X183965703Y-81842437D01*
X184026133Y-81708287D01*
X184094447Y-81466064D01*
X184126214Y-81216356D01*
X184128538Y-81127596D01*
X184109883Y-80876559D01*
X184054340Y-80631093D01*
X183963914Y-80398564D01*
X183964218Y-80396587D01*
X183966082Y-80395862D01*
X183967514Y-80396847D01*
X183970051Y-80401285D01*
X183971751Y-80401292D01*
X183972328Y-80401799D01*
X184008250Y-80448427D01*
X184073470Y-80471729D01*
X184140935Y-80456073D01*
X184189257Y-80406393D01*
X184203599Y-80348537D01*
X184204986Y-80347096D01*
X184206927Y-80347577D01*
G37*
G36*
X165206927Y-80347577D02*
G01*
X165207540Y-80349018D01*
X165207540Y-81895876D01*
X165206540Y-81897608D01*
X165204540Y-81897608D01*
X165203621Y-81896439D01*
X165183945Y-81829427D01*
X165131602Y-81784072D01*
X165063049Y-81774215D01*
X164999982Y-81803017D01*
X164969131Y-81844452D01*
X164967295Y-81845244D01*
X164965691Y-81844050D01*
X164965703Y-81842437D01*
X165026133Y-81708287D01*
X165094447Y-81466064D01*
X165126214Y-81216356D01*
X165128538Y-81127596D01*
X165109883Y-80876559D01*
X165054340Y-80631093D01*
X164963914Y-80398564D01*
X164964218Y-80396587D01*
X164966082Y-80395862D01*
X164967514Y-80396847D01*
X164970051Y-80401285D01*
X164971751Y-80401292D01*
X164972328Y-80401799D01*
X165008250Y-80448427D01*
X165073470Y-80471729D01*
X165140935Y-80456073D01*
X165189257Y-80406393D01*
X165203599Y-80348537D01*
X165204986Y-80347096D01*
X165206927Y-80347577D01*
G37*
G36*
X146206927Y-80347577D02*
G01*
X146207540Y-80349018D01*
X146207540Y-81895876D01*
X146206540Y-81897608D01*
X146204540Y-81897608D01*
X146203621Y-81896439D01*
X146183945Y-81829427D01*
X146131602Y-81784072D01*
X146063049Y-81774215D01*
X145999982Y-81803017D01*
X145969131Y-81844452D01*
X145967295Y-81845244D01*
X145965691Y-81844050D01*
X145965703Y-81842437D01*
X146026133Y-81708287D01*
X146094447Y-81466064D01*
X146126214Y-81216356D01*
X146128538Y-81127596D01*
X146109883Y-80876559D01*
X146054340Y-80631093D01*
X145963914Y-80398564D01*
X145964218Y-80396587D01*
X145966082Y-80395862D01*
X145967514Y-80396847D01*
X145970051Y-80401285D01*
X145971751Y-80401292D01*
X145972328Y-80401799D01*
X146008250Y-80448427D01*
X146073470Y-80471729D01*
X146140935Y-80456073D01*
X146189257Y-80406393D01*
X146203599Y-80348537D01*
X146204986Y-80347096D01*
X146206927Y-80347577D01*
G37*
G36*
X127206927Y-80347577D02*
G01*
X127207540Y-80349018D01*
X127207540Y-81895876D01*
X127206540Y-81897608D01*
X127204540Y-81897608D01*
X127203621Y-81896439D01*
X127183945Y-81829427D01*
X127131602Y-81784072D01*
X127063049Y-81774215D01*
X126999982Y-81803017D01*
X126969131Y-81844452D01*
X126967295Y-81845244D01*
X126965691Y-81844050D01*
X126965703Y-81842437D01*
X127026133Y-81708287D01*
X127094447Y-81466064D01*
X127126214Y-81216356D01*
X127128538Y-81127596D01*
X127109883Y-80876559D01*
X127054340Y-80631093D01*
X126963914Y-80398564D01*
X126964218Y-80396587D01*
X126966082Y-80395862D01*
X126967514Y-80396847D01*
X126970051Y-80401285D01*
X126971751Y-80401292D01*
X126972328Y-80401799D01*
X127008250Y-80448427D01*
X127073470Y-80471729D01*
X127140935Y-80456073D01*
X127189257Y-80406393D01*
X127203599Y-80348537D01*
X127204986Y-80347096D01*
X127206927Y-80347577D01*
G37*
G36*
X108206927Y-80347577D02*
G01*
X108207540Y-80349018D01*
X108207540Y-81895876D01*
X108206540Y-81897608D01*
X108204540Y-81897608D01*
X108203621Y-81896439D01*
X108183945Y-81829427D01*
X108131602Y-81784072D01*
X108063049Y-81774215D01*
X107999982Y-81803017D01*
X107969131Y-81844452D01*
X107967295Y-81845244D01*
X107965691Y-81844050D01*
X107965703Y-81842437D01*
X108026133Y-81708287D01*
X108094447Y-81466064D01*
X108126214Y-81216356D01*
X108128538Y-81127596D01*
X108109883Y-80876559D01*
X108054340Y-80631093D01*
X107963914Y-80398564D01*
X107964218Y-80396587D01*
X107966082Y-80395862D01*
X107967514Y-80396847D01*
X107970051Y-80401285D01*
X107971751Y-80401292D01*
X107972328Y-80401799D01*
X108008250Y-80448427D01*
X108073470Y-80471729D01*
X108140935Y-80456073D01*
X108189257Y-80406393D01*
X108203599Y-80348537D01*
X108204986Y-80347096D01*
X108206927Y-80347577D01*
G37*
G36*
X194948708Y-79798506D02*
G01*
X194958610Y-79804040D01*
X195136795Y-79861936D01*
X195159718Y-79864669D01*
X195161319Y-79865867D01*
X195161082Y-79867853D01*
X195159607Y-79868651D01*
X195097444Y-79872577D01*
X195041657Y-79913618D01*
X195016871Y-79978415D01*
X195019714Y-80007451D01*
X195019327Y-80008303D01*
X195028549Y-80108658D01*
X195027711Y-80110474D01*
X195025720Y-80110657D01*
X195024567Y-80109036D01*
X195014649Y-80007881D01*
X194960494Y-79828515D01*
X194945966Y-79801191D01*
X194946036Y-79799192D01*
X194947802Y-79798253D01*
X194948708Y-79798506D01*
G37*
G36*
X210188708Y-79798506D02*
G01*
X210198610Y-79804040D01*
X210376795Y-79861936D01*
X210399718Y-79864669D01*
X210401319Y-79865867D01*
X210401082Y-79867853D01*
X210399607Y-79868651D01*
X210337444Y-79872577D01*
X210281657Y-79913618D01*
X210256871Y-79978415D01*
X210259714Y-80007451D01*
X210259327Y-80008303D01*
X210268549Y-80108658D01*
X210267711Y-80110474D01*
X210265720Y-80110657D01*
X210264567Y-80109036D01*
X210254649Y-80007881D01*
X210200494Y-79828515D01*
X210185966Y-79801191D01*
X210186036Y-79799192D01*
X210187802Y-79798253D01*
X210188708Y-79798506D01*
G37*
G36*
X137657459Y-78155480D02*
G01*
X137677135Y-78222492D01*
X137729478Y-78267847D01*
X137798031Y-78277704D01*
X137861084Y-78248908D01*
X137893308Y-78204426D01*
X137895134Y-78203610D01*
X137896754Y-78204783D01*
X137896772Y-78206372D01*
X137820291Y-78388758D01*
X137758342Y-78632683D01*
X137733128Y-78883090D01*
X137745203Y-79134473D01*
X137794302Y-79381313D01*
X137879343Y-79618172D01*
X137891556Y-79640902D01*
X137891495Y-79642901D01*
X137889733Y-79643848D01*
X137888370Y-79643254D01*
X137840170Y-79594399D01*
X137772599Y-79579222D01*
X137707543Y-79602988D01*
X137665599Y-79658239D01*
X137657507Y-79702242D01*
X137656210Y-79703764D01*
X137654243Y-79703403D01*
X137653540Y-79701880D01*
X137653540Y-78156043D01*
X137654540Y-78154311D01*
X137656540Y-78154311D01*
X137657459Y-78155480D01*
G37*
G36*
X175657459Y-78155480D02*
G01*
X175677135Y-78222492D01*
X175729478Y-78267847D01*
X175798031Y-78277704D01*
X175861084Y-78248908D01*
X175893308Y-78204426D01*
X175895134Y-78203610D01*
X175896754Y-78204783D01*
X175896772Y-78206372D01*
X175820291Y-78388758D01*
X175758342Y-78632683D01*
X175733128Y-78883090D01*
X175745203Y-79134473D01*
X175794302Y-79381313D01*
X175879343Y-79618172D01*
X175891556Y-79640902D01*
X175891495Y-79642901D01*
X175889733Y-79643848D01*
X175888370Y-79643254D01*
X175840170Y-79594399D01*
X175772599Y-79579222D01*
X175707543Y-79602988D01*
X175665599Y-79658239D01*
X175657507Y-79702242D01*
X175656210Y-79703764D01*
X175654243Y-79703403D01*
X175653540Y-79701880D01*
X175653540Y-78156043D01*
X175654540Y-78154311D01*
X175656540Y-78154311D01*
X175657459Y-78155480D01*
G37*
G36*
X80657459Y-78155480D02*
G01*
X80677135Y-78222492D01*
X80729478Y-78267847D01*
X80798031Y-78277704D01*
X80861084Y-78248908D01*
X80893308Y-78204426D01*
X80895134Y-78203610D01*
X80896754Y-78204783D01*
X80896772Y-78206372D01*
X80820291Y-78388758D01*
X80758342Y-78632683D01*
X80733128Y-78883090D01*
X80745203Y-79134473D01*
X80794302Y-79381313D01*
X80879343Y-79618172D01*
X80891556Y-79640902D01*
X80891495Y-79642901D01*
X80889733Y-79643848D01*
X80888370Y-79643254D01*
X80840170Y-79594399D01*
X80772599Y-79579222D01*
X80707543Y-79602988D01*
X80665599Y-79658239D01*
X80657507Y-79702242D01*
X80656210Y-79703764D01*
X80654243Y-79703403D01*
X80653540Y-79701880D01*
X80653540Y-78156043D01*
X80654540Y-78154311D01*
X80656540Y-78154311D01*
X80657459Y-78155480D01*
G37*
G36*
X156657459Y-78155480D02*
G01*
X156677135Y-78222492D01*
X156729478Y-78267847D01*
X156798031Y-78277704D01*
X156861084Y-78248908D01*
X156893308Y-78204426D01*
X156895134Y-78203610D01*
X156896754Y-78204783D01*
X156896772Y-78206372D01*
X156820291Y-78388758D01*
X156758342Y-78632683D01*
X156733128Y-78883090D01*
X156745203Y-79134473D01*
X156794302Y-79381313D01*
X156879343Y-79618172D01*
X156891556Y-79640902D01*
X156891495Y-79642901D01*
X156889733Y-79643848D01*
X156888370Y-79643254D01*
X156840170Y-79594399D01*
X156772599Y-79579222D01*
X156707543Y-79602988D01*
X156665599Y-79658239D01*
X156657507Y-79702242D01*
X156656210Y-79703764D01*
X156654243Y-79703403D01*
X156653540Y-79701880D01*
X156653540Y-78156043D01*
X156654540Y-78154311D01*
X156656540Y-78154311D01*
X156657459Y-78155480D01*
G37*
G36*
X99657459Y-78155480D02*
G01*
X99677135Y-78222492D01*
X99729478Y-78267847D01*
X99798031Y-78277704D01*
X99861084Y-78248908D01*
X99893308Y-78204426D01*
X99895134Y-78203610D01*
X99896754Y-78204783D01*
X99896772Y-78206372D01*
X99820291Y-78388758D01*
X99758342Y-78632683D01*
X99733128Y-78883090D01*
X99745203Y-79134473D01*
X99794302Y-79381313D01*
X99879343Y-79618172D01*
X99891556Y-79640902D01*
X99891495Y-79642901D01*
X99889733Y-79643848D01*
X99888370Y-79643254D01*
X99840170Y-79594399D01*
X99772599Y-79579222D01*
X99707543Y-79602988D01*
X99665599Y-79658239D01*
X99657507Y-79702242D01*
X99656210Y-79703764D01*
X99654243Y-79703403D01*
X99653540Y-79701880D01*
X99653540Y-78156043D01*
X99654540Y-78154311D01*
X99656540Y-78154311D01*
X99657459Y-78155480D01*
G37*
G36*
X118657459Y-78155480D02*
G01*
X118677135Y-78222492D01*
X118729478Y-78267847D01*
X118798031Y-78277704D01*
X118861084Y-78248908D01*
X118893308Y-78204426D01*
X118895134Y-78203610D01*
X118896754Y-78204783D01*
X118896772Y-78206372D01*
X118820291Y-78388758D01*
X118758342Y-78632683D01*
X118733128Y-78883090D01*
X118745203Y-79134473D01*
X118794302Y-79381313D01*
X118879343Y-79618172D01*
X118891556Y-79640902D01*
X118891495Y-79642901D01*
X118889733Y-79643848D01*
X118888370Y-79643254D01*
X118840170Y-79594399D01*
X118772599Y-79579222D01*
X118707543Y-79602988D01*
X118665599Y-79658239D01*
X118657507Y-79702242D01*
X118656210Y-79703764D01*
X118654243Y-79703403D01*
X118653540Y-79701880D01*
X118653540Y-78156043D01*
X118654540Y-78154311D01*
X118656540Y-78154311D01*
X118657459Y-78155480D01*
G37*
G36*
X209643091Y-79112877D02*
G01*
X209690364Y-79277738D01*
X209712000Y-79319836D01*
X209711902Y-79321833D01*
X209710123Y-79322748D01*
X209709270Y-79322509D01*
X209684954Y-79309362D01*
X209508734Y-79254812D01*
X209507375Y-79253344D01*
X209507966Y-79251434D01*
X209509147Y-79250909D01*
X209563790Y-79246019D01*
X209618483Y-79203532D01*
X209641573Y-79138083D01*
X209639178Y-79113623D01*
X209640004Y-79111802D01*
X209641994Y-79111607D01*
X209643091Y-79112877D01*
G37*
G36*
X194403091Y-79112877D02*
G01*
X194450364Y-79277738D01*
X194472000Y-79319836D01*
X194471902Y-79321833D01*
X194470123Y-79322748D01*
X194469270Y-79322509D01*
X194444954Y-79309362D01*
X194268734Y-79254812D01*
X194267375Y-79253344D01*
X194267966Y-79251434D01*
X194269147Y-79250909D01*
X194323790Y-79246019D01*
X194378483Y-79203532D01*
X194401573Y-79138083D01*
X194399178Y-79113623D01*
X194400004Y-79111802D01*
X194401994Y-79111607D01*
X194403091Y-79112877D01*
G37*
G36*
X194469936Y-78525305D02*
G01*
X194470838Y-78527091D01*
X194470594Y-78527942D01*
X194460578Y-78546161D01*
X194403929Y-78724743D01*
X194403148Y-78731700D01*
X194401961Y-78733310D01*
X194399973Y-78733087D01*
X194399188Y-78731811D01*
X194387809Y-78664626D01*
X194341161Y-78613435D01*
X194274014Y-78595527D01*
X194267526Y-78596077D01*
X194265716Y-78595227D01*
X194265547Y-78593234D01*
X194266819Y-78592158D01*
X194420095Y-78549362D01*
X194467939Y-78525194D01*
X194469936Y-78525305D01*
G37*
G36*
X209709936Y-78525305D02*
G01*
X209710838Y-78527091D01*
X209710594Y-78527942D01*
X209700578Y-78546161D01*
X209643929Y-78724743D01*
X209643148Y-78731700D01*
X209641961Y-78733310D01*
X209639973Y-78733087D01*
X209639188Y-78731811D01*
X209627809Y-78664626D01*
X209581161Y-78613435D01*
X209514014Y-78595527D01*
X209507526Y-78596077D01*
X209505716Y-78595227D01*
X209505547Y-78593234D01*
X209506819Y-78592158D01*
X209660095Y-78549362D01*
X209707939Y-78525194D01*
X209709936Y-78525305D01*
G37*
G36*
X210254749Y-77846037D02*
G01*
X210255520Y-77847348D01*
X210264795Y-77912409D01*
X210310087Y-77964805D01*
X210376719Y-77984456D01*
X210379206Y-77984246D01*
X210381017Y-77985097D01*
X210381185Y-77987089D01*
X210379940Y-77988158D01*
X210223318Y-78034254D01*
X210190380Y-78051473D01*
X210188381Y-78051390D01*
X210187455Y-78049617D01*
X210187714Y-78048713D01*
X210189935Y-78044804D01*
X210249075Y-77867023D01*
X210251556Y-77847379D01*
X210252765Y-77845786D01*
X210254749Y-77846037D01*
G37*
G36*
X195014749Y-77846037D02*
G01*
X195015520Y-77847348D01*
X195024795Y-77912409D01*
X195070087Y-77964805D01*
X195136719Y-77984456D01*
X195139206Y-77984246D01*
X195141017Y-77985097D01*
X195141185Y-77987089D01*
X195139940Y-77988158D01*
X194983318Y-78034254D01*
X194950380Y-78051473D01*
X194948381Y-78051390D01*
X194947455Y-78049617D01*
X194947714Y-78048713D01*
X194949935Y-78044804D01*
X195009075Y-77867023D01*
X195011556Y-77847379D01*
X195012765Y-77845786D01*
X195014749Y-77846037D01*
G37*
G36*
X210188708Y-77258506D02*
G01*
X210198610Y-77264040D01*
X210376795Y-77321936D01*
X210399718Y-77324669D01*
X210401319Y-77325867D01*
X210401082Y-77327853D01*
X210399607Y-77328651D01*
X210337444Y-77332577D01*
X210281657Y-77373618D01*
X210256871Y-77438415D01*
X210259714Y-77467451D01*
X210259327Y-77468303D01*
X210268549Y-77568658D01*
X210267711Y-77570474D01*
X210265720Y-77570657D01*
X210264567Y-77569036D01*
X210254649Y-77467881D01*
X210200494Y-77288515D01*
X210185966Y-77261191D01*
X210186036Y-77259192D01*
X210187802Y-77258253D01*
X210188708Y-77258506D01*
G37*
G36*
X194948708Y-77258506D02*
G01*
X194958610Y-77264040D01*
X195136795Y-77321936D01*
X195159718Y-77324669D01*
X195161319Y-77325867D01*
X195161082Y-77327853D01*
X195159607Y-77328651D01*
X195097444Y-77332577D01*
X195041657Y-77373618D01*
X195016871Y-77438415D01*
X195019714Y-77467451D01*
X195019327Y-77468303D01*
X195028549Y-77568658D01*
X195027711Y-77570474D01*
X195025720Y-77570657D01*
X195024567Y-77569036D01*
X195014649Y-77467881D01*
X194960494Y-77288515D01*
X194945966Y-77261191D01*
X194946036Y-77259192D01*
X194947802Y-77258253D01*
X194948708Y-77258506D01*
G37*
G36*
X194403091Y-76572877D02*
G01*
X194450364Y-76737738D01*
X194472000Y-76779836D01*
X194471902Y-76781833D01*
X194470123Y-76782748D01*
X194469270Y-76782509D01*
X194444954Y-76769362D01*
X194268734Y-76714812D01*
X194267375Y-76713344D01*
X194267966Y-76711434D01*
X194269147Y-76710909D01*
X194323790Y-76706019D01*
X194378483Y-76663532D01*
X194401573Y-76598083D01*
X194399178Y-76573623D01*
X194400004Y-76571802D01*
X194401994Y-76571607D01*
X194403091Y-76572877D01*
G37*
G36*
X209643091Y-76572877D02*
G01*
X209690364Y-76737738D01*
X209712000Y-76779836D01*
X209711902Y-76781833D01*
X209710123Y-76782748D01*
X209709270Y-76782509D01*
X209684954Y-76769362D01*
X209508734Y-76714812D01*
X209507375Y-76713344D01*
X209507966Y-76711434D01*
X209509147Y-76710909D01*
X209563790Y-76706019D01*
X209618483Y-76663532D01*
X209641573Y-76598083D01*
X209639178Y-76573623D01*
X209640004Y-76571802D01*
X209641994Y-76571607D01*
X209643091Y-76572877D01*
G37*
G36*
X194469936Y-75985305D02*
G01*
X194470838Y-75987091D01*
X194470594Y-75987942D01*
X194460578Y-76006161D01*
X194403929Y-76184743D01*
X194403148Y-76191700D01*
X194401961Y-76193310D01*
X194399973Y-76193087D01*
X194399188Y-76191811D01*
X194387809Y-76124626D01*
X194341161Y-76073435D01*
X194274014Y-76055527D01*
X194267526Y-76056077D01*
X194265716Y-76055227D01*
X194265547Y-76053234D01*
X194266819Y-76052158D01*
X194420095Y-76009362D01*
X194467939Y-75985194D01*
X194469936Y-75985305D01*
G37*
G36*
X209709936Y-75985305D02*
G01*
X209710838Y-75987091D01*
X209710594Y-75987942D01*
X209700578Y-76006161D01*
X209643929Y-76184743D01*
X209643148Y-76191700D01*
X209641961Y-76193310D01*
X209639973Y-76193087D01*
X209639188Y-76191811D01*
X209627809Y-76124626D01*
X209581161Y-76073435D01*
X209514014Y-76055527D01*
X209507526Y-76056077D01*
X209505716Y-76055227D01*
X209505547Y-76053234D01*
X209506819Y-76052158D01*
X209660095Y-76009362D01*
X209707939Y-75985194D01*
X209709936Y-75985305D01*
G37*
G36*
X210254749Y-75306037D02*
G01*
X210255520Y-75307348D01*
X210264795Y-75372409D01*
X210310087Y-75424805D01*
X210376719Y-75444456D01*
X210379206Y-75444246D01*
X210381017Y-75445097D01*
X210381185Y-75447089D01*
X210379940Y-75448158D01*
X210223318Y-75494254D01*
X210190380Y-75511473D01*
X210188381Y-75511390D01*
X210187455Y-75509617D01*
X210187714Y-75508713D01*
X210189935Y-75504804D01*
X210249075Y-75327023D01*
X210251556Y-75307379D01*
X210252765Y-75305786D01*
X210254749Y-75306037D01*
G37*
G36*
X195014749Y-75306037D02*
G01*
X195015520Y-75307348D01*
X195024795Y-75372409D01*
X195070087Y-75424805D01*
X195136719Y-75444456D01*
X195139206Y-75444246D01*
X195141017Y-75445097D01*
X195141185Y-75447089D01*
X195139940Y-75448158D01*
X194983318Y-75494254D01*
X194950380Y-75511473D01*
X194948381Y-75511390D01*
X194947455Y-75509617D01*
X194947714Y-75508713D01*
X194949935Y-75504804D01*
X195009075Y-75327023D01*
X195011556Y-75307379D01*
X195012765Y-75305786D01*
X195014749Y-75306037D01*
G37*
G36*
X210188708Y-74718506D02*
G01*
X210198610Y-74724040D01*
X210376795Y-74781936D01*
X210399718Y-74784669D01*
X210401319Y-74785867D01*
X210401082Y-74787853D01*
X210399607Y-74788651D01*
X210337444Y-74792577D01*
X210281657Y-74833618D01*
X210256871Y-74898415D01*
X210259714Y-74927451D01*
X210259327Y-74928303D01*
X210268549Y-75028658D01*
X210267711Y-75030474D01*
X210265720Y-75030657D01*
X210264567Y-75029036D01*
X210254649Y-74927881D01*
X210200494Y-74748515D01*
X210185966Y-74721191D01*
X210186036Y-74719192D01*
X210187802Y-74718253D01*
X210188708Y-74718506D01*
G37*
G36*
X194948708Y-74718506D02*
G01*
X194958610Y-74724040D01*
X195136795Y-74781936D01*
X195159718Y-74784669D01*
X195161319Y-74785867D01*
X195161082Y-74787853D01*
X195159607Y-74788651D01*
X195097444Y-74792577D01*
X195041657Y-74833618D01*
X195016871Y-74898415D01*
X195019714Y-74927451D01*
X195019327Y-74928303D01*
X195028549Y-75028658D01*
X195027711Y-75030474D01*
X195025720Y-75030657D01*
X195024567Y-75029036D01*
X195014649Y-74927881D01*
X194960494Y-74748515D01*
X194945966Y-74721191D01*
X194946036Y-74719192D01*
X194947802Y-74718253D01*
X194948708Y-74718506D01*
G37*
G36*
X194403091Y-74032877D02*
G01*
X194450364Y-74197738D01*
X194472000Y-74239836D01*
X194471902Y-74241833D01*
X194470123Y-74242748D01*
X194469270Y-74242509D01*
X194444954Y-74229362D01*
X194268734Y-74174812D01*
X194267375Y-74173344D01*
X194267966Y-74171434D01*
X194269147Y-74170909D01*
X194323790Y-74166019D01*
X194378483Y-74123532D01*
X194401573Y-74058083D01*
X194399178Y-74033623D01*
X194400004Y-74031802D01*
X194401994Y-74031607D01*
X194403091Y-74032877D01*
G37*
G36*
X209643091Y-74032877D02*
G01*
X209690364Y-74197738D01*
X209712000Y-74239836D01*
X209711902Y-74241833D01*
X209710123Y-74242748D01*
X209709270Y-74242509D01*
X209684954Y-74229362D01*
X209508734Y-74174812D01*
X209507375Y-74173344D01*
X209507966Y-74171434D01*
X209509147Y-74170909D01*
X209563790Y-74166019D01*
X209618483Y-74123532D01*
X209641573Y-74058083D01*
X209639178Y-74033623D01*
X209640004Y-74031802D01*
X209641994Y-74031607D01*
X209643091Y-74032877D01*
G37*
G36*
X194469936Y-73445305D02*
G01*
X194470838Y-73447091D01*
X194470594Y-73447942D01*
X194460578Y-73466161D01*
X194403929Y-73644743D01*
X194403148Y-73651700D01*
X194401961Y-73653310D01*
X194399973Y-73653087D01*
X194399188Y-73651811D01*
X194387809Y-73584626D01*
X194341161Y-73533435D01*
X194274014Y-73515527D01*
X194267526Y-73516077D01*
X194265716Y-73515227D01*
X194265547Y-73513234D01*
X194266819Y-73512158D01*
X194420095Y-73469362D01*
X194467939Y-73445194D01*
X194469936Y-73445305D01*
G37*
G36*
X209709936Y-73445305D02*
G01*
X209710838Y-73447091D01*
X209710594Y-73447942D01*
X209700578Y-73466161D01*
X209643929Y-73644743D01*
X209643148Y-73651700D01*
X209641961Y-73653310D01*
X209639973Y-73653087D01*
X209639188Y-73651811D01*
X209627809Y-73584626D01*
X209581161Y-73533435D01*
X209514014Y-73515527D01*
X209507526Y-73516077D01*
X209505716Y-73515227D01*
X209505547Y-73513234D01*
X209506819Y-73512158D01*
X209660095Y-73469362D01*
X209707939Y-73445194D01*
X209709936Y-73445305D01*
G37*
G36*
X195014749Y-72766037D02*
G01*
X195015520Y-72767348D01*
X195024795Y-72832409D01*
X195070087Y-72884805D01*
X195136719Y-72904456D01*
X195139206Y-72904246D01*
X195141017Y-72905097D01*
X195141185Y-72907089D01*
X195139940Y-72908158D01*
X194983318Y-72954254D01*
X194950380Y-72971473D01*
X194948381Y-72971390D01*
X194947455Y-72969617D01*
X194947714Y-72968713D01*
X194949935Y-72964804D01*
X195009075Y-72787023D01*
X195011556Y-72767379D01*
X195012765Y-72765786D01*
X195014749Y-72766037D01*
G37*
G36*
X210254749Y-72766037D02*
G01*
X210255520Y-72767348D01*
X210264795Y-72832409D01*
X210310087Y-72884805D01*
X210376719Y-72904456D01*
X210379206Y-72904246D01*
X210381017Y-72905097D01*
X210381185Y-72907089D01*
X210379940Y-72908158D01*
X210223318Y-72954254D01*
X210190380Y-72971473D01*
X210188381Y-72971390D01*
X210187455Y-72969617D01*
X210187714Y-72968713D01*
X210189935Y-72964804D01*
X210249075Y-72787023D01*
X210251556Y-72767379D01*
X210252765Y-72765786D01*
X210254749Y-72766037D01*
G37*
G36*
X194948708Y-72178506D02*
G01*
X194958610Y-72184040D01*
X195136795Y-72241936D01*
X195159718Y-72244669D01*
X195161319Y-72245867D01*
X195161082Y-72247853D01*
X195159607Y-72248651D01*
X195097444Y-72252577D01*
X195041657Y-72293618D01*
X195016871Y-72358415D01*
X195019714Y-72387451D01*
X195019327Y-72388303D01*
X195028549Y-72488658D01*
X195027711Y-72490474D01*
X195025720Y-72490657D01*
X195024567Y-72489036D01*
X195014649Y-72387881D01*
X194960494Y-72208515D01*
X194945966Y-72181191D01*
X194946036Y-72179192D01*
X194947802Y-72178253D01*
X194948708Y-72178506D01*
G37*
G36*
X210188708Y-72178506D02*
G01*
X210198610Y-72184040D01*
X210376795Y-72241936D01*
X210399718Y-72244669D01*
X210401319Y-72245867D01*
X210401082Y-72247853D01*
X210399607Y-72248651D01*
X210337444Y-72252577D01*
X210281657Y-72293618D01*
X210256871Y-72358415D01*
X210259714Y-72387451D01*
X210259327Y-72388303D01*
X210268549Y-72488658D01*
X210267711Y-72490474D01*
X210265720Y-72490657D01*
X210264567Y-72489036D01*
X210254649Y-72387881D01*
X210200494Y-72208515D01*
X210185966Y-72181191D01*
X210186036Y-72179192D01*
X210187802Y-72178253D01*
X210188708Y-72178506D01*
G37*
G36*
X194403091Y-71492877D02*
G01*
X194450364Y-71657738D01*
X194472000Y-71699836D01*
X194471902Y-71701833D01*
X194470123Y-71702748D01*
X194469270Y-71702509D01*
X194444954Y-71689362D01*
X194268734Y-71634812D01*
X194267375Y-71633344D01*
X194267966Y-71631434D01*
X194269147Y-71630909D01*
X194323790Y-71626019D01*
X194378483Y-71583532D01*
X194401573Y-71518083D01*
X194399178Y-71493623D01*
X194400004Y-71491802D01*
X194401994Y-71491607D01*
X194403091Y-71492877D01*
G37*
G36*
X209643091Y-71492877D02*
G01*
X209690364Y-71657738D01*
X209712000Y-71699836D01*
X209711902Y-71701833D01*
X209710123Y-71702748D01*
X209709270Y-71702509D01*
X209684954Y-71689362D01*
X209508734Y-71634812D01*
X209507375Y-71633344D01*
X209507966Y-71631434D01*
X209509147Y-71630909D01*
X209563790Y-71626019D01*
X209618483Y-71583532D01*
X209641573Y-71518083D01*
X209639178Y-71493623D01*
X209640004Y-71491802D01*
X209641994Y-71491607D01*
X209643091Y-71492877D01*
G37*
G36*
X194469936Y-70905305D02*
G01*
X194470838Y-70907091D01*
X194470594Y-70907942D01*
X194460578Y-70926161D01*
X194403929Y-71104743D01*
X194403148Y-71111700D01*
X194401961Y-71113310D01*
X194399973Y-71113087D01*
X194399188Y-71111811D01*
X194387809Y-71044626D01*
X194341161Y-70993435D01*
X194274014Y-70975527D01*
X194267526Y-70976077D01*
X194265716Y-70975227D01*
X194265547Y-70973234D01*
X194266819Y-70972158D01*
X194420095Y-70929362D01*
X194467939Y-70905194D01*
X194469936Y-70905305D01*
G37*
G36*
X209709936Y-70905305D02*
G01*
X209710838Y-70907091D01*
X209710594Y-70907942D01*
X209700578Y-70926161D01*
X209643929Y-71104743D01*
X209643148Y-71111700D01*
X209641961Y-71113310D01*
X209639973Y-71113087D01*
X209639188Y-71111811D01*
X209627809Y-71044626D01*
X209581161Y-70993435D01*
X209514014Y-70975527D01*
X209507526Y-70976077D01*
X209505716Y-70975227D01*
X209505547Y-70973234D01*
X209506819Y-70972158D01*
X209660095Y-70929362D01*
X209707939Y-70905194D01*
X209709936Y-70905305D01*
G37*
G36*
X195014749Y-70226037D02*
G01*
X195015520Y-70227348D01*
X195024795Y-70292409D01*
X195070087Y-70344805D01*
X195136719Y-70364456D01*
X195139206Y-70364246D01*
X195141017Y-70365097D01*
X195141185Y-70367089D01*
X195139940Y-70368158D01*
X194983318Y-70414254D01*
X194950380Y-70431473D01*
X194948381Y-70431390D01*
X194947455Y-70429617D01*
X194947714Y-70428713D01*
X194949935Y-70424804D01*
X195009075Y-70247023D01*
X195011556Y-70227379D01*
X195012765Y-70225786D01*
X195014749Y-70226037D01*
G37*
G36*
X210254749Y-70226037D02*
G01*
X210255520Y-70227348D01*
X210264795Y-70292409D01*
X210310087Y-70344805D01*
X210376719Y-70364456D01*
X210379206Y-70364246D01*
X210381017Y-70365097D01*
X210381185Y-70367089D01*
X210379940Y-70368158D01*
X210223318Y-70414254D01*
X210190380Y-70431473D01*
X210188381Y-70431390D01*
X210187455Y-70429617D01*
X210187714Y-70428713D01*
X210189935Y-70424804D01*
X210249075Y-70247023D01*
X210251556Y-70227379D01*
X210252765Y-70225786D01*
X210254749Y-70226037D01*
G37*
G36*
X210188708Y-69638506D02*
G01*
X210198610Y-69644040D01*
X210376795Y-69701936D01*
X210399718Y-69704669D01*
X210401319Y-69705867D01*
X210401082Y-69707853D01*
X210399607Y-69708651D01*
X210337444Y-69712577D01*
X210281657Y-69753618D01*
X210256871Y-69818415D01*
X210259714Y-69847451D01*
X210259327Y-69848303D01*
X210268549Y-69948658D01*
X210267711Y-69950474D01*
X210265720Y-69950657D01*
X210264567Y-69949036D01*
X210254649Y-69847881D01*
X210200494Y-69668515D01*
X210185966Y-69641191D01*
X210186036Y-69639192D01*
X210187802Y-69638253D01*
X210188708Y-69638506D01*
G37*
G36*
X194948708Y-69638506D02*
G01*
X194958610Y-69644040D01*
X195136795Y-69701936D01*
X195159718Y-69704669D01*
X195161319Y-69705867D01*
X195161082Y-69707853D01*
X195159607Y-69708651D01*
X195097444Y-69712577D01*
X195041657Y-69753618D01*
X195016871Y-69818415D01*
X195019714Y-69847451D01*
X195019327Y-69848303D01*
X195028549Y-69948658D01*
X195027711Y-69950474D01*
X195025720Y-69950657D01*
X195024567Y-69949036D01*
X195014649Y-69847881D01*
X194960494Y-69668515D01*
X194945966Y-69641191D01*
X194946036Y-69639192D01*
X194947802Y-69638253D01*
X194948708Y-69638506D01*
G37*
G36*
X194403091Y-68952877D02*
G01*
X194450364Y-69117738D01*
X194472000Y-69159836D01*
X194471902Y-69161833D01*
X194470123Y-69162748D01*
X194469270Y-69162509D01*
X194444954Y-69149362D01*
X194268734Y-69094812D01*
X194267375Y-69093344D01*
X194267966Y-69091434D01*
X194269147Y-69090909D01*
X194323790Y-69086019D01*
X194378483Y-69043532D01*
X194401573Y-68978083D01*
X194399178Y-68953623D01*
X194400004Y-68951802D01*
X194401994Y-68951607D01*
X194403091Y-68952877D01*
G37*
G36*
X209643091Y-68952877D02*
G01*
X209690364Y-69117738D01*
X209712000Y-69159836D01*
X209711902Y-69161833D01*
X209710123Y-69162748D01*
X209709270Y-69162509D01*
X209684954Y-69149362D01*
X209508734Y-69094812D01*
X209507375Y-69093344D01*
X209507966Y-69091434D01*
X209509147Y-69090909D01*
X209563790Y-69086019D01*
X209618483Y-69043532D01*
X209641573Y-68978083D01*
X209639178Y-68953623D01*
X209640004Y-68951802D01*
X209641994Y-68951607D01*
X209643091Y-68952877D01*
G37*
G36*
X194469936Y-68365305D02*
G01*
X194470838Y-68367091D01*
X194470594Y-68367942D01*
X194460578Y-68386161D01*
X194403929Y-68564743D01*
X194403148Y-68571700D01*
X194401961Y-68573310D01*
X194399973Y-68573087D01*
X194399188Y-68571811D01*
X194387809Y-68504626D01*
X194341161Y-68453435D01*
X194274014Y-68435527D01*
X194267526Y-68436077D01*
X194265716Y-68435227D01*
X194265547Y-68433234D01*
X194266819Y-68432158D01*
X194420095Y-68389362D01*
X194467939Y-68365194D01*
X194469936Y-68365305D01*
G37*
G36*
X209709936Y-68365305D02*
G01*
X209710838Y-68367091D01*
X209710594Y-68367942D01*
X209700578Y-68386161D01*
X209643929Y-68564743D01*
X209643148Y-68571700D01*
X209641961Y-68573310D01*
X209639973Y-68573087D01*
X209639188Y-68571811D01*
X209627809Y-68504626D01*
X209581161Y-68453435D01*
X209514014Y-68435527D01*
X209507526Y-68436077D01*
X209505716Y-68435227D01*
X209505547Y-68433234D01*
X209506819Y-68432158D01*
X209660095Y-68389362D01*
X209707939Y-68365194D01*
X209709936Y-68365305D01*
G37*
G36*
X210254749Y-67686037D02*
G01*
X210255520Y-67687348D01*
X210264795Y-67752409D01*
X210310087Y-67804805D01*
X210376719Y-67824456D01*
X210379206Y-67824246D01*
X210381017Y-67825097D01*
X210381185Y-67827089D01*
X210379940Y-67828158D01*
X210223318Y-67874254D01*
X210190380Y-67891473D01*
X210188381Y-67891390D01*
X210187455Y-67889617D01*
X210187714Y-67888713D01*
X210189935Y-67884804D01*
X210249075Y-67707023D01*
X210251556Y-67687379D01*
X210252765Y-67685786D01*
X210254749Y-67686037D01*
G37*
G36*
X195014749Y-67686037D02*
G01*
X195015520Y-67687348D01*
X195024795Y-67752409D01*
X195070087Y-67804805D01*
X195136719Y-67824456D01*
X195139206Y-67824246D01*
X195141017Y-67825097D01*
X195141185Y-67827089D01*
X195139940Y-67828158D01*
X194983318Y-67874254D01*
X194950380Y-67891473D01*
X194948381Y-67891390D01*
X194947455Y-67889617D01*
X194947714Y-67888713D01*
X194949935Y-67884804D01*
X195009075Y-67707023D01*
X195011556Y-67687379D01*
X195012765Y-67685786D01*
X195014749Y-67686037D01*
G37*
G36*
X210188708Y-67098506D02*
G01*
X210198610Y-67104040D01*
X210376795Y-67161936D01*
X210399718Y-67164669D01*
X210401319Y-67165867D01*
X210401082Y-67167853D01*
X210399607Y-67168651D01*
X210337444Y-67172577D01*
X210281657Y-67213618D01*
X210256871Y-67278415D01*
X210259714Y-67307451D01*
X210259327Y-67308303D01*
X210268549Y-67408658D01*
X210267711Y-67410474D01*
X210265720Y-67410657D01*
X210264567Y-67409036D01*
X210254649Y-67307881D01*
X210200494Y-67128515D01*
X210185966Y-67101191D01*
X210186036Y-67099192D01*
X210187802Y-67098253D01*
X210188708Y-67098506D01*
G37*
G36*
X194948708Y-67098506D02*
G01*
X194958610Y-67104040D01*
X195136795Y-67161936D01*
X195159718Y-67164669D01*
X195161319Y-67165867D01*
X195161082Y-67167853D01*
X195159607Y-67168651D01*
X195097444Y-67172577D01*
X195041657Y-67213618D01*
X195016871Y-67278415D01*
X195019714Y-67307451D01*
X195019327Y-67308303D01*
X195028549Y-67408658D01*
X195027711Y-67410474D01*
X195025720Y-67410657D01*
X195024567Y-67409036D01*
X195014649Y-67307881D01*
X194960494Y-67128515D01*
X194945966Y-67101191D01*
X194946036Y-67099192D01*
X194947802Y-67098253D01*
X194948708Y-67098506D01*
G37*
G36*
X194403091Y-66412877D02*
G01*
X194450364Y-66577738D01*
X194472000Y-66619836D01*
X194471902Y-66621833D01*
X194470123Y-66622748D01*
X194469270Y-66622509D01*
X194444954Y-66609362D01*
X194268734Y-66554812D01*
X194267375Y-66553344D01*
X194267966Y-66551434D01*
X194269147Y-66550909D01*
X194323790Y-66546019D01*
X194378483Y-66503532D01*
X194401573Y-66438083D01*
X194399178Y-66413623D01*
X194400004Y-66411802D01*
X194401994Y-66411607D01*
X194403091Y-66412877D01*
G37*
G36*
X209643091Y-66412877D02*
G01*
X209690364Y-66577738D01*
X209712000Y-66619836D01*
X209711902Y-66621833D01*
X209710123Y-66622748D01*
X209709270Y-66622509D01*
X209684954Y-66609362D01*
X209508734Y-66554812D01*
X209507375Y-66553344D01*
X209507966Y-66551434D01*
X209509147Y-66550909D01*
X209563790Y-66546019D01*
X209618483Y-66503532D01*
X209641573Y-66438083D01*
X209639178Y-66413623D01*
X209640004Y-66411802D01*
X209641994Y-66411607D01*
X209643091Y-66412877D01*
G37*
G36*
X194469936Y-65825305D02*
G01*
X194470838Y-65827091D01*
X194470594Y-65827942D01*
X194460578Y-65846161D01*
X194403929Y-66024743D01*
X194403148Y-66031700D01*
X194401961Y-66033310D01*
X194399973Y-66033087D01*
X194399188Y-66031811D01*
X194387809Y-65964626D01*
X194341161Y-65913435D01*
X194274014Y-65895527D01*
X194267526Y-65896077D01*
X194265716Y-65895227D01*
X194265547Y-65893234D01*
X194266819Y-65892158D01*
X194420095Y-65849362D01*
X194467939Y-65825194D01*
X194469936Y-65825305D01*
G37*
G36*
X209709936Y-65825305D02*
G01*
X209710838Y-65827091D01*
X209710594Y-65827942D01*
X209700578Y-65846161D01*
X209643929Y-66024743D01*
X209643148Y-66031700D01*
X209641961Y-66033310D01*
X209639973Y-66033087D01*
X209639188Y-66031811D01*
X209627809Y-65964626D01*
X209581161Y-65913435D01*
X209514014Y-65895527D01*
X209507526Y-65896077D01*
X209505716Y-65895227D01*
X209505547Y-65893234D01*
X209506819Y-65892158D01*
X209660095Y-65849362D01*
X209707939Y-65825194D01*
X209709936Y-65825305D01*
G37*
G36*
X210254749Y-65146037D02*
G01*
X210255520Y-65147348D01*
X210264795Y-65212409D01*
X210310087Y-65264805D01*
X210376719Y-65284456D01*
X210379206Y-65284246D01*
X210381017Y-65285097D01*
X210381185Y-65287089D01*
X210379940Y-65288158D01*
X210223318Y-65334254D01*
X210190380Y-65351473D01*
X210188381Y-65351390D01*
X210187455Y-65349617D01*
X210187714Y-65348713D01*
X210189935Y-65344804D01*
X210249075Y-65167023D01*
X210251556Y-65147379D01*
X210252765Y-65145786D01*
X210254749Y-65146037D01*
G37*
G36*
X195014749Y-65146037D02*
G01*
X195015520Y-65147348D01*
X195024795Y-65212409D01*
X195070087Y-65264805D01*
X195136719Y-65284456D01*
X195139206Y-65284246D01*
X195141017Y-65285097D01*
X195141185Y-65287089D01*
X195139940Y-65288158D01*
X194983318Y-65334254D01*
X194950380Y-65351473D01*
X194948381Y-65351390D01*
X194947455Y-65349617D01*
X194947714Y-65348713D01*
X194949935Y-65344804D01*
X195009075Y-65167023D01*
X195011556Y-65147379D01*
X195012765Y-65145786D01*
X195014749Y-65146037D01*
G37*
G36*
X194948708Y-64558506D02*
G01*
X194958610Y-64564040D01*
X195136795Y-64621936D01*
X195159718Y-64624669D01*
X195161319Y-64625867D01*
X195161082Y-64627853D01*
X195159607Y-64628651D01*
X195097444Y-64632577D01*
X195041657Y-64673618D01*
X195016871Y-64738415D01*
X195019714Y-64767451D01*
X195019327Y-64768303D01*
X195028549Y-64868658D01*
X195027711Y-64870474D01*
X195025720Y-64870657D01*
X195024567Y-64869036D01*
X195014649Y-64767881D01*
X194960494Y-64588515D01*
X194945966Y-64561191D01*
X194946036Y-64559192D01*
X194947802Y-64558253D01*
X194948708Y-64558506D01*
G37*
G36*
X210188708Y-64558506D02*
G01*
X210198610Y-64564040D01*
X210376795Y-64621936D01*
X210399718Y-64624669D01*
X210401319Y-64625867D01*
X210401082Y-64627853D01*
X210399607Y-64628651D01*
X210337444Y-64632577D01*
X210281657Y-64673618D01*
X210256871Y-64738415D01*
X210259714Y-64767451D01*
X210259327Y-64768303D01*
X210268549Y-64868658D01*
X210267711Y-64870474D01*
X210265720Y-64870657D01*
X210264567Y-64869036D01*
X210254649Y-64767881D01*
X210200494Y-64588515D01*
X210185966Y-64561191D01*
X210186036Y-64559192D01*
X210187802Y-64558253D01*
X210188708Y-64558506D01*
G37*
G36*
X194403091Y-63872877D02*
G01*
X194450364Y-64037738D01*
X194472000Y-64079836D01*
X194471902Y-64081833D01*
X194470123Y-64082748D01*
X194469270Y-64082509D01*
X194444954Y-64069362D01*
X194268734Y-64014812D01*
X194267375Y-64013344D01*
X194267966Y-64011434D01*
X194269147Y-64010909D01*
X194323790Y-64006019D01*
X194378483Y-63963532D01*
X194401573Y-63898083D01*
X194399178Y-63873623D01*
X194400004Y-63871802D01*
X194401994Y-63871607D01*
X194403091Y-63872877D01*
G37*
G36*
X209643091Y-63872877D02*
G01*
X209690364Y-64037738D01*
X209712000Y-64079836D01*
X209711902Y-64081833D01*
X209710123Y-64082748D01*
X209709270Y-64082509D01*
X209684954Y-64069362D01*
X209508734Y-64014812D01*
X209507375Y-64013344D01*
X209507966Y-64011434D01*
X209509147Y-64010909D01*
X209563790Y-64006019D01*
X209618483Y-63963532D01*
X209641573Y-63898083D01*
X209639178Y-63873623D01*
X209640004Y-63871802D01*
X209641994Y-63871607D01*
X209643091Y-63872877D01*
G37*
G36*
X194469936Y-63285305D02*
G01*
X194470838Y-63287091D01*
X194470594Y-63287942D01*
X194460578Y-63306161D01*
X194403929Y-63484743D01*
X194403148Y-63491700D01*
X194401961Y-63493310D01*
X194399973Y-63493087D01*
X194399188Y-63491811D01*
X194387809Y-63424626D01*
X194341161Y-63373435D01*
X194274014Y-63355527D01*
X194267526Y-63356077D01*
X194265716Y-63355227D01*
X194265547Y-63353234D01*
X194266819Y-63352158D01*
X194420095Y-63309362D01*
X194467939Y-63285194D01*
X194469936Y-63285305D01*
G37*
G36*
X209709936Y-63285305D02*
G01*
X209710838Y-63287091D01*
X209710594Y-63287942D01*
X209700578Y-63306161D01*
X209643929Y-63484743D01*
X209643148Y-63491700D01*
X209641961Y-63493310D01*
X209639973Y-63493087D01*
X209639188Y-63491811D01*
X209627809Y-63424626D01*
X209581161Y-63373435D01*
X209514014Y-63355527D01*
X209507526Y-63356077D01*
X209505716Y-63355227D01*
X209505547Y-63353234D01*
X209506819Y-63352158D01*
X209660095Y-63309362D01*
X209707939Y-63285194D01*
X209709936Y-63285305D01*
G37*
G36*
X89206927Y-61347577D02*
G01*
X89207540Y-61349018D01*
X89207540Y-62895876D01*
X89206540Y-62897608D01*
X89204540Y-62897608D01*
X89203621Y-62896439D01*
X89183945Y-62829427D01*
X89131602Y-62784072D01*
X89063049Y-62774215D01*
X88999982Y-62803017D01*
X88969131Y-62844452D01*
X88967295Y-62845244D01*
X88965691Y-62844050D01*
X88965703Y-62842437D01*
X89026133Y-62708287D01*
X89094447Y-62466064D01*
X89126214Y-62216356D01*
X89128538Y-62127596D01*
X89109883Y-61876559D01*
X89054340Y-61631093D01*
X88963914Y-61398564D01*
X88964218Y-61396587D01*
X88966082Y-61395862D01*
X88967514Y-61396847D01*
X88970051Y-61401285D01*
X88971751Y-61401292D01*
X88972328Y-61401799D01*
X89008250Y-61448427D01*
X89073470Y-61471729D01*
X89140935Y-61456073D01*
X89189257Y-61406393D01*
X89203599Y-61348537D01*
X89204986Y-61347096D01*
X89206927Y-61347577D01*
G37*
G36*
X165206927Y-61347577D02*
G01*
X165207540Y-61349018D01*
X165207540Y-62895876D01*
X165206540Y-62897608D01*
X165204540Y-62897608D01*
X165203621Y-62896439D01*
X165183945Y-62829427D01*
X165131602Y-62784072D01*
X165063049Y-62774215D01*
X164999982Y-62803017D01*
X164969131Y-62844452D01*
X164967295Y-62845244D01*
X164965691Y-62844050D01*
X164965703Y-62842437D01*
X165026133Y-62708287D01*
X165094447Y-62466064D01*
X165126214Y-62216356D01*
X165128538Y-62127596D01*
X165109883Y-61876559D01*
X165054340Y-61631093D01*
X164963914Y-61398564D01*
X164964218Y-61396587D01*
X164966082Y-61395862D01*
X164967514Y-61396847D01*
X164970051Y-61401285D01*
X164971751Y-61401292D01*
X164972328Y-61401799D01*
X165008250Y-61448427D01*
X165073470Y-61471729D01*
X165140935Y-61456073D01*
X165189257Y-61406393D01*
X165203599Y-61348537D01*
X165204986Y-61347096D01*
X165206927Y-61347577D01*
G37*
G36*
X127206927Y-61347577D02*
G01*
X127207540Y-61349018D01*
X127207540Y-62895876D01*
X127206540Y-62897608D01*
X127204540Y-62897608D01*
X127203621Y-62896439D01*
X127183945Y-62829427D01*
X127131602Y-62784072D01*
X127063049Y-62774215D01*
X126999982Y-62803017D01*
X126969131Y-62844452D01*
X126967295Y-62845244D01*
X126965691Y-62844050D01*
X126965703Y-62842437D01*
X127026133Y-62708287D01*
X127094447Y-62466064D01*
X127126214Y-62216356D01*
X127128538Y-62127596D01*
X127109883Y-61876559D01*
X127054340Y-61631093D01*
X126963914Y-61398564D01*
X126964218Y-61396587D01*
X126966082Y-61395862D01*
X126967514Y-61396847D01*
X126970051Y-61401285D01*
X126971751Y-61401292D01*
X126972328Y-61401799D01*
X127008250Y-61448427D01*
X127073470Y-61471729D01*
X127140935Y-61456073D01*
X127189257Y-61406393D01*
X127203599Y-61348537D01*
X127204986Y-61347096D01*
X127206927Y-61347577D01*
G37*
G36*
X108206927Y-61347577D02*
G01*
X108207540Y-61349018D01*
X108207540Y-62895876D01*
X108206540Y-62897608D01*
X108204540Y-62897608D01*
X108203621Y-62896439D01*
X108183945Y-62829427D01*
X108131602Y-62784072D01*
X108063049Y-62774215D01*
X107999982Y-62803017D01*
X107969131Y-62844452D01*
X107967295Y-62845244D01*
X107965691Y-62844050D01*
X107965703Y-62842437D01*
X108026133Y-62708287D01*
X108094447Y-62466064D01*
X108126214Y-62216356D01*
X108128538Y-62127596D01*
X108109883Y-61876559D01*
X108054340Y-61631093D01*
X107963914Y-61398564D01*
X107964218Y-61396587D01*
X107966082Y-61395862D01*
X107967514Y-61396847D01*
X107970051Y-61401285D01*
X107971751Y-61401292D01*
X107972328Y-61401799D01*
X108008250Y-61448427D01*
X108073470Y-61471729D01*
X108140935Y-61456073D01*
X108189257Y-61406393D01*
X108203599Y-61348537D01*
X108204986Y-61347096D01*
X108206927Y-61347577D01*
G37*
G36*
X146206927Y-61347577D02*
G01*
X146207540Y-61349018D01*
X146207540Y-62895876D01*
X146206540Y-62897608D01*
X146204540Y-62897608D01*
X146203621Y-62896439D01*
X146183945Y-62829427D01*
X146131602Y-62784072D01*
X146063049Y-62774215D01*
X145999982Y-62803017D01*
X145969131Y-62844452D01*
X145967295Y-62845244D01*
X145965691Y-62844050D01*
X145965703Y-62842437D01*
X146026133Y-62708287D01*
X146094447Y-62466064D01*
X146126214Y-62216356D01*
X146128538Y-62127596D01*
X146109883Y-61876559D01*
X146054340Y-61631093D01*
X145963914Y-61398564D01*
X145964218Y-61396587D01*
X145966082Y-61395862D01*
X145967514Y-61396847D01*
X145970051Y-61401285D01*
X145971751Y-61401292D01*
X145972328Y-61401799D01*
X146008250Y-61448427D01*
X146073470Y-61471729D01*
X146140935Y-61456073D01*
X146189257Y-61406393D01*
X146203599Y-61348537D01*
X146204986Y-61347096D01*
X146206927Y-61347577D01*
G37*
G36*
X184206927Y-61347577D02*
G01*
X184207540Y-61349018D01*
X184207540Y-62895876D01*
X184206540Y-62897608D01*
X184204540Y-62897608D01*
X184203621Y-62896439D01*
X184183945Y-62829427D01*
X184131602Y-62784072D01*
X184063049Y-62774215D01*
X183999982Y-62803017D01*
X183969131Y-62844452D01*
X183967295Y-62845244D01*
X183965691Y-62844050D01*
X183965703Y-62842437D01*
X184026133Y-62708287D01*
X184094447Y-62466064D01*
X184126214Y-62216356D01*
X184128538Y-62127596D01*
X184109883Y-61876559D01*
X184054340Y-61631093D01*
X183963914Y-61398564D01*
X183964218Y-61396587D01*
X183966082Y-61395862D01*
X183967514Y-61396847D01*
X183970051Y-61401285D01*
X183971751Y-61401292D01*
X183972328Y-61401799D01*
X184008250Y-61448427D01*
X184073470Y-61471729D01*
X184140935Y-61456073D01*
X184189257Y-61406393D01*
X184203599Y-61348537D01*
X184204986Y-61347096D01*
X184206927Y-61347577D01*
G37*
G36*
X195014749Y-62606037D02*
G01*
X195015520Y-62607348D01*
X195024795Y-62672409D01*
X195070087Y-62724805D01*
X195136719Y-62744456D01*
X195139206Y-62744246D01*
X195141017Y-62745097D01*
X195141185Y-62747089D01*
X195139940Y-62748158D01*
X194983318Y-62794254D01*
X194950380Y-62811473D01*
X194948381Y-62811390D01*
X194947455Y-62809617D01*
X194947714Y-62808713D01*
X194949935Y-62804804D01*
X195009075Y-62627023D01*
X195011556Y-62607379D01*
X195012765Y-62605786D01*
X195014749Y-62606037D01*
G37*
G36*
X210254749Y-62606037D02*
G01*
X210255520Y-62607348D01*
X210264795Y-62672409D01*
X210310087Y-62724805D01*
X210376719Y-62744456D01*
X210379206Y-62744246D01*
X210381017Y-62745097D01*
X210381185Y-62747089D01*
X210379940Y-62748158D01*
X210223318Y-62794254D01*
X210190380Y-62811473D01*
X210188381Y-62811390D01*
X210187455Y-62809617D01*
X210187714Y-62808713D01*
X210189935Y-62804804D01*
X210249075Y-62627023D01*
X210251556Y-62607379D01*
X210252765Y-62605786D01*
X210254749Y-62606037D01*
G37*
G36*
X194948708Y-62018506D02*
G01*
X194958610Y-62024040D01*
X195136795Y-62081936D01*
X195159718Y-62084669D01*
X195161319Y-62085867D01*
X195161082Y-62087853D01*
X195159607Y-62088651D01*
X195097444Y-62092577D01*
X195041657Y-62133618D01*
X195016871Y-62198415D01*
X195019714Y-62227451D01*
X195019327Y-62228303D01*
X195028549Y-62328658D01*
X195027711Y-62330474D01*
X195025720Y-62330657D01*
X195024567Y-62329036D01*
X195014649Y-62227881D01*
X194960494Y-62048515D01*
X194945966Y-62021191D01*
X194946036Y-62019192D01*
X194947802Y-62018253D01*
X194948708Y-62018506D01*
G37*
G36*
X210188708Y-62018506D02*
G01*
X210198610Y-62024040D01*
X210376795Y-62081936D01*
X210399718Y-62084669D01*
X210401319Y-62085867D01*
X210401082Y-62087853D01*
X210399607Y-62088651D01*
X210337444Y-62092577D01*
X210281657Y-62133618D01*
X210256871Y-62198415D01*
X210259714Y-62227451D01*
X210259327Y-62228303D01*
X210268549Y-62328658D01*
X210267711Y-62330474D01*
X210265720Y-62330657D01*
X210264567Y-62329036D01*
X210254649Y-62227881D01*
X210200494Y-62048515D01*
X210185966Y-62021191D01*
X210186036Y-62019192D01*
X210187802Y-62018253D01*
X210188708Y-62018506D01*
G37*
G36*
X194403091Y-61332877D02*
G01*
X194450364Y-61497738D01*
X194472000Y-61539836D01*
X194471902Y-61541833D01*
X194470123Y-61542748D01*
X194469270Y-61542509D01*
X194444954Y-61529362D01*
X194268734Y-61474812D01*
X194267375Y-61473344D01*
X194267966Y-61471434D01*
X194269147Y-61470909D01*
X194323790Y-61466019D01*
X194378483Y-61423532D01*
X194401573Y-61358083D01*
X194399178Y-61333623D01*
X194400004Y-61331802D01*
X194401994Y-61331607D01*
X194403091Y-61332877D01*
G37*
G36*
X209643091Y-61332877D02*
G01*
X209690364Y-61497738D01*
X209712000Y-61539836D01*
X209711902Y-61541833D01*
X209710123Y-61542748D01*
X209709270Y-61542509D01*
X209684954Y-61529362D01*
X209508734Y-61474812D01*
X209507375Y-61473344D01*
X209507966Y-61471434D01*
X209509147Y-61470909D01*
X209563790Y-61466019D01*
X209618483Y-61423532D01*
X209641573Y-61358083D01*
X209639178Y-61333623D01*
X209640004Y-61331802D01*
X209641994Y-61331607D01*
X209643091Y-61332877D01*
G37*
G36*
X194469936Y-60745305D02*
G01*
X194470838Y-60747091D01*
X194470594Y-60747942D01*
X194460578Y-60766161D01*
X194403929Y-60944743D01*
X194403148Y-60951700D01*
X194401961Y-60953310D01*
X194399973Y-60953087D01*
X194399188Y-60951811D01*
X194387809Y-60884626D01*
X194341161Y-60833435D01*
X194274014Y-60815527D01*
X194267526Y-60816077D01*
X194265716Y-60815227D01*
X194265547Y-60813234D01*
X194266819Y-60812158D01*
X194420095Y-60769362D01*
X194467939Y-60745194D01*
X194469936Y-60745305D01*
G37*
G36*
X209709936Y-60745305D02*
G01*
X209710838Y-60747091D01*
X209710594Y-60747942D01*
X209700578Y-60766161D01*
X209643929Y-60944743D01*
X209643148Y-60951700D01*
X209641961Y-60953310D01*
X209639973Y-60953087D01*
X209639188Y-60951811D01*
X209627809Y-60884626D01*
X209581161Y-60833435D01*
X209514014Y-60815527D01*
X209507526Y-60816077D01*
X209505716Y-60815227D01*
X209505547Y-60813234D01*
X209506819Y-60812158D01*
X209660095Y-60769362D01*
X209707939Y-60745194D01*
X209709936Y-60745305D01*
G37*
G36*
X156657459Y-59155480D02*
G01*
X156677135Y-59222492D01*
X156729478Y-59267847D01*
X156798031Y-59277704D01*
X156861084Y-59248908D01*
X156893308Y-59204426D01*
X156895134Y-59203610D01*
X156896754Y-59204783D01*
X156896772Y-59206372D01*
X156820291Y-59388758D01*
X156758342Y-59632683D01*
X156733128Y-59883090D01*
X156745203Y-60134473D01*
X156794302Y-60381313D01*
X156879343Y-60618172D01*
X156891556Y-60640902D01*
X156891495Y-60642901D01*
X156889733Y-60643848D01*
X156888370Y-60643254D01*
X156840170Y-60594399D01*
X156772599Y-60579222D01*
X156707543Y-60602988D01*
X156665599Y-60658239D01*
X156657507Y-60702242D01*
X156656210Y-60703764D01*
X156654243Y-60703403D01*
X156653540Y-60701880D01*
X156653540Y-59156043D01*
X156654540Y-59154311D01*
X156656540Y-59154311D01*
X156657459Y-59155480D01*
G37*
G36*
X99657459Y-59155480D02*
G01*
X99677135Y-59222492D01*
X99729478Y-59267847D01*
X99798031Y-59277704D01*
X99861084Y-59248908D01*
X99893308Y-59204426D01*
X99895134Y-59203610D01*
X99896754Y-59204783D01*
X99896772Y-59206372D01*
X99820291Y-59388758D01*
X99758342Y-59632683D01*
X99733128Y-59883090D01*
X99745203Y-60134473D01*
X99794302Y-60381313D01*
X99879343Y-60618172D01*
X99891556Y-60640902D01*
X99891495Y-60642901D01*
X99889733Y-60643848D01*
X99888370Y-60643254D01*
X99840170Y-60594399D01*
X99772599Y-60579222D01*
X99707543Y-60602988D01*
X99665599Y-60658239D01*
X99657507Y-60702242D01*
X99656210Y-60703764D01*
X99654243Y-60703403D01*
X99653540Y-60701880D01*
X99653540Y-59156043D01*
X99654540Y-59154311D01*
X99656540Y-59154311D01*
X99657459Y-59155480D01*
G37*
G36*
X175657459Y-59155480D02*
G01*
X175677135Y-59222492D01*
X175729478Y-59267847D01*
X175798031Y-59277704D01*
X175861084Y-59248908D01*
X175893308Y-59204426D01*
X175895134Y-59203610D01*
X175896754Y-59204783D01*
X175896772Y-59206372D01*
X175820291Y-59388758D01*
X175758342Y-59632683D01*
X175733128Y-59883090D01*
X175745203Y-60134473D01*
X175794302Y-60381313D01*
X175879343Y-60618172D01*
X175891556Y-60640902D01*
X175891495Y-60642901D01*
X175889733Y-60643848D01*
X175888370Y-60643254D01*
X175840170Y-60594399D01*
X175772599Y-60579222D01*
X175707543Y-60602988D01*
X175665599Y-60658239D01*
X175657507Y-60702242D01*
X175656210Y-60703764D01*
X175654243Y-60703403D01*
X175653540Y-60701880D01*
X175653540Y-59156043D01*
X175654540Y-59154311D01*
X175656540Y-59154311D01*
X175657459Y-59155480D01*
G37*
G36*
X137657459Y-59155480D02*
G01*
X137677135Y-59222492D01*
X137729478Y-59267847D01*
X137798031Y-59277704D01*
X137861084Y-59248908D01*
X137893308Y-59204426D01*
X137895134Y-59203610D01*
X137896754Y-59204783D01*
X137896772Y-59206372D01*
X137820291Y-59388758D01*
X137758342Y-59632683D01*
X137733128Y-59883090D01*
X137745203Y-60134473D01*
X137794302Y-60381313D01*
X137879343Y-60618172D01*
X137891556Y-60640902D01*
X137891495Y-60642901D01*
X137889733Y-60643848D01*
X137888370Y-60643254D01*
X137840170Y-60594399D01*
X137772599Y-60579222D01*
X137707543Y-60602988D01*
X137665599Y-60658239D01*
X137657507Y-60702242D01*
X137656210Y-60703764D01*
X137654243Y-60703403D01*
X137653540Y-60701880D01*
X137653540Y-59156043D01*
X137654540Y-59154311D01*
X137656540Y-59154311D01*
X137657459Y-59155480D01*
G37*
G36*
X118657459Y-59155480D02*
G01*
X118677135Y-59222492D01*
X118729478Y-59267847D01*
X118798031Y-59277704D01*
X118861084Y-59248908D01*
X118893308Y-59204426D01*
X118895134Y-59203610D01*
X118896754Y-59204783D01*
X118896772Y-59206372D01*
X118820291Y-59388758D01*
X118758342Y-59632683D01*
X118733128Y-59883090D01*
X118745203Y-60134473D01*
X118794302Y-60381313D01*
X118879343Y-60618172D01*
X118891556Y-60640902D01*
X118891495Y-60642901D01*
X118889733Y-60643848D01*
X118888370Y-60643254D01*
X118840170Y-60594399D01*
X118772599Y-60579222D01*
X118707543Y-60602988D01*
X118665599Y-60658239D01*
X118657507Y-60702242D01*
X118656210Y-60703764D01*
X118654243Y-60703403D01*
X118653540Y-60701880D01*
X118653540Y-59156043D01*
X118654540Y-59154311D01*
X118656540Y-59154311D01*
X118657459Y-59155480D01*
G37*
G36*
X80657459Y-59155480D02*
G01*
X80677135Y-59222492D01*
X80729478Y-59267847D01*
X80798031Y-59277704D01*
X80861084Y-59248908D01*
X80893308Y-59204426D01*
X80895134Y-59203610D01*
X80896754Y-59204783D01*
X80896772Y-59206372D01*
X80820291Y-59388758D01*
X80758342Y-59632683D01*
X80733128Y-59883090D01*
X80745203Y-60134473D01*
X80794302Y-60381313D01*
X80879343Y-60618172D01*
X80891556Y-60640902D01*
X80891495Y-60642901D01*
X80889733Y-60643848D01*
X80888370Y-60643254D01*
X80840170Y-60594399D01*
X80772599Y-60579222D01*
X80707543Y-60602988D01*
X80665599Y-60658239D01*
X80657507Y-60702242D01*
X80656210Y-60703764D01*
X80654243Y-60703403D01*
X80653540Y-60701880D01*
X80653540Y-59156043D01*
X80654540Y-59154311D01*
X80656540Y-59154311D01*
X80657459Y-59155480D01*
G37*
G36*
X195014749Y-60066037D02*
G01*
X195015520Y-60067348D01*
X195024795Y-60132409D01*
X195070087Y-60184805D01*
X195136719Y-60204456D01*
X195139206Y-60204246D01*
X195141017Y-60205097D01*
X195141185Y-60207089D01*
X195139940Y-60208158D01*
X194983318Y-60254254D01*
X194950380Y-60271473D01*
X194948381Y-60271390D01*
X194947455Y-60269617D01*
X194947714Y-60268713D01*
X194949935Y-60264804D01*
X195009075Y-60087023D01*
X195011556Y-60067379D01*
X195012765Y-60065786D01*
X195014749Y-60066037D01*
G37*
G36*
X210254749Y-60066037D02*
G01*
X210255520Y-60067348D01*
X210264795Y-60132409D01*
X210310087Y-60184805D01*
X210376719Y-60204456D01*
X210379206Y-60204246D01*
X210381017Y-60205097D01*
X210381185Y-60207089D01*
X210379940Y-60208158D01*
X210223318Y-60254254D01*
X210190380Y-60271473D01*
X210188381Y-60271390D01*
X210187455Y-60269617D01*
X210187714Y-60268713D01*
X210189935Y-60264804D01*
X210249075Y-60087023D01*
X210251556Y-60067379D01*
X210252765Y-60065786D01*
X210254749Y-60066037D01*
G37*
G36*
X210188708Y-59478506D02*
G01*
X210198610Y-59484040D01*
X210376795Y-59541936D01*
X210399718Y-59544669D01*
X210401319Y-59545867D01*
X210401082Y-59547853D01*
X210399607Y-59548651D01*
X210337444Y-59552577D01*
X210281657Y-59593618D01*
X210256871Y-59658415D01*
X210259714Y-59687451D01*
X210259327Y-59688303D01*
X210268549Y-59788658D01*
X210267711Y-59790474D01*
X210265720Y-59790657D01*
X210264567Y-59789036D01*
X210254649Y-59687881D01*
X210200494Y-59508515D01*
X210185966Y-59481191D01*
X210186036Y-59479192D01*
X210187802Y-59478253D01*
X210188708Y-59478506D01*
G37*
G36*
X194948708Y-59478506D02*
G01*
X194958610Y-59484040D01*
X195136795Y-59541936D01*
X195159718Y-59544669D01*
X195161319Y-59545867D01*
X195161082Y-59547853D01*
X195159607Y-59548651D01*
X195097444Y-59552577D01*
X195041657Y-59593618D01*
X195016871Y-59658415D01*
X195019714Y-59687451D01*
X195019327Y-59688303D01*
X195028549Y-59788658D01*
X195027711Y-59790474D01*
X195025720Y-59790657D01*
X195024567Y-59789036D01*
X195014649Y-59687881D01*
X194960494Y-59508515D01*
X194945966Y-59481191D01*
X194946036Y-59479192D01*
X194947802Y-59478253D01*
X194948708Y-59478506D01*
G37*
G36*
X194403091Y-58792877D02*
G01*
X194450364Y-58957738D01*
X194472000Y-58999836D01*
X194471902Y-59001833D01*
X194470123Y-59002748D01*
X194469270Y-59002509D01*
X194444954Y-58989362D01*
X194268734Y-58934812D01*
X194267375Y-58933344D01*
X194267966Y-58931434D01*
X194269147Y-58930909D01*
X194323790Y-58926019D01*
X194378483Y-58883532D01*
X194401573Y-58818083D01*
X194399178Y-58793623D01*
X194400004Y-58791802D01*
X194401994Y-58791607D01*
X194403091Y-58792877D01*
G37*
G36*
X209643091Y-58792877D02*
G01*
X209690364Y-58957738D01*
X209712000Y-58999836D01*
X209711902Y-59001833D01*
X209710123Y-59002748D01*
X209709270Y-59002509D01*
X209684954Y-58989362D01*
X209508734Y-58934812D01*
X209507375Y-58933344D01*
X209507966Y-58931434D01*
X209509147Y-58930909D01*
X209563790Y-58926019D01*
X209618483Y-58883532D01*
X209641573Y-58818083D01*
X209639178Y-58793623D01*
X209640004Y-58791802D01*
X209641994Y-58791607D01*
X209643091Y-58792877D01*
G37*
G36*
X209709936Y-58205305D02*
G01*
X209710838Y-58207091D01*
X209710594Y-58207942D01*
X209700578Y-58226161D01*
X209643929Y-58404743D01*
X209643148Y-58411700D01*
X209641961Y-58413310D01*
X209639973Y-58413087D01*
X209639188Y-58411811D01*
X209627809Y-58344626D01*
X209581161Y-58293435D01*
X209514014Y-58275527D01*
X209507526Y-58276077D01*
X209505716Y-58275227D01*
X209505547Y-58273234D01*
X209506819Y-58272158D01*
X209660095Y-58229362D01*
X209707939Y-58205194D01*
X209709936Y-58205305D01*
G37*
G36*
X194469936Y-58205305D02*
G01*
X194470838Y-58207091D01*
X194470594Y-58207942D01*
X194460578Y-58226161D01*
X194403929Y-58404743D01*
X194403148Y-58411700D01*
X194401961Y-58413310D01*
X194399973Y-58413087D01*
X194399188Y-58411811D01*
X194387809Y-58344626D01*
X194341161Y-58293435D01*
X194274014Y-58275527D01*
X194267526Y-58276077D01*
X194265716Y-58275227D01*
X194265547Y-58273234D01*
X194266819Y-58272158D01*
X194420095Y-58229362D01*
X194467939Y-58205194D01*
X194469936Y-58205305D01*
G37*
G36*
X195014749Y-57526037D02*
G01*
X195015520Y-57527348D01*
X195024795Y-57592409D01*
X195070087Y-57644805D01*
X195136719Y-57664456D01*
X195139206Y-57664246D01*
X195141017Y-57665097D01*
X195141185Y-57667089D01*
X195139940Y-57668158D01*
X194983318Y-57714254D01*
X194950380Y-57731473D01*
X194948381Y-57731390D01*
X194947455Y-57729617D01*
X194947714Y-57728713D01*
X194949935Y-57724804D01*
X195009075Y-57547023D01*
X195011556Y-57527379D01*
X195012765Y-57525786D01*
X195014749Y-57526037D01*
G37*
G36*
X210254749Y-57526037D02*
G01*
X210255520Y-57527348D01*
X210264795Y-57592409D01*
X210310087Y-57644805D01*
X210376719Y-57664456D01*
X210379206Y-57664246D01*
X210381017Y-57665097D01*
X210381185Y-57667089D01*
X210379940Y-57668158D01*
X210223318Y-57714254D01*
X210190380Y-57731473D01*
X210188381Y-57731390D01*
X210187455Y-57729617D01*
X210187714Y-57728713D01*
X210189935Y-57724804D01*
X210249075Y-57547023D01*
X210251556Y-57527379D01*
X210252765Y-57525786D01*
X210254749Y-57526037D01*
G37*
G36*
X194948708Y-56938506D02*
G01*
X194958610Y-56944040D01*
X195136795Y-57001936D01*
X195159718Y-57004669D01*
X195161319Y-57005867D01*
X195161082Y-57007853D01*
X195159607Y-57008651D01*
X195097444Y-57012577D01*
X195041657Y-57053618D01*
X195016871Y-57118415D01*
X195019714Y-57147451D01*
X195019327Y-57148303D01*
X195028549Y-57248658D01*
X195027711Y-57250474D01*
X195025720Y-57250657D01*
X195024567Y-57249036D01*
X195014649Y-57147881D01*
X194960494Y-56968515D01*
X194945966Y-56941191D01*
X194946036Y-56939192D01*
X194947802Y-56938253D01*
X194948708Y-56938506D01*
G37*
G36*
X210188708Y-56938506D02*
G01*
X210198610Y-56944040D01*
X210376795Y-57001936D01*
X210399718Y-57004669D01*
X210401319Y-57005867D01*
X210401082Y-57007853D01*
X210399607Y-57008651D01*
X210337444Y-57012577D01*
X210281657Y-57053618D01*
X210256871Y-57118415D01*
X210259714Y-57147451D01*
X210259327Y-57148303D01*
X210268549Y-57248658D01*
X210267711Y-57250474D01*
X210265720Y-57250657D01*
X210264567Y-57249036D01*
X210254649Y-57147881D01*
X210200494Y-56968515D01*
X210185966Y-56941191D01*
X210186036Y-56939192D01*
X210187802Y-56938253D01*
X210188708Y-56938506D01*
G37*
G36*
X209643091Y-56252877D02*
G01*
X209690364Y-56417738D01*
X209712000Y-56459836D01*
X209711902Y-56461833D01*
X209710123Y-56462748D01*
X209709270Y-56462509D01*
X209684954Y-56449362D01*
X209508734Y-56394812D01*
X209507375Y-56393344D01*
X209507966Y-56391434D01*
X209509147Y-56390909D01*
X209563790Y-56386019D01*
X209618483Y-56343532D01*
X209641573Y-56278083D01*
X209639178Y-56253623D01*
X209640004Y-56251802D01*
X209641994Y-56251607D01*
X209643091Y-56252877D01*
G37*
G36*
X194403091Y-56252877D02*
G01*
X194450364Y-56417738D01*
X194472000Y-56459836D01*
X194471902Y-56461833D01*
X194470123Y-56462748D01*
X194469270Y-56462509D01*
X194444954Y-56449362D01*
X194268734Y-56394812D01*
X194267375Y-56393344D01*
X194267966Y-56391434D01*
X194269147Y-56390909D01*
X194323790Y-56386019D01*
X194378483Y-56343532D01*
X194401573Y-56278083D01*
X194399178Y-56253623D01*
X194400004Y-56251802D01*
X194401994Y-56251607D01*
X194403091Y-56252877D01*
G37*
G36*
X194469936Y-55665305D02*
G01*
X194470838Y-55667091D01*
X194470594Y-55667942D01*
X194460578Y-55686161D01*
X194403929Y-55864743D01*
X194403148Y-55871700D01*
X194401961Y-55873310D01*
X194399973Y-55873087D01*
X194399188Y-55871811D01*
X194387809Y-55804626D01*
X194341161Y-55753435D01*
X194274014Y-55735527D01*
X194267526Y-55736077D01*
X194265716Y-55735227D01*
X194265547Y-55733234D01*
X194266819Y-55732158D01*
X194420095Y-55689362D01*
X194467939Y-55665194D01*
X194469936Y-55665305D01*
G37*
G36*
X209709936Y-55665305D02*
G01*
X209710838Y-55667091D01*
X209710594Y-55667942D01*
X209700578Y-55686161D01*
X209643929Y-55864743D01*
X209643148Y-55871700D01*
X209641961Y-55873310D01*
X209639973Y-55873087D01*
X209639188Y-55871811D01*
X209627809Y-55804626D01*
X209581161Y-55753435D01*
X209514014Y-55735527D01*
X209507526Y-55736077D01*
X209505716Y-55735227D01*
X209505547Y-55733234D01*
X209506819Y-55732158D01*
X209660095Y-55689362D01*
X209707939Y-55665194D01*
X209709936Y-55665305D01*
G37*
G36*
X210254749Y-54986037D02*
G01*
X210255520Y-54987348D01*
X210264795Y-55052409D01*
X210310087Y-55104805D01*
X210376719Y-55124456D01*
X210379206Y-55124246D01*
X210381017Y-55125097D01*
X210381185Y-55127089D01*
X210379940Y-55128158D01*
X210223318Y-55174254D01*
X210190380Y-55191473D01*
X210188381Y-55191390D01*
X210187455Y-55189617D01*
X210187714Y-55188713D01*
X210189935Y-55184804D01*
X210249075Y-55007023D01*
X210251556Y-54987379D01*
X210252765Y-54985786D01*
X210254749Y-54986037D01*
G37*
G36*
X195014749Y-54986037D02*
G01*
X195015520Y-54987348D01*
X195024795Y-55052409D01*
X195070087Y-55104805D01*
X195136719Y-55124456D01*
X195139206Y-55124246D01*
X195141017Y-55125097D01*
X195141185Y-55127089D01*
X195139940Y-55128158D01*
X194983318Y-55174254D01*
X194950380Y-55191473D01*
X194948381Y-55191390D01*
X194947455Y-55189617D01*
X194947714Y-55188713D01*
X194949935Y-55184804D01*
X195009075Y-55007023D01*
X195011556Y-54987379D01*
X195012765Y-54985786D01*
X195014749Y-54986037D01*
G37*
G36*
X210188708Y-54398506D02*
G01*
X210198610Y-54404040D01*
X210376795Y-54461936D01*
X210399718Y-54464669D01*
X210401319Y-54465867D01*
X210401082Y-54467853D01*
X210399607Y-54468651D01*
X210337444Y-54472577D01*
X210281657Y-54513618D01*
X210256871Y-54578415D01*
X210259714Y-54607451D01*
X210259327Y-54608303D01*
X210268549Y-54708658D01*
X210267711Y-54710474D01*
X210265720Y-54710657D01*
X210264567Y-54709036D01*
X210254649Y-54607881D01*
X210200494Y-54428515D01*
X210185966Y-54401191D01*
X210186036Y-54399192D01*
X210187802Y-54398253D01*
X210188708Y-54398506D01*
G37*
G36*
X194948708Y-54398506D02*
G01*
X194958610Y-54404040D01*
X195136795Y-54461936D01*
X195159718Y-54464669D01*
X195161319Y-54465867D01*
X195161082Y-54467853D01*
X195159607Y-54468651D01*
X195097444Y-54472577D01*
X195041657Y-54513618D01*
X195016871Y-54578415D01*
X195019714Y-54607451D01*
X195019327Y-54608303D01*
X195028549Y-54708658D01*
X195027711Y-54710474D01*
X195025720Y-54710657D01*
X195024567Y-54709036D01*
X195014649Y-54607881D01*
X194960494Y-54428515D01*
X194945966Y-54401191D01*
X194946036Y-54399192D01*
X194947802Y-54398253D01*
X194948708Y-54398506D01*
G37*
G36*
X194403091Y-53712877D02*
G01*
X194450364Y-53877738D01*
X194472000Y-53919836D01*
X194471902Y-53921833D01*
X194470123Y-53922748D01*
X194469270Y-53922509D01*
X194444954Y-53909362D01*
X194268734Y-53854812D01*
X194267375Y-53853344D01*
X194267966Y-53851434D01*
X194269147Y-53850909D01*
X194323790Y-53846019D01*
X194378483Y-53803532D01*
X194401573Y-53738083D01*
X194399178Y-53713623D01*
X194400004Y-53711802D01*
X194401994Y-53711607D01*
X194403091Y-53712877D01*
G37*
G36*
X209643091Y-53712877D02*
G01*
X209690364Y-53877738D01*
X209712000Y-53919836D01*
X209711902Y-53921833D01*
X209710123Y-53922748D01*
X209709270Y-53922509D01*
X209684954Y-53909362D01*
X209508734Y-53854812D01*
X209507375Y-53853344D01*
X209507966Y-53851434D01*
X209509147Y-53850909D01*
X209563790Y-53846019D01*
X209618483Y-53803532D01*
X209641573Y-53738083D01*
X209639178Y-53713623D01*
X209640004Y-53711802D01*
X209641994Y-53711607D01*
X209643091Y-53712877D01*
G37*
G36*
X194469936Y-53125305D02*
G01*
X194470838Y-53127091D01*
X194470594Y-53127942D01*
X194460578Y-53146161D01*
X194403929Y-53324743D01*
X194403148Y-53331700D01*
X194401961Y-53333310D01*
X194399973Y-53333087D01*
X194399188Y-53331811D01*
X194387809Y-53264626D01*
X194341161Y-53213435D01*
X194274014Y-53195527D01*
X194267526Y-53196077D01*
X194265716Y-53195227D01*
X194265547Y-53193234D01*
X194266819Y-53192158D01*
X194420095Y-53149362D01*
X194467939Y-53125194D01*
X194469936Y-53125305D01*
G37*
G36*
X209709936Y-53125305D02*
G01*
X209710838Y-53127091D01*
X209710594Y-53127942D01*
X209700578Y-53146161D01*
X209643929Y-53324743D01*
X209643148Y-53331700D01*
X209641961Y-53333310D01*
X209639973Y-53333087D01*
X209639188Y-53331811D01*
X209627809Y-53264626D01*
X209581161Y-53213435D01*
X209514014Y-53195527D01*
X209507526Y-53196077D01*
X209505716Y-53195227D01*
X209505547Y-53193234D01*
X209506819Y-53192158D01*
X209660095Y-53149362D01*
X209707939Y-53125194D01*
X209709936Y-53125305D01*
G37*
G36*
X210254749Y-52446037D02*
G01*
X210255520Y-52447348D01*
X210264795Y-52512409D01*
X210310087Y-52564805D01*
X210376719Y-52584456D01*
X210379206Y-52584246D01*
X210381017Y-52585097D01*
X210381185Y-52587089D01*
X210379940Y-52588158D01*
X210223318Y-52634254D01*
X210190380Y-52651473D01*
X210188381Y-52651390D01*
X210187455Y-52649617D01*
X210187714Y-52648713D01*
X210189935Y-52644804D01*
X210249075Y-52467023D01*
X210251556Y-52447379D01*
X210252765Y-52445786D01*
X210254749Y-52446037D01*
G37*
G36*
X195014749Y-52446037D02*
G01*
X195015520Y-52447348D01*
X195024795Y-52512409D01*
X195070087Y-52564805D01*
X195136719Y-52584456D01*
X195139206Y-52584246D01*
X195141017Y-52585097D01*
X195141185Y-52587089D01*
X195139940Y-52588158D01*
X194983318Y-52634254D01*
X194950380Y-52651473D01*
X194948381Y-52651390D01*
X194947455Y-52649617D01*
X194947714Y-52648713D01*
X194949935Y-52644804D01*
X195009075Y-52467023D01*
X195011556Y-52447379D01*
X195012765Y-52445786D01*
X195014749Y-52446037D01*
G37*
G36*
X194948708Y-51858506D02*
G01*
X194958610Y-51864040D01*
X195136795Y-51921936D01*
X195159718Y-51924669D01*
X195161319Y-51925867D01*
X195161082Y-51927853D01*
X195159607Y-51928651D01*
X195097444Y-51932577D01*
X195041657Y-51973618D01*
X195016871Y-52038415D01*
X195019714Y-52067451D01*
X195019327Y-52068303D01*
X195028549Y-52168658D01*
X195027711Y-52170474D01*
X195025720Y-52170657D01*
X195024567Y-52169036D01*
X195014649Y-52067881D01*
X194960494Y-51888515D01*
X194945966Y-51861191D01*
X194946036Y-51859192D01*
X194947802Y-51858253D01*
X194948708Y-51858506D01*
G37*
G36*
X210188708Y-51858506D02*
G01*
X210198610Y-51864040D01*
X210376795Y-51921936D01*
X210399718Y-51924669D01*
X210401319Y-51925867D01*
X210401082Y-51927853D01*
X210399607Y-51928651D01*
X210337444Y-51932577D01*
X210281657Y-51973618D01*
X210256871Y-52038415D01*
X210259714Y-52067451D01*
X210259327Y-52068303D01*
X210268549Y-52168658D01*
X210267711Y-52170474D01*
X210265720Y-52170657D01*
X210264567Y-52169036D01*
X210254649Y-52067881D01*
X210200494Y-51888515D01*
X210185966Y-51861191D01*
X210186036Y-51859192D01*
X210187802Y-51858253D01*
X210188708Y-51858506D01*
G37*
G36*
X209643091Y-51172877D02*
G01*
X209690364Y-51337738D01*
X209712000Y-51379836D01*
X209711902Y-51381833D01*
X209710123Y-51382748D01*
X209709270Y-51382509D01*
X209684954Y-51369362D01*
X209508734Y-51314812D01*
X209507375Y-51313344D01*
X209507966Y-51311434D01*
X209509147Y-51310909D01*
X209563790Y-51306019D01*
X209618483Y-51263532D01*
X209641573Y-51198083D01*
X209639178Y-51173623D01*
X209640004Y-51171802D01*
X209641994Y-51171607D01*
X209643091Y-51172877D01*
G37*
G36*
X194403091Y-51172877D02*
G01*
X194450364Y-51337738D01*
X194472000Y-51379836D01*
X194471902Y-51381833D01*
X194470123Y-51382748D01*
X194469270Y-51382509D01*
X194444954Y-51369362D01*
X194268734Y-51314812D01*
X194267375Y-51313344D01*
X194267966Y-51311434D01*
X194269147Y-51310909D01*
X194323790Y-51306019D01*
X194378483Y-51263532D01*
X194401573Y-51198083D01*
X194399178Y-51173623D01*
X194400004Y-51171802D01*
X194401994Y-51171607D01*
X194403091Y-51172877D01*
G37*
M02*
