M48
; DRILL file {KiCad (5.1.10)-1} date 12/24/21 23:35:30
; FORMAT={-:-/ absolute / inch / decimal}
; #@! TF.CreationDate,2021-12-24T23:35:30+01:00
; #@! TF.GenerationSoftware,Kicad,Pcbnew,(5.1.10)-1
; #@! TF.FileFunction,NonPlated,1,2,NPTH
FMAT,2
INCH
T1C0.0390
T2C0.0472
T3C0.0670
T4C0.0866
T5C0.1181
T6C0.1350
T7C0.1851
%
G90
G05
T1
X3.2366Y-2.0464
X3.2366Y-2.7944
X3.2366Y-3.5424
X3.2366Y-4.2905
X3.2366Y-5.0385
X3.6477Y-2.0464
X3.6477Y-2.7944
X3.6477Y-3.5424
X3.6477Y-4.2905
X3.6477Y-5.0385
X3.9847Y-2.0464
X3.9847Y-2.7944
X3.9847Y-3.5424
X3.9847Y-4.2905
X3.9847Y-5.0385
X4.3957Y-2.0464
X4.3957Y-2.7944
X4.3957Y-3.5424
X4.3957Y-4.2905
X4.3957Y-5.0385
X4.7327Y-2.0464
X4.7327Y-2.7944
X4.7327Y-3.5424
X4.7327Y-4.2905
X4.7327Y-5.0385
X5.1437Y-2.0464
X5.1437Y-2.7944
X5.1437Y-3.5424
X5.1437Y-4.2905
X5.1437Y-5.0385
X5.4807Y-2.0464
X5.4807Y-2.7944
X5.4807Y-3.5424
X5.4807Y-4.2905
X5.4807Y-5.0385
X5.8918Y-2.0464
X5.8918Y-2.7944
X5.8918Y-3.5424
X5.8918Y-4.2905
X5.8918Y-5.0385
X6.2288Y-2.0464
X6.2288Y-2.7944
X6.2288Y-3.5424
X6.2288Y-4.2905
X6.2288Y-5.0385
X6.6398Y-2.0464
X6.6398Y-2.7944
X6.6398Y-3.5424
X6.6398Y-4.2905
X6.6398Y-5.0385
X6.9768Y-2.0464
X6.9768Y-2.7944
X6.9768Y-3.5424
X6.9768Y-4.2905
X6.9768Y-5.0385
X7.3878Y-2.0464
X7.3878Y-2.7944
X7.3878Y-3.5424
X7.3878Y-4.2905
X7.3878Y-5.0385
X7.7248Y-4.2905
X7.7248Y-5.0385
X8.1358Y-4.2905
X8.1358Y-5.0385
T2
X8.006Y-3.4885
X8.006Y-3.5574
X8.2816Y-3.4885
X8.2816Y-3.5574
T3
X3.2256Y-2.2117
X3.2256Y-2.9597
X3.2256Y-3.7078
X3.2256Y-4.4558
X3.2256Y-5.2038
X3.6587Y-2.2117
X3.6587Y-2.9597
X3.6587Y-3.7078
X3.6587Y-4.4558
X3.6587Y-5.2038
X3.9736Y-2.2117
X3.9736Y-2.9597
X3.9736Y-3.7078
X3.9736Y-4.4558
X3.9736Y-5.2038
X4.4067Y-2.2117
X4.4067Y-2.9597
X4.4067Y-3.7078
X4.4067Y-4.4558
X4.4067Y-5.2038
X4.7217Y-2.2117
X4.7217Y-2.9597
X4.7217Y-3.7078
X4.7217Y-4.4558
X4.7217Y-5.2038
X5.1547Y-2.2117
X5.1547Y-2.9597
X5.1547Y-3.7078
X5.1547Y-4.4558
X5.1547Y-5.2038
X5.4697Y-2.2117
X5.4697Y-2.9597
X5.4697Y-3.7078
X5.4697Y-4.4558
X5.4697Y-5.2038
X5.9028Y-2.2117
X5.9028Y-2.9597
X5.9028Y-3.7078
X5.9028Y-4.4558
X5.9028Y-5.2038
X6.2177Y-2.2117
X6.2177Y-2.9597
X6.2177Y-3.7078
X6.2177Y-4.4558
X6.2177Y-5.2038
X6.6508Y-2.2117
X6.6508Y-2.9597
X6.6508Y-3.7078
X6.6508Y-4.4558
X6.6508Y-5.2038
X6.9658Y-2.2117
X6.9658Y-2.9597
X6.9658Y-3.7078
X6.9658Y-4.4558
X6.9658Y-5.2038
X7.3988Y-2.2117
X7.3988Y-2.9597
X7.3988Y-3.7078
X7.3988Y-4.4558
X7.3988Y-5.2038
X7.7138Y-4.4558
X7.7138Y-5.2038
X8.1469Y-4.4558
X8.1469Y-5.2038
T4
X7.7107Y-3.2943
X7.7108Y-3.9834
X8.2521Y-3.2943
X8.2521Y-3.9832
T5
X3.2453Y-2.3594
X3.2453Y-3.1074
X3.2453Y-3.8554
X3.2453Y-4.6034
X3.2453Y-5.3515
X3.4421Y-2.446
X3.4421Y-3.194
X3.4421Y-3.942
X3.4421Y-4.6901
X3.4421Y-5.4381
X3.639Y-2.3594
X3.639Y-3.1074
X3.639Y-3.8554
X3.639Y-4.6034
X3.639Y-5.3515
X3.9933Y-2.3594
X3.9933Y-3.1074
X3.9933Y-3.8554
X3.9933Y-4.6034
X3.9933Y-5.3515
X4.1902Y-2.446
X4.1902Y-3.194
X4.1902Y-3.942
X4.1902Y-4.6901
X4.1902Y-5.4381
X4.387Y-2.3594
X4.387Y-3.1074
X4.387Y-3.8554
X4.387Y-4.6034
X4.387Y-5.3515
X4.7414Y-2.3594
X4.7414Y-3.1074
X4.7414Y-3.8554
X4.7414Y-4.6034
X4.7414Y-5.3515
X4.9382Y-2.446
X4.9382Y-3.194
X4.9382Y-3.942
X4.9382Y-4.6901
X4.9382Y-5.4381
X5.1351Y-2.3594
X5.1351Y-3.1074
X5.1351Y-3.8554
X5.1351Y-4.6034
X5.1351Y-5.3515
X5.4894Y-2.3594
X5.4894Y-3.1074
X5.4894Y-3.8554
X5.4894Y-4.6034
X5.4894Y-5.3515
X5.6862Y-2.446
X5.6862Y-3.194
X5.6862Y-3.942
X5.6862Y-4.6901
X5.6862Y-5.4381
X5.8831Y-2.3594
X5.8831Y-3.1074
X5.8831Y-3.8554
X5.8831Y-4.6034
X5.8831Y-5.3515
X6.2374Y-2.3594
X6.2374Y-3.1074
X6.2374Y-3.8554
X6.2374Y-4.6034
X6.2374Y-5.3515
X6.4343Y-2.446
X6.4343Y-3.194
X6.4343Y-3.942
X6.4343Y-4.6901
X6.4343Y-5.4381
X6.6311Y-2.3594
X6.6311Y-3.1074
X6.6311Y-3.8554
X6.6311Y-4.6034
X6.6311Y-5.3515
X6.9855Y-2.3594
X6.9855Y-3.1074
X6.9855Y-3.8554
X6.9855Y-4.6034
X6.9855Y-5.3515
X7.1823Y-2.446
X7.1823Y-3.194
X7.1823Y-3.942
X7.1823Y-4.6901
X7.1823Y-5.4381
X7.3792Y-2.3594
X7.3792Y-3.1074
X7.3792Y-3.8554
X7.3792Y-4.6034
X7.3792Y-5.3515
X7.7335Y-4.6034
X7.7335Y-5.3515
X7.9303Y-4.6901
X7.9303Y-5.4381
X8.1272Y-4.6034
X8.1272Y-5.3515
T6
X3.4421Y-2.2117
X3.4421Y-2.9597
X3.4421Y-3.7078
X3.4421Y-4.4558
X3.4421Y-5.2038
X4.1902Y-2.2117
X4.1902Y-2.9597
X4.1902Y-3.7078
X4.1902Y-4.4558
X4.1902Y-5.2038
X4.9382Y-2.2117
X4.9382Y-2.9597
X4.9382Y-3.7078
X4.9382Y-4.4558
X4.9382Y-5.2038
X5.6862Y-2.2117
X5.6862Y-2.9597
X5.6862Y-3.7078
X5.6862Y-4.4558
X5.6862Y-5.2038
X6.4343Y-2.2117
X6.4343Y-2.9597
X6.4343Y-3.7078
X6.4343Y-4.4558
X6.4343Y-5.2038
X7.1823Y-2.2117
X7.1823Y-2.9597
X7.1823Y-3.7078
X7.1823Y-4.4558
X7.1823Y-5.2038
X7.9303Y-4.4558
X7.9303Y-5.2038
T7
X3.8162Y-2.5857
X3.8162Y-4.0818
X3.8162Y-4.8298
X5.3122Y-2.5857
X5.3122Y-4.0818
X6.0603Y-4.8298
X6.8083Y-2.5857
X6.8083Y-4.0818
X7.5563Y-4.8298
T0
M30
