M48
; DRILL file {KiCad (5.1.10)-1} date 12/24/21 02:36:41
; FORMAT={-:-/ absolute / inch / decimal}
; #@! TF.CreationDate,2021-12-24T02:36:41+01:00
; #@! TF.GenerationSoftware,Kicad,Pcbnew,(5.1.10)-1
; #@! TF.FileFunction,Plated,1,2,PTH
FMAT,2
INCH
T1C0.0157
T2C0.0320
T3C0.0394
T4C0.0512
%
G90
G05
T1
X3.1164Y-4.5132
X3.1164Y-5.2624
X3.1167Y-2.0914
X3.1167Y-2.1643
X3.1167Y-2.6153
X3.1167Y-2.7284
X3.1167Y-3.5844
X3.1167Y-3.6543
X3.1167Y-4.1093
X3.1167Y-4.2245
X3.1875Y-4.7729
X3.1877Y-5.1162
X3.1877Y-4.8979
X3.2265Y-4.3668
X3.2366Y-1.9056
X3.2366Y-2.6536
X3.2366Y-3.4017
X3.2366Y-4.1497
X3.2366Y-4.9671
X3.2847Y-1.9804
X3.2852Y-2.7284
X3.2858Y-3.4765
X3.2858Y-4.9725
X3.2888Y-4.2245
X3.3237Y-2.5857
X3.3237Y-3.3338
X3.3237Y-4.0818
X3.4421Y-2.318
X3.4421Y-2.3574
X3.4421Y-3.066
X3.4421Y-3.1054
X3.4421Y-3.814
X3.4421Y-3.8534
X3.4421Y-4.563
X3.4421Y-4.6024
X3.4421Y-5.31
X3.4421Y-5.3494
X3.5662Y-2.5857
X3.5662Y-3.3338
X3.5662Y-4.0818
X3.5976Y-5.0414
X3.5987Y-3.5454
X3.5991Y-2.7973
X3.5992Y-2.0493
X3.6006Y-4.2934
X3.6968Y-2.1241
X3.6968Y-2.8721
X3.6968Y-3.6202
X3.6968Y-4.3682
X3.6968Y-5.1162
X3.7283Y-5.1538
X3.7353Y-4.4067
X3.8037Y-5.0784
X3.8116Y-4.3304
X3.8644Y-4.5131
X3.8644Y-5.2624
X3.9847Y-1.9056
X3.9847Y-2.6536
X3.9847Y-3.4017
X3.9847Y-4.1486
X3.9847Y-4.8977
X4.0337Y-2.7284
X4.0338Y-3.4765
X4.0338Y-4.2245
X4.0347Y-1.9804
X4.0358Y-4.9725
X4.0662Y-2.5857
X4.0662Y-3.3338
X4.0662Y-4.0818
X4.1902Y-2.318
X4.1902Y-2.3574
X4.1902Y-3.066
X4.1902Y-3.1054
X4.1902Y-3.814
X4.1902Y-3.8534
X4.1902Y-4.563
X4.1902Y-4.6024
X4.1902Y-5.31
X4.1902Y-5.3494
X4.3142Y-2.5857
X4.3142Y-3.3338
X4.3142Y-4.0818
X4.3456Y-5.0414
X4.3467Y-3.5454
X4.3471Y-4.2934
X4.3481Y-2.0493
X4.3481Y-2.7973
X4.4478Y-2.1241
X4.4478Y-2.8721
X4.4478Y-3.6202
X4.4478Y-4.3682
X4.4478Y-5.1162
X4.4814Y-4.4082
X4.4821Y-5.1536
X4.5573Y-5.0784
X4.5592Y-4.3304
X4.6124Y-4.5133
X4.6124Y-5.2624
X4.7116Y-1.9556
X4.7327Y-2.6536
X4.7327Y-3.4017
X4.7327Y-4.1486
X4.7327Y-4.8977
X4.7792Y-2.7284
X4.7798Y-3.4765
X4.7828Y-4.2245
X4.7838Y-4.9725
X4.7847Y-1.9804
X4.8142Y-2.5857
X4.8142Y-3.3338
X4.8142Y-4.0818
X4.9382Y-2.318
X4.9382Y-2.3574
X4.9382Y-3.066
X4.9382Y-3.1054
X4.9382Y-3.814
X4.9382Y-3.8534
X4.9382Y-4.563
X4.9382Y-4.6024
X4.9382Y-5.31
X4.9382Y-5.3494
X5.0622Y-2.5857
X5.0622Y-3.3338
X5.0622Y-4.0818
X5.0941Y-2.0493
X5.0946Y-5.0414
X5.0951Y-4.2934
X5.0957Y-3.5454
X5.0961Y-2.7973
X5.1963Y-2.1241
X5.1963Y-2.8721
X5.1963Y-3.6202
X5.1963Y-4.3682
X5.1963Y-5.1162
X5.231Y-4.4096
X5.231Y-5.1537
X5.3063Y-5.0784
X5.3102Y-4.3304
X5.3605Y-4.5141
X5.3605Y-5.2634
X5.4807Y-1.9056
X5.4807Y-2.6536
X5.4807Y-3.4017
X5.4807Y-4.1484
X5.4807Y-4.8977
X5.5262Y-2.7284
X5.529Y-4.2245
X5.5308Y-3.4765
X5.5318Y-4.9725
X5.5347Y-1.9804
X5.5622Y-2.5857
X5.5622Y-3.3338
X5.5622Y-4.0818
X5.6862Y-2.318
X5.6862Y-2.3574
X5.6862Y-3.066
X5.6862Y-3.1054
X5.6862Y-3.814
X5.6862Y-3.8534
X5.6862Y-4.563
X5.6862Y-4.6024
X5.6862Y-5.31
X5.6862Y-5.3494
X5.8103Y-2.5857
X5.8103Y-3.3338
X5.8103Y-4.0818
X5.8416Y-5.0414
X5.8432Y-4.2934
X5.8441Y-2.0493
X5.8446Y-2.7973
X5.8447Y-3.5454
X5.9463Y-2.1241
X5.9463Y-2.8721
X5.9463Y-3.6202
X5.9463Y-4.3682
X5.9463Y-5.1162
X5.9559Y-2.6189
X5.9748Y-5.154
X5.9771Y-4.4047
X6.0504Y-5.0784
X6.0514Y-4.3304
X6.1085Y-4.5134
X6.1085Y-5.2624
X6.2288Y-1.9056
X6.2288Y-2.6536
X6.2288Y-3.4017
X6.2288Y-4.1486
X6.2288Y-4.8977
X6.273Y-4.2245
X6.2732Y-2.7284
X6.2768Y-3.4765
X6.2778Y-4.9725
X6.2827Y-1.9804
X6.2997Y-3.3338
X6.3103Y-2.5857
X6.3103Y-4.0818
X6.4343Y-2.318
X6.4343Y-2.3574
X6.4343Y-3.066
X6.4343Y-3.1054
X6.4343Y-3.814
X6.4343Y-3.8534
X6.4343Y-4.563
X6.4343Y-4.6024
X6.4343Y-5.31
X6.4343Y-5.3494
X6.5583Y-2.5857
X6.5583Y-3.3338
X6.5583Y-4.0818
X6.5896Y-2.0493
X6.5911Y-4.2934
X6.5916Y-5.0414
X6.5917Y-3.5454
X6.5919Y-2.6533
X6.5931Y-2.7973
X6.6445Y-2.6533
X6.6958Y-2.1241
X6.6958Y-2.8721
X6.6958Y-3.6202
X6.6958Y-4.3682
X6.6958Y-5.1162
X6.7235Y-4.4069
X6.725Y-5.1542
X6.8Y-4.3304
X6.8008Y-5.0784
X6.8565Y-4.513
X6.8565Y-5.2634
X6.9465Y-1.9452
X6.9768Y-3.4017
X6.9768Y-4.1486
X6.9768Y-4.8977
X6.9879Y-2.6821
X7.0217Y-2.7284
X7.0238Y-3.4765
X7.0247Y-1.9804
X7.0248Y-4.9725
X7.0265Y-4.2245
X7.0583Y-2.5857
X7.0583Y-3.3338
X7.0583Y-4.0818
X7.1823Y-2.318
X7.1823Y-2.3574
X7.1823Y-3.1054
X7.1823Y-3.814
X7.1823Y-3.8534
X7.1823Y-4.563
X7.1823Y-4.6024
X7.1823Y-5.31
X7.1823Y-5.3494
X7.2492Y-3.066
X7.2807Y-3.0859
X7.3037Y-2.8721
X7.3067Y-2.5857
X7.3067Y-3.3338
X7.3067Y-4.0818
X7.3151Y-3.4306
X7.3314Y-3.5454
X7.3376Y-5.0414
X7.3381Y-4.2934
X7.3396Y-2.7973
X7.3396Y-2.9073
X7.3417Y-3.2827
X7.3441Y-1.9804
X7.3605Y-3.4774
X7.3625Y-2.618
X7.3878Y-2.8415
X7.3917Y-3.4466
X7.3931Y-2.6528
X7.4161Y-2.5351
X7.4175Y-3.3332
X7.4326Y-2.6073
X7.4468Y-4.3682
X7.4468Y-5.1162
X7.4657Y-2.9073
X7.4756Y-4.4065
X7.4758Y-5.1536
X7.4783Y-3.6202
X7.4983Y-3.2079
X7.5317Y-3.2079
X7.5317Y-3.2547
X7.5317Y-3.4328
X7.551Y-5.0784
X7.5517Y-4.3304
X7.5833Y-4.0818
X7.5834Y-3.5879
X7.6045Y-4.5137
X7.6045Y-5.2634
X7.62Y-3.5888
X7.6544Y-3.5883
X7.7248Y-4.1486
X7.7248Y-4.8977
X7.7357Y-3.0677
X7.7483Y-1.9534
X7.7738Y-4.2245
X7.7758Y-4.9725
X7.7793Y-2.1573
X7.8017Y-4.4338
X7.8147Y-2.0073
X7.8147Y-2.3073
X7.8147Y-2.3573
X7.8265Y-4.5619
X7.8358Y-4.1486
X7.8358Y-4.8977
X7.8449Y-2.4072
X7.8747Y-2.2054
X7.9141Y-1.9041
X7.9148Y-3.1221
X7.9253Y-2.3073
X7.9269Y-2.0558
X7.9303Y-4.563
X7.9303Y-4.6024
X7.9303Y-5.31
X7.9303Y-5.3494
X7.9658Y-3.1615
X8.0147Y-2.5573
X8.0147Y-3.3784
X8.0248Y-4.5794
X8.0463Y-2.2573
X8.0467Y-2.2057
X8.0738Y-2.4573
X8.0846Y-5.0414
X8.0886Y-4.2934
X8.0929Y-2.0559
X8.1116Y-2.1072
X8.1147Y-3.1028
X8.1358Y-4.3682
X8.1358Y-5.1162
X8.1526Y-2.3577
X8.1573Y-2.1573
X8.1588Y-2.4073
X8.1637Y-3.0339
X8.1655Y-3.1615
X8.1658Y-2.8573
X8.166Y-2.9573
X8.1663Y-2.7573
X8.1665Y-2.5573
X8.1665Y-2.6573
T2
X7.6407Y-2.0573
X7.6407Y-2.1573
X7.6407Y-2.2573
X7.6407Y-2.3573
X7.6407Y-2.4573
X7.6407Y-2.5573
X7.6407Y-2.6573
X7.6407Y-2.7573
X7.6407Y-2.8573
X7.6407Y-2.9573
X7.6407Y-3.0573
X7.6407Y-3.1573
X7.6907Y-2.0073
X7.6907Y-2.1073
X7.6907Y-2.2073
X7.6907Y-2.3073
X7.6907Y-2.4073
X7.6907Y-2.5073
X7.6907Y-2.6073
X7.6907Y-2.7073
X7.6907Y-2.8073
X7.6907Y-2.9073
X7.6907Y-3.0073
X7.6907Y-3.1073
X7.7598Y-3.397
X7.7598Y-3.474
X7.8147Y-3.3056
X7.9147Y-3.3056
X8.0147Y-3.3056
X8.1147Y-3.3056
X8.2407Y-2.0573
X8.2407Y-2.1573
X8.2407Y-2.2573
X8.2407Y-2.3573
X8.2407Y-2.4573
X8.2407Y-2.5573
X8.2407Y-2.6573
X8.2407Y-2.7573
X8.2407Y-2.8573
X8.2407Y-2.9573
X8.2407Y-3.0573
X8.2407Y-3.1573
X8.2907Y-2.0073
X8.2907Y-2.1073
X8.2907Y-2.2073
X8.2907Y-2.3073
X8.2907Y-2.4073
X8.2907Y-2.5073
X8.2907Y-2.6073
X8.2907Y-2.7073
X8.2907Y-2.8073
X8.2907Y-2.9073
X8.2907Y-3.0073
X8.2907Y-3.1073
T4
X7.9667Y-3.7611
X8.2226Y-3.7611
T3
G00X7.8859Y-3.4747
M15
G01X7.8663Y-3.4747
M16
G05
G00X7.8859Y-3.5712
M15
G01X7.8663Y-3.5712
M16
G05
G00X7.945Y-3.4058
M15
G01X7.9253Y-3.4058
M16
G05
G00X7.945Y-3.6401
M15
G01X7.9253Y-3.6401
M16
G05
G00X8.1025Y-3.4058
M15
G01X8.0828Y-3.4058
M16
G05
G00X8.1025Y-3.6401
M15
G01X8.0828Y-3.6401
M16
G05
G00X8.2206Y-3.4058
M15
G01X8.2009Y-3.4058
M16
G05
G00X8.2206Y-3.6401
M15
G01X8.2009Y-3.6401
M16
G05
T0
M30
