M48
; DRILL file {KiCad (5.1.10)-1} date 12/17/21 22:00:09
; FORMAT={-:-/ absolute / inch / decimal}
; #@! TF.CreationDate,2021-12-17T22:00:09+01:00
; #@! TF.GenerationSoftware,Kicad,Pcbnew,(5.1.10)-1
; #@! TF.FileFunction,NonPlated,1,2,NPTH
FMAT,2
INCH
T1C0.0390
T2C0.0472
T3C0.0670
T4C0.0866
T5C0.1181
T6C0.1350
T7C0.1851
%
G90
G05
T1
X3.4165Y-1.9213
X3.4165Y-2.6693
X3.4165Y-3.4173
X3.4165Y-4.1654
X3.4165Y-4.9134
X3.8276Y-1.9213
X3.8276Y-2.6693
X3.8276Y-3.4173
X3.8276Y-4.1654
X3.8276Y-4.9134
X4.1646Y-1.9213
X4.1646Y-2.6693
X4.1646Y-3.4173
X4.1646Y-4.1654
X4.1646Y-4.9134
X4.5756Y-1.9213
X4.5756Y-2.6693
X4.5756Y-3.4173
X4.5756Y-4.1654
X4.5756Y-4.9134
X4.9126Y-1.9213
X4.9126Y-2.6693
X4.9126Y-3.4173
X4.9126Y-4.1654
X4.9126Y-4.9134
X5.3236Y-1.9213
X5.3236Y-2.6693
X5.3236Y-3.4173
X5.3236Y-4.1654
X5.3236Y-4.9134
X5.6606Y-1.9213
X5.6606Y-2.6693
X5.6606Y-3.4173
X5.6606Y-4.1654
X5.6606Y-4.9134
X6.0717Y-1.9213
X6.0717Y-2.6693
X6.0717Y-3.4173
X6.0717Y-4.1654
X6.0717Y-4.9134
X6.4087Y-1.9213
X6.4087Y-2.6693
X6.4087Y-3.4173
X6.4087Y-4.1654
X6.4087Y-4.9134
X6.8197Y-1.9213
X6.8197Y-2.6693
X6.8197Y-3.4173
X6.8197Y-4.1654
X6.8197Y-4.9134
X7.1567Y-1.9213
X7.1567Y-2.6693
X7.1567Y-3.4173
X7.1567Y-4.1654
X7.1567Y-4.9134
X7.5677Y-1.9213
X7.5677Y-2.6693
X7.5677Y-3.4173
X7.5677Y-4.1654
X7.5677Y-4.9134
X7.9047Y-4.1654
X7.9047Y-4.9134
X8.3157Y-4.1654
X8.3157Y-4.9134
T2
X8.1859Y-3.3634
X8.1859Y-3.4323
X8.4615Y-3.3634
X8.4615Y-3.4323
T3
X3.4055Y-2.0866
X3.4055Y-2.8346
X3.4055Y-3.5827
X3.4055Y-4.3307
X3.4055Y-5.0787
X3.8386Y-2.0866
X3.8386Y-2.8346
X3.8386Y-3.5827
X3.8386Y-4.3307
X3.8386Y-5.0787
X4.1535Y-2.0866
X4.1535Y-2.8346
X4.1535Y-3.5827
X4.1535Y-4.3307
X4.1535Y-5.0787
X4.5866Y-2.0866
X4.5866Y-2.8346
X4.5866Y-3.5827
X4.5866Y-4.3307
X4.5866Y-5.0787
X4.9016Y-2.0866
X4.9016Y-2.8346
X4.9016Y-3.5827
X4.9016Y-4.3307
X4.9016Y-5.0787
X5.3346Y-2.0866
X5.3346Y-2.8346
X5.3346Y-3.5827
X5.3346Y-4.3307
X5.3346Y-5.0787
X5.6496Y-2.0866
X5.6496Y-2.8346
X5.6496Y-3.5827
X5.6496Y-4.3307
X5.6496Y-5.0787
X6.0827Y-2.0866
X6.0827Y-2.8346
X6.0827Y-3.5827
X6.0827Y-4.3307
X6.0827Y-5.0787
X6.3976Y-2.0866
X6.3976Y-2.8346
X6.3976Y-3.5827
X6.3976Y-4.3307
X6.3976Y-5.0787
X6.8307Y-2.0866
X6.8307Y-2.8346
X6.8307Y-3.5827
X6.8307Y-4.3307
X6.8307Y-5.0787
X7.1457Y-2.0866
X7.1457Y-2.8346
X7.1457Y-3.5827
X7.1457Y-4.3307
X7.1457Y-5.0787
X7.5787Y-2.0866
X7.5787Y-2.8346
X7.5787Y-3.5827
X7.5787Y-4.3307
X7.5787Y-5.0787
X7.8937Y-4.3307
X7.8937Y-5.0787
X8.3268Y-4.3307
X8.3268Y-5.0787
T4
X7.8906Y-3.1693
X7.8906Y-3.8583
X8.432Y-3.1693
X8.432Y-3.8583
T5
X3.4252Y-2.2343
X3.4252Y-2.9823
X3.4252Y-3.7303
X3.4252Y-4.4783
X3.4252Y-5.2264
X3.622Y-2.3209
X3.622Y-3.0689
X3.622Y-3.8169
X3.622Y-4.565
X3.622Y-5.313
X3.8189Y-2.2343
X3.8189Y-2.9823
X3.8189Y-3.7303
X3.8189Y-4.4783
X3.8189Y-5.2264
X4.1732Y-2.2343
X4.1732Y-2.9823
X4.1732Y-3.7303
X4.1732Y-4.4783
X4.1732Y-5.2264
X4.3701Y-2.3209
X4.3701Y-3.0689
X4.3701Y-3.8169
X4.3701Y-4.565
X4.3701Y-5.313
X4.5669Y-2.2343
X4.5669Y-2.9823
X4.5669Y-3.7303
X4.5669Y-4.4783
X4.5669Y-5.2264
X4.9213Y-2.2343
X4.9213Y-2.9823
X4.9213Y-3.7303
X4.9213Y-4.4783
X4.9213Y-5.2264
X5.1181Y-2.3209
X5.1181Y-3.0689
X5.1181Y-3.8169
X5.1181Y-4.565
X5.1181Y-5.313
X5.315Y-2.2343
X5.315Y-2.9823
X5.315Y-3.7303
X5.315Y-4.4783
X5.315Y-5.2264
X5.6693Y-2.2343
X5.6693Y-2.9823
X5.6693Y-3.7303
X5.6693Y-4.4783
X5.6693Y-5.2264
X5.8661Y-2.3209
X5.8661Y-3.0689
X5.8661Y-3.8169
X5.8661Y-4.565
X5.8661Y-5.313
X6.063Y-2.2343
X6.063Y-2.9823
X6.063Y-3.7303
X6.063Y-4.4783
X6.063Y-5.2264
X6.4173Y-2.2343
X6.4173Y-2.9823
X6.4173Y-3.7303
X6.4173Y-4.4783
X6.4173Y-5.2264
X6.6142Y-2.3209
X6.6142Y-3.0689
X6.6142Y-3.8169
X6.6142Y-4.565
X6.6142Y-5.313
X6.811Y-2.2343
X6.811Y-2.9823
X6.811Y-3.7303
X6.811Y-4.4783
X6.811Y-5.2264
X7.1654Y-2.2343
X7.1654Y-2.9823
X7.1654Y-3.7303
X7.1654Y-4.4783
X7.1654Y-5.2264
X7.3622Y-2.3209
X7.3622Y-3.0689
X7.3622Y-3.8169
X7.3622Y-4.565
X7.3622Y-5.313
X7.5591Y-2.2343
X7.5591Y-2.9823
X7.5591Y-3.7303
X7.5591Y-4.4783
X7.5591Y-5.2264
X7.9134Y-4.4783
X7.9134Y-5.2264
X8.1102Y-4.565
X8.1102Y-5.313
X8.3071Y-4.4783
X8.3071Y-5.2264
T6
X3.622Y-2.0866
X3.622Y-2.8346
X3.622Y-3.5827
X3.622Y-4.3307
X3.622Y-5.0787
X4.3701Y-2.0866
X4.3701Y-2.8346
X4.3701Y-3.5827
X4.3701Y-4.3307
X4.3701Y-5.0787
X5.1181Y-2.0866
X5.1181Y-2.8346
X5.1181Y-3.5827
X5.1181Y-4.3307
X5.1181Y-5.0787
X5.8661Y-2.0866
X5.8661Y-2.8346
X5.8661Y-3.5827
X5.8661Y-4.3307
X5.8661Y-5.0787
X6.6142Y-2.0866
X6.6142Y-2.8346
X6.6142Y-3.5827
X6.6142Y-4.3307
X6.6142Y-5.0787
X7.3622Y-2.0866
X7.3622Y-2.8346
X7.3622Y-3.5827
X7.3622Y-4.3307
X7.3622Y-5.0787
X8.1102Y-4.3307
X8.1102Y-5.0787
T7
X3.9961Y-2.4606
X3.9961Y-3.9567
X3.9961Y-4.7047
X5.4921Y-2.4606
X5.4921Y-3.9567
X6.2402Y-4.7047
X6.9882Y-2.4606
X6.9882Y-3.9567
X7.7362Y-4.7047
T0
M30
